<mxfile host="app.diagrams.net" modified="2023-06-21T15:17:56.016Z" agent="Mozilla/5.0 (Windows NT 10.0; Win64; x64) AppleWebKit/537.36 (KHTML, like Gecko) Chrome/114.0.0.0 Safari/537.36" etag="G6EnayE7iFeOI9kkHaau" version="21.5.0" type="github">
  <diagram name="Page-1" id="W7Gy7tlMD5zSC442pS_x">
    <mxGraphModel dx="4115" dy="3048" grid="1" gridSize="10" guides="1" tooltips="1" connect="1" arrows="1" fold="1" page="1" pageScale="1" pageWidth="1920" pageHeight="1200" math="0" shadow="0">
      <root>
        <mxCell id="0" />
        <mxCell id="1" parent="0" />
        <mxCell id="QTnUCfMTTWea07dF9Dti-88" value="" style="shape=image;verticalLabelPosition=bottom;labelBackgroundColor=default;verticalAlign=top;aspect=fixed;imageAspect=0;image=data:image/png,iVBORw0KGgoAAAANSUhEUgAAAf0AAAFsCAYAAADG9mBuAAAgAElEQVR4nOydP2jjSvf3v8/L06kIZAmYhdwiSrGkcWVSLThuAuqikGJ7u9pNF9watyadkyruU5h1OsE2XsOtgqs0YYsoTWAJLBtwofr3FjOSZvR3JI2897k+H1i4yVU0ozNzzpk5c6Tzn7/++uv/QBAEQRDEv57/96c7QBAEQRDEeiCnTxAEQRAbAjl9RbpXDpzbIdp/uiMbQnswheOM0f3THSGIDYDpmxP+uyLN+7fy38TfdoaYXrRg+D8/z2B9mUQuamN420dry//Zxcw6R/Sq7pUDe8//ycPy8gyDeeSi3hjOiRn86N2PcDZcFHyUP4CSnLKR5ROhxP3KtJks7y7Gjg1T+I17Z+H8pmhr0XlS9j7l28uaT+3BFP1DA1gtMfo0QPFZp0tOimjUTSUUdDOQoU9pWWq0KUUInrGCnBQJZJWm2xpsCm9JfQ70xugfAstLq4IcVdorppuZrFsPIveL9jumA36LWmymXj2I7/S5MF/vLFiWBcuawd2zIys/3qnfM36NhdmzCTuyM+teObDfLTHi14zugdbFFMOOcFFvDOekgeUlb+9yCRz2MR38w/fUSnLKZ/LFCmQY/pvBBeD9etLe7fZgKo2JdefCOOxj3BOvYo6scT8K+3TnwjxxItfl072S58no3oN5EpkD2ojPy+z51MVpgqKqo09OSmjUTSUUdJMZu1fMgrk7whIt9AtHxTTalKLtdsz8y6rSGWLqOPiMR7hZ12iwKWxe9nHwY6Q0B7pNE3j+Vt3hZ45dUd3MYN164NM7lRYsMVaCXeX/Sjv8GvUg4vTbGPZaMJ5nQmcnOL9zgb3j4IbtwWe0tlzMhJXV5MsMLkwc+wPYG8Pe87C8CVf8i+E1lisDLdvvfhfjExPe/XU44eYDXN97MA5P/8GhXTU5lb774BgmXHyrIdqxGJ7BEndhN1+xXAFmU5B2rxlv/+YBLoDG+2IKOvliSSvwxfAbXBg4+FjDoq5zhIMtD8uZsCaef8fjCjB29mOXd69smKslZvdeufY0yikfjbqphIputnH0wYB3/1XYhSzw/YcHbG0jLvGMp9NmU4oRtHuX6oo10MX44gCPlxbOhi9pPdFmU9qDY5irJa6FeZk+B9rYfVfgURLbUxi7grqZ0dqa9cDH14cZlqsSf67IOvQg4vT3sb0FuA9yIKHbNAHBUO/vGMDzgxxu6DVhAjA+HKENoP2+Aawe8V1cPXaOcLAFYK/JjEZnFw14ePxbdG7MkAAmmnXsllTpjaUzLjkEryancrDdp2xI+f+5cqQ+ad1NvtuN7Mwa2BUNTWcXDQCvP/UsRGKKzndC/rMlhcoU74xtaePGxioWNekMcbwHuPMBqsVTFOUUeb7iuzd9uqlEAd2MjuX+jgGs3grJVZtNKUS6rklEbEHxKOQE51Ze6FWfTdnfSdKdJ7wVdrAF2lOac4q6md3aevWAE27E9EdfRdahB7LT54r+Fix62xjeOjj+xVY3bMKwlaE4UO3BFE7nje2Y+Ap/f8cAfr+EO8reGM7FNr7duQgMpbkNA694CTrPwlLb81lNuyU12oOpHNa0LMyehQuU5FS27WOYCcZ2eOvAhhwaa2gJIzMlksbq5itbNV749+9ifNGCsVria9Wzau4UJUXvjeFI4Tp2DFCY+QDfngHzxDfMbQxv7YSoSdJuoQSqcuLPB/EY4KFZbOw06qYSSrq5wGDuAnt2kOTaHkxh88WU+vJQo00pgB/puc6IqDFbYMIV5uY1TvUfT9VoUxgLvPwOfwoT9/jZ8Z4tLGyKHJcozjll3cxh3XoAAJ0hPh8acO9y8gG2WuhX2pStRw9kp29uh4kRgZJbOJNWN9xJ+FddOejvfIP1SdwxySEjv+OjSDJC+30j/KEzxNQ5xttlnUleKvir/+v0lbmSnMrAd1LR87XeaSzkEyhRs9ohSPfKholI2A0LDD755+8OHP/culRylgh3tpKi8zPVqg6YM/kS5ik4jn82FlHW3ila0VBjKVTkxMKCeJ7JCUs358WeV5tuqqGsmzfn7EyVGzz/fL/YWOqzKcoIkZ7UOc2NvXc/kp5nMTyvljiYhEabMnlwga0WTkWn0xtL0crF8CzMwViBJcIFZ9FFEiPV55ySbuaxZj0AgK6dv+EJ5Snn9hSLCq1HD2Sn777BAwAzWcnZCoSFiYB9vsIayVmTqzc8CatKseOhcrEdxOLnK/vRX6lEJpuuUHIhEsOaEZTkVIIUZ8QMsAnbceJHDrGwvDr+riy+wGGr5yBBiyfcVH2FrnvFdhXyijk5XFe+DUeI0vAEH2nnknBWXRoFOfHIRuXn06abaijrZm8cLnaCpKOixk6fTVFDMdJjbsPIswW60GlTbs4DpxPYi+aDHK3Uhvqcy9dNBdasB0nn50rcnGP2XPQoYT16IDv9+QteYaB1ElVycQXCGjUObb7CCpsTz5KefnnAnh3ruLSDcN/gwYQdXalwQ/mPRUlORfF3vGlZtK6QIS38K7n7Fl8dir+CxZNJ/DGZD3BmsWQSu+T7u/7rJdFdk1Z8BQ1eXZng3BqxEHzPDz/rS5KsQ06paNRNJZR0019Aha8vTb6wyIdx+LmAMddoU1TQFunRiG6bcnMu24kvT7HQsR4U55yCbiqxVj3Is8kKFDpKWI8eRBL5+EojMZEgXPE+/fIAuHiQjHcXzT3A+/EdC/g7hZREIP/+8xe8Ivyb4KqPBzBi918n0YSTaIarmpwKwV8HSdoRMlkWP7NMb2uc+a5wciKWvwotThhRSH8nN5q/UdhJwZ/00ZWueJYZJqLZ0aRB/zyuwKtmSnLic7x6foo+3VRCRTdTkhaDKEEBtNkUBfykr9aFsBM+MRHOCx6pcd/gxWxBXdRgU6T7sCPCOt4IUhm7fN1Ubm19ehAkx4n5DixayY4osiJa3GcUmJeq/a6qBxGnHybmhEkI/plkuNphr13Juxl2NixMKj/JSVjFsZ2RuMKe4Gt0VxCco+Vk1NYFf43E7Pj9jn9QQlVO6vAVZdq5UZAwpuELdZ0hpvyMOe2jH/6Z4GdxQmcsSjLhC4x0hz/BwzOkVzQzP1iUweLvR7Y7FXfZ/OyWKQw7g49GS0b3XviObYHIiZqc/Dke+RZCb1ww0Uejbqo9Xb5u+rpyEnkfu2PGs4vznk6bTVF4sqRvY9y5CKNpYeSGJZ/JIej2YFzDdyZ025SQMBmxng8PqYxdvm4qt7Y+PZgPcBaLrrIcCI8fZ6VtYthRZvFo0jr04D+JVfaUvpAX+RJZ4le41L4sFP2aUb1fbFNBfjb3zsLX91P0PzzKz6jrS4L8PtnPnbT4KCqr5Hsk3ivybMXbApK+Vhcihvrkfnn3I5z9PIVzguJf0Ip+qQv549IeJIytKqpyil5X9ktr2nRTjXzdTJhTur5uWMGmFKY3Tp1vURmU0fP0hWzkS2pabEqR8Rc+BlPp658KbZbQzVTWrAchTF4HP+T2YuNb6Wuq9epBstMnCIIgCOJfBxXcIQiCIIgNgZw+QRAEQWwI5PQJgiAIYkMgp08QBEEQGwI5fYIgCILYEMjpEwRBEMSGQE6fIAiCIDYEcvoEQRAEsSGQ0ycIgiCIDYGcPkEQBEFsCP/90x0gRKLfqo98l5sgiAhMZxoFv+HevXJgvyvyLfb/dd0sJyeiONFaDdW+w6+fZKcfLYyQ2GnVD/6H16UWbNFVuEYnKn1SkpMqbQxvbZhp94gVq9BQaCR4Rk1FS1KIKYGWwhe5rQbzLnHstM05NT2QC3JocBiZY6e3KE0wfhnzW+Wa/11ydFOVf5idi+llpXm5Rj3QUgxMlYIFpXpj9A+B5aVVXr+jz6dUvEhdx+PhfX6z1zu/lOAM7p4NRyyJKFZm4iUHZ88mbEcu/doeTOE4n4Efbs4DNrC85O1dLoHDfkad4jWg0iclORWgc4SD1NKIXYyltkZYrkzYBWq/x+ElUGuGGZZXXrKU9x0t9Cv1XQFe4jb5/+mac2p6EOwqg1K+QOtiWqE8a9bYqfVJic4QU8fBZzwiVYNVrvlfJ1M3FfkH2rnF8CxSYrrsvFyzHtycx8oimydOwVLVqkTLcWfbr26zYinkzhBTcZ5YM7hbLfQlv1LNH0ScfhvDXgvG80xYNU1wfucCe8fB4LDavS5mwqp38mUGFyaO/UncG7NypdYZBj/Tmmd1kL3761BI8wGu7z2pvvp6UemTmpwKYW5LJSdlJji3xJUsrym9dYCjko4jGMO7Ok11G0cfhPrrAIAFvv/wgK1t7NfWrj+GMyxXaf+v+pxT1QN7z8PyJlypL4bXrB62XW6GZ42dUp+U6GJ8cYDHSwtnw5cK1/wLyNRNFf6Jdi4Oq+Vu4OBjsYXIn9KDgJuvWK4As7kOSWbZ3jZ231W8/XyAM0uMfkzw9d4D9prCPKnmDyLh/X1sbwHuXF7RdptsV3HwsQ3MF9jfMYDnBzmU0Guy864PR2hjgcXNOay8cEtnFw14ePxbDFwwRwGYaPYA1BKyqdonNTnVj4FtE0DhVWUXp4e+Mz6FnXKNfIZZPoRm7OwDQnBqf8cAVm94iraoKQTeHhzDhIvZ8Am7t5H/qXHOqegB3jeA1SO+i8/ROcLBFoAtpsjF9o/ZY6ekm0rtTHBu5fVM5ZqCKITAk2rTe2Xa+v2ChdReTef0ReZcLHRd/mimrJxefxazXX9GD+J4v2IWRZsNi/OKl7XmczSw20GOrVfzB/JOn0/Ot2AD0cbw1sHxL7ZjYsabrWZEAbcHUzidN8zuC+7gzG0YkvC6GDt9bM9ncAE03v+B0JdKn5TkpEIXY8eB4zhc0Q20LvjPjpN5VNB+3wCkPqjTvbJhrpa4Tj1PbGN428SDFPrzYJ4UDcXxFeieDYeHntqDKew9wJ2LZ1RMfvaeKxwDXAN2iSOAzhCfDw24dymGUtucU9OD/R2DORf/ot4YzsU2vt25CBS5ANljp1E3/wDtwRTOiQn3Lpx31zgV5hyfJ0KI2LJm5Y8V9mw4nbfgXrNnA62eP+fK62YM1TnXGWLafJBDyaWO8crJyZ9bXws5xT+jB1IPeKTh21BeVOmxYVH8qE0YvWTH2A4ch5/979nhPHGqtsdll7PIKOIPZKcvhbH8iWnhbCiuoNguN7jqykF/5xusT4PYzi0P1lFOZ4ipc4y3y7oSMjT2SUlOKrAwjX8uxXYawvlRWtIQd2ylzo46QxzHnG6UBQafZKe5+PsRnr+SLMLNeXgu5TjB+b4oT6a0HpaX59IxwOBL8WS/rt2CkWG49M05FT2Qw32+MRyVTarLHTt9url2+Jz27kfSWCyG5+Ec752yeXKjKQk0kiA1mS3hBSHSkrqZgPKcmw9wJt235FFYATmFDsuJhd/V+AN6ALBFA+93P3GRr9GG8UUUay++6A5zI0bsOPF5Jizcqifs2nuIHJFGKOgP5PC++wYPDcAcYsrP6sSb+Ku5txXQwD6Gt30c/BjBEldYCWHbNBY/X9HnD+acADPrTHqwomEmHSj1yT1SklM9sCQOA/IZmhpJuQgpJGTIloLfx7tn86R75cB2HBwLYVsW7l/Kob+Sbdl7HpaX6YZL35x7UtCDBfC7jxZ4qBUzWJ+k1gqECFXGTqVP/1DMbRjwsPw7Xf7tpBCxTuYveL1olTwyS6fInEsKyReliJwWw7NQVzpDTC8cTD8Weatg3XrAkY6PeVSmGXm7QpcNwwKDT0JccjBF35niqO5XNjtDTE9MIDMqW9wfyDv9+QteYaB1so1v0gpFXM0t8PIbMA5tvruNnNUWwX2DBxN2dNXX2UUj6+/qRKVPSnKqA/+MKrorVsTfAeRlIYuO2l+xXi5LnJv6obDQiEy+sDCbcfi5cthLhme05612tc05NT14+uUBezaOf40kgyTt/lRQGjuNurmJ1GV3FOccc/hyRGF0XypboRylkgvXrAeJJCRRa7NhcbQlIGYRvJLnYpb6enM5fxDJ3mertuSkjDAR5emXB8DFg7Tj6KK5B3g/vquHh+YveEX8b9ofD2DE7r8mlPqkJie98HeFKyQbsUTDyNnkiQnAhO04cPgrNkwRo2dkJeBGLbp7Xvx8lX5++qXhvNlPCpLO09gZm3HYh+M47PUojXNORQ/Ys6YkcUXnTwaqY6dNN9eN+6YWeo3OE52OmkcbyuTJZKI053gIvMrrXiJV5FQwIrROPcgmjBhos2EZ1BfRFXbvqUcg5f1BxOmHiVfhO49styZORvZqhwlbSGbpXtkwCwuZvY4g7fqCs72MM4xaUemTmpx00r3q83Pv8iGlyRfxfVPxvNJPoGMTjCmokFwT+xCEIvPveFwB5on4vi7fkQvhx2A+SQlLbQyvCiQwzQc4iz4bP2PzV/tsF6Jvzinpwc1Xtivohc8S5DAUeO9beey06eaamQ/w7RmxRKv2YBz8zM5khdfAys7LROrUXzWb8vIbwLtdYZ5EP56jRmk59cbsfDwz3yehvTXqQSI8DC7qrzYblgCzxXXpk+/Ms9/aqOIP/vPXX3/9X+y3Sl+OirwOEftqUPx1CaRcG53c9X1dSR2lPun8wlbw8Y6EQcw6m6r6dbvgnFGeYPHX575h+8IGCo+N6hetotfpeH2qHZwzRsdF35zL04OwH7q+kBeQMnZqfcon/Xw5HBuVa4oQHZeYTkm64GJmfcVuyhgXaSexLanNFN0sQP6cSxi3+Tb6iWOcQ66cEvSy0rxcnx7E51zyXNNiw5IWC6lfZhQ+UlTyy42ZCz2/3Yr+INnpEwRBEATxr4Oq7BEEQRDEhkBOnyAIgiA2BHL6BEEQBLEhkNMnCIIgiA2BnD5BEARBbAjk9AmCIAhiQyCnTxAEQRAbAjl9giAIgtgQyOkTBEEQxIZATp8gCIIgNgRy+op0rxw4twUKwBDEvxDSA4L43+a/ib+NFhlILDCgUDwhVqwgpcCCzsI1ayGjmBDKFG+J3y/pHvECElUL0tRMZmWrhP7786BiESFlOa193oU6U7otXbr5jybUh3qKb6npb3oxIWQUXclAYb5F2yw/J9XnQFDkpcwzBajZMG2sWQ+UbIo2e1KvP4jv9LkwX+/8Ep4zuHs2HKFsolRNiJf5nD2bsB2xhCqrCRzeZ4TlKlo+FUIFK37d5RI47LPa5/9YJjiPlXH1S50WrcfNBrjBy7/69zFPHKFsLx/gd0uM+DWje6B1IZch/ceRWO7Wwujeg1j7msnAgdN8w3JVrUlVOXWvHF6hLuxX7QvN3mmkqllBtOnmP5v24DjVIetBTX8TyxlbM7goUUtdwc61B1Np7lp3LozDvmQH1Ohi7LCKeplzoDPE1HHwGY8oZLIS28u3YdpYsx4o2RRtfqx+fxBx+m0Mey0YzzNhVTHB+Z0L7B0HN2R1kF3MhJXV5MsMrljDmStWeB9eg37rAEdBx1gNa+/+OlyhzAe4vvdgHJ7+zxgpBq8TX7Qed68Zr3V+8wAXQOM9l2VvDHvPw/Im3P0uhtesPrX9vyUloItTqY44qx+NOwvWl+/Vbq0op/ZgCntv3btff67PSi5sdOrmPxheZ969m1V0REVR01+2IClaS13Nzi2GZ7DECNfNVyxXgNkspuPtwTHM1RLXQh/jc6CL8cUBHi8tnA1fCt0/hooN08aa9UDJpmj0Y2vwB5Hw/j62twB3HqnO3WTr7oOPbWC+wP6OATw/yAaz12Sr8w9HaGOREZo1sG0CmAPo7KIBD49/i1e3cfTBAGCi2QNQV3goj6SaxVnGuneK1paH5U0ZN9LAbgdMJgCXC/D6k8ml/b4BrB7xXTRGnSMcbAHYaqILVKxJnRQaqqO+fWg0Z8GkXmDwSc8OW01ObH6Fi46qqIXiwud+wu5tmXbWoZsJqOhB9JoKYeKu3YKxWuLrDXB6knRFvA68lmMZJf2NLlgVqWrn3u2iDSiP2/5O0oHaE95WgLmzz+80wbmlc8mbbcMYOsZuvXqgZFO0+7F6/YG80+edD8PTbQxvHRz/YrsTY2cfQBu77+TwVnswhdN5w+zeA7a2sZ/SWPt9A1L429yGEQvz9rE9n9W0SlSjPZjKoRrLwuw58y/YLiE6ECrcfGUrtAs/fMOORXzDB3Al/v0STtLeGM7FNr7duQgmiPrTYXjr8J2u/3zXgC0eu8TDg9bdq4bjBGY0Y8qoCTU5MaPx+nOfHSn4/0olp7UxvG3iIXJ0YZ5E5BTsXitEFmrWzcSnU9ADdo14TDLC8l001KpIwg4mSvfqM3Ajh+TLhcClp1DSX7Zwixp3BUrbOTZXpTldmgVefle+STIKNgzQNHZr1gMlm6LTj63BH8hO39wWkq78jls4G4rnV3wi+lddOejvfIP1aYDMUy5u+MTwGVsEhP9/6hzj7bLG5A8l/NX8tfqulq+y3HmZ5LMFBp98Z+HA8c9zgjAfm8A+/uQdlQxNs7CXh+Wl+PcLDL6EfU8KD/qT8eBjhYVYrwkTHpazOly+opz4qtk8EZ31CEu00C/s+BcYfJLvv/j7EZ4fzeKIu9fS1KmbiajoAbtGXszwY7y9ZsHjObXw+uRLJNqkI4yspL9851b0+A7l7Vz3yi6lL5MHF9hq4VR0pr1xelJiZfJsGO+XjrFbqx6o2RS9fqx+fyCH9903eGgA5hBTft4jDpK/cnpbAQ3sY3jLd4Oic1i9JQiWr1Ygn7Esfr6iD/DwIDCzzqSOy6GhNZEYqsmmmlH3Q178jLkzxPSiD8c55WfOC7z87qMFHpLHDNYnSUrCCjOf/R0DWC0zdzT7Owaw1ULfcdj4iAThwaL4Rn1W0xsHinLiq+C4ozqFc8LyTRaFcjISwt+R/2/veVheln8bAUCNupmCih7wBZRxwpIiZTw5RJlDcAb7Kcd0pbwR4qk1k4iS/lY4vitj51jeCYptPnxuzmFhDEccl+cZS2Qr3HsV8mwYR8fYrVUP1GzKwtTpx+r3B7LTn7/g9aKF1sl2pOPiyok3emhj+87CmaAoyWdJ/plndHcJPoAt2J0lRpZgFP0zjOy+/zPoDHG8B7h35Yx6YOx85ZgPcDZnMrOvuph8meDplwcc2ji+lycvW2HWJKWKr83FqJTzoEYlOblv8GCG+SYqcIcvnUtyw8Zb1rfQqUU39VD91SzFs3LfaUg5AzzbuWzTSvpbcRwL2jnxFbrSuQo357CkMWljeAt4P4rHfPJQsWHaxm7NeqBkUzT6sXX4g0j2Pkv2SE6ACFf9T788AC4epEnVRXMP8H58F5SHZWabaUlg8xe8Ivo3QPvjAYzY/deJHJ6NhlREunarUl/Zzju68uTjwFn8fAXSEkUKno8//co/01K5phgVch4KoCSn+Xc8rhJCiuY2jIKvWzIly8jk9pNr9uwwd8BhiUzGYR+O4xR4pUe3bqqQowdcfyvn3vAEK18m7B9LjmQhTn6+ycdI5/GQkv7yVy3dh5LtFrFzvbGGd+YT6J2itVX0rQM1VGyYvrFbrx6o2RR9fmwd/iDi9P3zOFtIrmCvI4hnWYvhN7gwYQvJOuz8SZ5U3as+Pz9Oy/qe4Ou9B+Pwc5j4xM/+9WVXF4Q7BbPjn+/GM04D+C6hSl/987fPovGPGhk/uaMXnjkHZ/MFlSgYO+n8uo3hVfhz8jUV8J+nVM5DAZTktMD3H5E5lzDHVWDKJyTORMOXid8pGGG5YlnLxb4NoFc3c1HSA19/KybS3Zynvg/v8nexz2/Ad1TiQiT7Izu5KOmvv2CtkpOhaOc6Q0xPTO0OnyVbmtUSSTNQsmHaxm7NeqBkU/T5sXX4g//89ddf/xf7rdKXhSKDFg0HZ511Rq4NwlmcWr/kpIT8bO6dha/vp+h/eJT6zV570/C+d4Ks4jLQ+ZU1ldfxkpSyzGt7vC2kHxdEx1+k+FxQk1O0zbKvfcVfffyG7Qv23YHkfreDc8ZSoVsduqmMmh4kjl9lx8XajsoxbitGeOuUk6eS/nJ567BJ2XYuY3MRuzYPtfFP/+JgCT1XsGE6x269elDOppSeMzX7g2SnTxAEQRDEvw4quEMQBEEQGwI5fYIgCILYEMjpEwRBEMSGQE6fIAiCIDYEcvoEQRAEsSGQ0ycIgiCIDYGcPkEQBEFsCOT0CYIgCGJDIKdPEARBEBsCOX1iw2hjeOvAuSpW7f1/ht4YjjMV6goQRBL/cj1YK2uWZWeIqV+EqgT/TfxttHBI4ne08779m/At6bRvHyt9R3nNqPRJSU4qqH1HOf6d96LfwedoGd8CKMgy+h3wanMg7Pufr+PgU7VP2QVK6nnOuA7nfwO8XF/SvwMPeX7GarKXmZdFZBm/tvDzpdSRZ0T0WJtNYWizGXlEvxefZOu1jF1CW6hTz9NqImiouZKAsh5UIO70+cC8BkJkk965gtAgF8TvGaxPk7CzzhgIBLHA4JNc+m9420f/dgjECvM0sLy02GTsDDG96GM6wJ9z/Cp9UpKTCiqy5L97F9Zrbg+m6F9MMURBJdY2voooyLI9mErPxv6mj3FvUViRWdELYHnvAoel669pRU+fJji3EiTP5VukJLAq3St5DrQHU/RPphi64ZxTuUaFyRcrYV7xeuu/nsKfpbnL5ql9O8RToUIqqrLk7Yt1y3tjOCcOxijgZOYDnCXIgs2LV7xEHH51mxL+rfk8g5X0rDrpDDEVdZy33b/qYhH0W9fYgVVljJQjLjwmBVnXRlRND6oRCe+3Mey1YDzPBOFNcH7nAnvHQciQlfFzMRMm4uTLDC5MHKfWB+clEbcOcBQpaerdX4cGYj7A9b0H4/AUfybwpNInNTmpoCTL3hj2noflTagci+E1K69oF5FSneObhNr4LoZnsETFv/mK5QowmwVnQG/MKsBZZxj8LPantVFrn3jZ14IlgVWZfLEkZ8PKlRo4+NgudE1Z2oPjSCnUCc4t0bAn2ZTSrcVl2WvGS7HePMAF0Hhf9fm6OJVKr+qzKcyhcoevsURvKvMBzixxkcdKzWKvKdjwGseurL34H14ow7gAACAASURBVCGuB9WI7PT3sb0FuHN5onSbbHdy8LENzBfY3zGA5wd5RdJrshDYhyO0schYuYkr21004OHxbzkicPTBAGCi2QOw7tCsUp/U5KSCiizxvgGsHvFdNOydIxxsAdhiiqWm2usYX7GPFcf33S7agPouILoDyMD79RQphVk2XJcT/i3Qp8L0TlkN7Ztor1/xMpf7pXOnYuzsI29UVK7JJuoUM1tjddqrLHxSZdnAbke4d2cXDQCvP6vJ0jfks2BM9NkUZhuSniWOPj1IIiK7RDSMHceL7YQ1HM0UbF+/LNP0wMObGzl6UFzkyTt9bqTD8BZLUDj+NcNy5StyG7vvZAG3B1M4nTfM7j1gaxv7KZ1nuz6h8+Y2DHERgC7GTh/b85mm1XQJVPqkJCcV1GS5v2MAv1/kI5GLbXy7cxEolgq1jm8CpceXGUDpmTVjHPbR3/kGy7JgWSMsVybswok4bQxvm3iwLH4fC6N7D+bJOhLp+M40uhgEAJiwnWO8XfJ+3bkwDj9X7xN3eHHjWvAaBZhTjC4YE6573wCkOV2qtWRZ3nxl0bQLP2mKhaiN1RJfKzkOZsilhbU2m4JQ78wxHMcJ/k0TonR69CDO/o4BaYOXgJ6xCyOT8k5Yr24ah31BluPEKHQdskzXAwOtiz625/z5Lpfw9myl5D7Z6ZvbQpKFb6AtnA1FBeYG2b/qymEP+mmAuJrzrEbHgePYMFdLXAsDwwad0xliyg3Vn0y8UuqTkpxUUJElc8LBT9wBj8qsILWPbzZlx7d7ZcOEh+WsxtCktCrmoUYpHKnCAoNP8jgs/n6E5+9e6oRHetx50nloJGGLO69qIXcefs4MM6pco9bW0Qcj/9iiM8TnQ4Xr8kiV5QKDT76zYDascT+Sj6LK0GvG57c2m+LrnQm7+RA4POtyCRz2445fix5E6I1h7yE7SlN17HrhgqZ/aMC9i9pDXbrJ5oAlLB5mzybspDdktMsyWw+kqMV8gG/PakccstN33+ABgJlsoNnq/QlvKwDY5yvRkRxSWL0JzkEW2OjHAfqCsBY/X9l/+DtXS07+qRpCK4NSn5TkpIKKLBd4+c1+FB1wKJns1bSE9vHNpsz4tgdTbjCu68kyTsN9g1ckauLTk3dTTmqWtl66dpEdJ5tDhXaL0fau/DcP0hebKtco4YfaMxd9fNcNOfekDOmyZJuW/uErZoLjTNvpqZGSh6HNpgQ3lOXCnYLx4QiZS7+yeuDTGWJ6YgKRDZ6MhrG7ORcc8Qw4SXhlribdZPlNCovoqrJU0oOQp19ecCSahez05y94hYHWSdRAi7s/bkAObb4SDQeWhXTSiSWfuW/wYMKO7lx5iPCPoNInJTmpoCbLp18esGfHHLC0k1ah5vGNUXB8g/Ow59n639yQdlqK8FeHvPuRtKPy6uifSGeI4720XX4ScrSoKP5rRN79KDVKo3KNGirJif5ZrYflZcUFRoYsg4RWf+7OBzizWEJr6bBtmiHXZlPSefqlcDxXRg98glfyXMxSoyEaxy4gIeFxDbqZu4iuIssSSbqq9jmSvc93eYlJXOG5wtMvD4CLB0m5u2juAd6P77mGKFi1zl/wivjftD8ewIjdf00o9UlNTiqoyJLtmFMS4qJ9yG5tLeMbUGR8e+PA4a8l4zgCW0AViJoEf6Mvq1aVrt0qqB/McZQ5Zw8jL+mJgCrXKNM7ZdGCh7Q5wDPTNb1zniXL/R0jIbLlR8LKkJWHoc+msDB2fIeZ/DyRHpbQA4awe089etQ7dnHCfteqm3zTkj5HxT6UkSUU9CDWGlvYK+RBRZy+fw4hJgSwBDxxxcFey5FXu+wcNlvILPwnv4Lz9d6Tk4z4WY9a1m4dqPRJTU4qKMnSTyjqDYPQDduFFD33rnd84yiOrx8S/EMOv+ycY4sxwbhmfoRFE3xnWqSv5cYOwUIs05mrXKOM7xTTjy2YDdHkNHJkOXlwga0WPovn4IWNsYD/t4kRGn02BfPveIzYC/+cPTM6VNr2+s48O1td69iJcPsh9rs+3VRM5qzkx/L1IPYXBfzBf/7666//i/1W6Qt5kdchol9gShJyilGXX3P4Z3xFTalP2r4kmCNL1qO1fiFPrU9qZMsy7YtXSdfmkfGlNaH/SV+9Kjvn4l88+4btCxuIfGAlr0/F2ssY+yS9KzV2WV+t8w23yjUFmuTzMnUsEr7EFlCHLFPaLDdX+DxHTj+12ZSoXsXHQ5ceRPVbwrf5Gscu3u/kuZavm0qtKb32p9Om5OpBom6q+4Nkp08QBEEQxL8OKrhDEARBEBsCOX2CIAiC2BDI6RMEQRDEhkBOnyAIgiA2BHL6BEEQBLEhkNMnCIIgiA2BnD5BEARBbAjk9AmCIAhiQyCnTxAEQRAbAjl9giAIgtgQyOkTanSGmDqOUAyEIAiC+F/jv4m/jRbtSCyUU6QATHhtYgEJbUUmdBEvAqNSZKFMv5MKNQTkyL2SnJTGuCKZla2EIhmaippkFv5IKeoR/E3ZgkLRvifdJyaHksWStBV/USMuz/QiOsG1pedRQhGRyL3KjG8qSrLM75MqyrLUYgsTililyUdLe4pyWrse6ChSVkCWCX0rLs/69SBecIcPzGu0SpjUMBfE7/B3mRWrBEHEhNAbwzlphArA28cfdPzdKwc2wmdjQoakpO3BFP0Pj6GAcysjFeoBxo6NRs4CqazTT3qeXGLzojys/dd0BdQqy/hcDREUrIzT7wwxvTjAYyDHJF1hvwsreylWW1NBq5zySZw3gb4u8XrYijx7FZJkmdirjPEtgJIsVfuUT6pNEfVCmy1MmXO12d5/gh4U9FHKpPdbz/2j6NeDSHi/jWGvBeN5JghvgvM7F9g7Dmqis9q9LmbCzSdfZnBh4lisPe13+sSEdz/DcpXwQCcmvPvr0IjMB7i+92AcnqIbvXxNTL5YkuBYfXkDBx/bwu/OYImDfvMVyxVgNqv3uj04Tql/niVLRXrj4g5fK12c5tWZ1ihLVsM8uc5098qGuVpidu+Vu/d8gDNLlOMEX+89YK8pzN0Jzi3RGPG66VsHOOqgGjrlpEBcD7oYXxzg8dLC2fBFc2tJskwgY3wLoSRLxT4pkCTL00MD7p3gMLTZwqQ5V6ft/fN6UMxHFSG53+3BtAaHD9ShBxGnv4/tLcB9kP+w2zQBYYLu7xjA84P8cL0mTADGhyOIIg0d2FO89c4uGvDw+Lfo3No4+mAAMNH8h50fGzv7+Re920WVKZXlFDNlqXr3pgk8f1Nw+G0Mbx04Dv+XGqYvRvqCJo73q/xz8tYw7KQ8b2eI4z3AnQ9QtZU4DezmGjID2ynlxYsSl1MXY0cYO825GK8//bGb4NyqefG4essYn4zxLYnSnMvsUzECWXZ20Uj4/4ufr1CbT0qt4SWI0KzB9irJqR49KOKjyiHIksstcyNTFY16IDt9PhHeXOFmtw6Of7GdJXN6bey+kwXcHkzhdN7YjmlrG4Fr7AzxObp6FTG3YUjC62Ls9LE9n8EF0HhffWi0wBUy2yCwBRN+v1QKVTGnGFVG5MtS7e587CA7dGccWUWycWj9nsGyLPbvcomS+2HpvqeHCcoY7SVfpassDDLpnaKVsIhNjmjpYX/HgGwQ4rTfNwBJz8qRLKc2hrdNPPjjZlkY3XswT6ZBpK4sfmTk6xqOEoL5Ps8I/aaOb3GU5pxKnxRRlqX7pkXv2K5ecEp12l5FOdWnBwV8VGESZMlt/+vPfXmxfTusvrioQQ/kRD5zW9jNhWcwZzdtDG/933Pn5l/ln39/mqA9mEq369otGBkTmw36a/BwUx4qHMy7GJ8o9X8NcAcBF7MMg9C9smGiapiRr7SfZ7EVW54s1WBjZxweA5cWLN5G98qB7YwBHpryd+Mz3Yl9vWa6jCIJMNUWN4xu0wSSZOaHwm50P98Y9h6yV/xciZPGWLWNbDktMPgkz9PF34/4fNhiO6qCbcpJQx6Wl9UdXjqRJKacRVnq+KqiNOeK9SmLTFnOv+Ox10KrM0T7xv+9b3vKuP1IAtpqiZFgv/Tb3oJyqlUP1H2UGtmy9DeFxkkTM8vCufA3/dshUDhnoV49kJ2++wYPDcAUJ0H4v/2V09sKaGAfw9s+Dn6MYIkC8MMQvTHsvWwjsfj5ij6/1jkBZtaZpHRhGPHP0b1ig53lhNh5DuTzsTKkOSMFWRYh2s/JbInjixYL6d2khMYq44egUpT85hxWMGl5eLpZIWHKD9/fRWXmr9RHesPSnSGmJ0z5rlMXh12ML/gCsuxzqcgpIbu5LIvhWSi/zhDTCwfTj3Ul2U5wboXP0b1y4DjN5HPS1PEtgNKcK9CnHLJlucDgE5ijcBxmF+FhebeEd3JQ4uHkxV97MEXfmeKI5/Lot71F5FS3Hjyp+ShlsmXpI/uIBQbzUzgn7Ox/UcjW1KsHcnh//oJXGGidbOObdFYnrpwWePkNGIc2tueWpPwstAkonzG4b/Bgwu68YSQ+UMr51rrxX6fz7kepKy3xVaXKGbaJMtN/bhlj/oJX1HycUijhKp48WpS0yEiRnAJlgleRXMxSV/X+6t3D8lJXsk+CnLjD9+5Hmo9msPYk26zEKz2RL6k1pTmnJxkMKbJcYPApPJaxrDMMEA3Dl2MxvMZyZaBl89Zqtr2Zid2164GKjypPTJZpuG/wNOQs6NaDyHv6bIVk/k5KgPCw5OfMT788YO8VD5F3Wpt7gHf/HYvOET5vAdiy4Ti23MRhH47T56+bveD1ooXGj++SoWx/PIABN3L/9RLu3jN2Nb1xxXeTxXvxc5l59N3WIxwoyVLFiU3w8GzD3NkHEA9PSat7npAY/EY6+ikKX7islvheyHiVNHZ89evdf4844DBRyXYcyNJssR1W4Vf3hF1L5ncqfENXR+JbKCcWttW8qImiMZFNhdiuM3V8tbSmNOe0RSEVErS8+5G2qFtwzj1fj+2V5bQ+Pcj1URpaC2XJjmYO3ksWk9vM6jkLPrr0IJK9z19H2LOFbF8WDhV3mux1ExP2VbjSYWfa3NjMBzizxBWrBcsaYblCsANhToq9jmAcfg5X1/ysp9ZMyDy4M890pn44V8t7yaFTjK3YlGWpxuQhOr783FBoe/LgAlstnPrXVA0XBwsaRWfKZVt2DnRt5oTjji+6kwoT3bBaYmRZ8muYufhGLPtVHXZEVIOhS5BTLNs78wNJBeF6oSORLR8u2wSdSB/fCijNufQ+FSZXljyZFlnHReqwOSjKrE7bmyyntepBno+qQFyWC3z/EZFlgt8sh349iH+cB1D8qlAk2SB3h9QOzlei94p+YWhdHxtJJuGLSAH+hE34SpNA4f4X/shKuiyLtBeQsHCRxmS1xOjTC06lj2uokv8RjvhXCSsYhhIfGIl9aEmRzC9j+TLNWjAVjCqoykm+zsPy8hu2L4qOXdIcjy9u0r8oWXAME+SUaHc0fUBGSZaqfcpFTZba7GDSQi9lc6KlTRU5/QE9KO6jEqggy1JzZQ16kOz0CYIgCIL410EFdwiCIAhiQyCnTxAEQRAbAjl9giAIgtgQyOkTBEEQxIZATp8gCIIgNgRy+gRBEASxIZDTJwiCIIgNgZw+QRAEQWwI5PQJgiAIYkMgp08QBEEQGwI5fYIgCILYEP6b+NtokYHEAgPRIhLRAhJpRWkSKpIpFfhZH/FCKmrFOABNRRbKFIYoQLRgRWKfdfcpa4wTZFm16FK86Iw8frExrvR8ebogX1O5oJSSfuogrsPxvqtco0JCoavangsl5lzYv3LPp0tOisQKxWTPySp9Si+6BHkMlfpUAC1+Sp0sm6LkMwpR3L+q+p54wR0uyNdg8PlklwTKG/wd/o4JROyYYiW43hjOSSMUkKYqWjphAwp5EHtjOCeoNmkB/rwHeAzunSRvfcQqyiVV+NPcp/jcyKFw1UGptdy+svF8jc3VrEqAqSjM12D+3L+idVj2uSL3qqUeuUz3yoGNUI5JbatcU7L1WvUgRs6cE416acdYi5wSW8NYqoiZPL/r7RPrQyPQC7U+qaLUV22+pPhcrCTL3H7H/W+RZ42E93lt9eeZMKknOL9zgb3joFZwe/AZrS0XM0EAky8zuDBxPGgXeDpWc9i7vw4FMx/g+t6DcXiKbubfrg9Wm9nAwcciz6bIfIAzS5wYrM419pq1PP9ieCbXjL/5iuUKMJtCaxr71B5Mizn8tD6ptcZqT2cqZxtHH6I1w1k9bGxtY79Qe12M8xStN2aLLOsMg5+Fbp58rzU5fACYfLEkOSbpgco1JVuvVQ9iZM05XmfevZvBLXn7+uSU2BrOLXFhssBg7gJbBzjqCFfV2Kf24DhSu16tT0oo6YGCbiqhYlPilJelQr87RzjY8rCcCf2Zf8fjCjB28i1YJLy/j+0twJ3LD9dtsjDYwcc2MF9gf8cAnh8iIfomC819OEIbC7WVW2cXDXh4/Fu8mhllwESzB6Cu8FcJXn+uM/LQwG4HgDip6wzrvttFG8gZt4Q+ZZLkYNXxfj0V+wNfGW7yW2PKET7t/o4BrN5QqMVeEyZczLKMys05LE1zuNs0geeZgsOPhv6qhhplorIre40SsTEpH9ZUIWnOde0WjNUSX2+A0xMtzQQkySnvaKpCa9g2kau/1ceui9NDVb1X65N0dxU9UNFNFQrYlCQK+wzlfkflxny39yPfgslO33fCwXLWD9HPsHxno8VXEbvv5Jv7IePZfQP2Idst+V02DvtwnD7/KbLjM7dh4BUvQcf9ENAM7omNxvt8N7QOulc2zNUSo5jxNmE7Dmz+ky7js79jAHAFuSAIP3r3I1jCWfi4h4rngmyy4PklU9KJfVK89+vPfYydfnhem3N+HkSSisrSn0/mGM5FWo7IAoP5KZwTG87tLkafBsBgCnsPcO+KhRnb7xvA6hEYTOEI53n1nNW2ud4Bw1sn46wvDKuK88S5mGKIis6js4sGchZjKtcoteXvruUx6V59Bm4sWNIxWx/j3qKSzFPnXG8Me8/D8nKABbo4Ld+ETKKc/AVN5Jj0aoj2vFqOT/t9A4CHt6xQhaaxY7t8D8u/s3us1Kf4XynpgTbdVLIpcdJ9RjZK/Z4P8M12YJ84mL4f4WwIFo1QXOTITt/cFpIswjOYs5s2hrf+77mTCB6Onwt9mqA9mAo3W2DwKWEF60yxy1eubNBf2f8MzpEtDOZdjDWvqIsiJ2b4Si8Q3cF1hphe9OFc7VfbfffGsPcQWSWzYxA8z+SJdnOO8/ItsTtf2UxBZxl9TuyTAtyIGCdNzCyL95UZtv7tEBAdfySxyr0rnivB5pMBuzmDZXHJ8HGZDhDK7uYc1g2b333HQdnknv0dA9hq4RgjWJaYlOhgDN2On+mdcXgMXIZOj+nUGOD9bw+OmbGR5slXLDv9IFJXDn70l2lYVK7JIpLMJx0zMiZfzuRf3DzAPTHLbRBy51wbw45qdKUIyXJiCw8Py8tz6ehp8KXqbpUtoLKfo+rYhfc5+pDXlmqfklDTA126qWxToOAzVJ5Osd+TLxYmfMHrOGBR309qFkw+03ff4AGAOcTUOcbbpSwctgJ8wtsKAPYxvHVw/GskO7mMECk79w/PORY/X8OHutjGN0veiaw3nC6zGJ7Bsiz27/IRBxcOpln5CjwXodIZZGeI6YkJrJa4FhWPO0/3QW9CU5vvcKWcCtU+FUA2pilneTfnobytGXDiwLkqI0k51wTzAb49A8aHIwSj1xvD8XfDloXZM4vYZI5vGlG5lM5HUCM6VpPZEp5/FIbQaPQdB07wj4XDVc770uhe+W8epC+OVK7Jhp37+vNgBhuOM5b1qTPEVHq2SMZ/EXLmXFLukg7S5MSOmB7xXesCg50RG1G9UOxTYXqnbOGStYlQ7FMWeXoAQKNuKtgUlPAZaSj0u3vl8AR4NnfdPRuOMw3y7rKQnf78Ba8w0DqJOmBxd7/Ay2/AOLSxPbeklQ4LAecTGB/3DR5M2J03jMSdFndy/xgKJRfyc++iBOf1LmY1vq7nE6xKo9GDdfTJfYPnn0klEk8ercLTLzFJz08eDcNzky8WRvcejMPPGtpj+uHnSNTO/AWvAN/pclZLjATnGfwraWD9M2bvfpS6Q1K5piix5GB/Pj7PJGddNrku0lpkzhU5l1anDjlltMYjJ9HoQV198iMj37IT7BT6VJgkPYihTzdlm5LUH50J6ZF+B0dOvo+e4NwaYbky0OoNc58tkr3Pd/GJSXphwt3TLw+AiwdpgnTR3AO8H9/TnUN0x8oHKvo37Y8HMGL3/weQk+hVfqUurHyTwsxKE7oAvXHg8NMdQU6fVOAZpbF+m9swlM7yXgvlECz+foSXsOiSkvT4HIxGkYKoUwEmD26C4rMzR/zOzpEozgQPzwm79cjz5BqjgoTRoOxXEvOuqUIwVnzeZO8iK7fG5hxPTGY5SXJUwTxhP497ObeKkCcnvWPHs85zEgG1jl3vlEULUiOSan3KRk0PdOmmkk3JomBysEq//WNx2TbyhYECEafPQ697tjCh/fPkcPXGXkcwYV+J4QY78opGFO5EeBYsf0R8je6w+FmP7hV2JbiTdDOSaXzlybom5S/DJIxU5+rLqS8bGp7IVwg/XJ/zWlt+n1Rgr8LJO+j4fErrY+E5MP+Ox+hql+cjBOPCFyLmiRg25juUogu2m4eYHgTnsjU4pslDVDf5OaygU4Fu3uav+HPh8z7TIahcUwo+B0V7EYsQJXzQpyzROSeF/uWognvHfi60K1aQU/LY8US+go/DwvU5zlXr2Pk6JNr3En1SQEUPtOmmik1JQsFnJKLQb7YQka9BZ4jjvE03J/5xHt7h/C/kRRQulpEdV0iVD19kXbcekr4kGHd+ur7oFv+Sk0DUMUe/Ilb4lb20ryQyfLkX6pNKq5H7RedT/IteVQyDyutqCXIo/UW+6DxPzqZPdExl2lSaA0ltFpVplkP176VyjWJzCV/IS7I7cVsxwltH4SNgEcrNuegHZpRbKyAnDa9bpnwtFIAw5zSOndBmqu1W6lPx9gKU9KDsJiZvTNR8hjoK/Y593bDKF/kIgiAIgvhXQgV3CIIgCGJDIKdPEARBEBsCOX2CIAiC2BDI6RMEQRDEhkBOnyAIgiA2BHL6BEEQBLEhkNMnCIIgiA2BnD5BEARBbAjk9AmCIAhiQyCnTxAEQRAbAjl9giAIgtgQ/pv42+jH/BOLGUSLDKQXGJCLWyQUc1Aq8LNO4gUUkgpJRIt2lOt3QuGLEkVtlEkofJFe4Eisfa2rAE7NBZVihSiS5qXuPqnpQq4eZJJdUU7qf3SMSxcTSr6fOM/TijMVlWe8AI5ATB9CeVcZNyX91STLuJyqV5vLaE25oJSewmHFbFg1PYCSDSs2n3JQsim6UJFltYJh8YI7/AFfAyHyTkgN80Z/h79jQk6pMJYl5N4YzkkjHHjePv6g4+9eObAR9pkpBqTJ2R5M0f/wGAo6r8qUeuv5MtNJSr/98VzeN9CKPHsRVGSpj2gVND5PISuE1j4pzdcaxzRRfw7wGDxLtbaT9TokpgdaYX1vxBYZwPL+Fa3D8vqmpL+aZRlrvzY9iLWWqAesD6/C2CZfV5w0OdWkB8q2Nz6f8lGzKfWhIrNifYqE93ld4ueZILwJzu9cYO84qInO6vu6mAmdmHyZwYWJ40E7vNdtXmdZbXXv/jqc+PMBru89GIenQr3z9TL5Ykl9ZnWuDRx8bAu/O4MlCvjmK5YrwGxW7fUEX+89YK+5nudP6Hd7MGVO0TrH94q3V5GlPiY4l+qcLzCYu8DWAY46dfSpi3Guw1fRg7LwGubP3yT9ObNER1J+PrUH00yHXzftwTFMuPjmy7Y3Zo7aOsPgZ7V7K+mvRlnG269TD2KtJehBG0cfDHj3X4WxXeD7Dw/Y2sZ+pfaS5FSjHija3th8UkLNptSHypwr1qdIeH8f21uAO5cHpdtkwYaDj21gvsD+jgE8P8iGoNdkIYkPR2hjgUXnCAdbHpY3GQPc2UUDHh7/FgeBTUbARLMHoK4wcAmMnX0gbx31bhft/KvyWb3hSfpFPKSj8xjE+xW2thie1b6CTZJl5bBfemvYNgHk3EtpfEV6TZhwMcsaAxU9KEvvFC3lezew20GuDEKSnMI66eL0MNL+zTmsuu2Bkv4WlWU6rz9zjhO0hpJf8RLpc3TO7+8YCbanJOJ96tQDjmjD4iTMp0ok2JTo2Olc4CiNSXx8k5B3+twJv7n+L9oY3jo4/jXDcuVPkDZ238kCbg+mcDpvmN0Lq0RzGwZe8WKO4ThO8G86EFa2/jVBR7sYO31sz2dwATTer2MVrEBnFw3kTSq2YMLvl2oOszPE50MD7lwO03SvPgM3FiyL/7tzYRz2Me5VaSyM2hRb/VYgUZZsnrFdpf+M14A9RNUZ0H7fAKQ5rdonxXuv3oDBVJrj0pio6EEp+C5/9YjvOYq+v2NA1SAIf4XtLeD15z7GQr+d24Qx2Wqhn/b8JWG7suiGoE7U9LecLON0r2yYqyW+iouYzhDT5kOo49YIy5UJO0nmxVrjEVV5Vz+Yu8CeHYwpi+wgZnsKk2TDatMDNRumcz4l2ZT2YArnBIL9GmH5zoZzVTEmlOIPZJLGNx15p29uC8kK4VnG2U0bw1v/91w5/Kv889FPE7QH0+D3TDAG7CYLE/sPML3oYzoAzoYLfs2r8P8O8HhpYTDvYnyi0Pu1wI88cnZ03Sue8DYrs7KLJG9IxyuMyZcz+Rc3D3BPTL4wKjiRIytS925d4dtkWTKl9bC8PJeN0peKCsoVBs+zjIiB2vgmsb9jAFstHGMEywpD0M6JgzFYSFBFD8o92xEOtgD3LsdA98aw91B8h8MXQsZJEzPLAus5izb1b4cAD43HokL8+afvq0SheLQvc9z0oqS/ZWXJkZPmPCwvI2M3H+BMet4Fvv/4jNYh20gVk2YkMrhaYhQdapZeBwAAIABJREFUj5tzWDfM9vQdB9WiCtk2TLseFLJhGudTok1hUQS5DwsM5qdwTlhYvphM8/2B0vimIDt99w0eGoApOuDwf/s7obcV0MA+hrd9HPwYwRIbk8IQ8rk/5gN8sx3Y/hHAz1f0AT6AwMw6k4QTC339AbpXfpZw+qTyV8hSbkIhJji3hPTHKweO05QVMJZByvDKNCeFSbtsJ9esP3EwTZYspLjM3bEWbA3jC+7MM55LZXwzWS1xLc7/m69YdvpoNUVVz9GDEs127RaM6E4xSmeI6YkZ72MBkg0ZOztcJI3XzTlmzWrPVuzYojpK+qtBltICqTPE9MLB9KO8OMrMOi/WGgafxIX1FH1niiPxyIw7Tu+e2fDulQPbcXBc6thQwYbp1IMiNkzbfEqxKcEC2YET26x6JY6CVGSpML4pyOH9+QteYaB1so1vUgKLuLtf4OU3YBza2J5b0uRgoa9snn4JRwDuGzyYsDtvGEkOjgnxT+MroHc/Ss0KDVbvzzNt5+uxpEjf4T/PhNAfOwLR0FosUbMOVGSpsTXhVcN0Z15Pn5h++GfDaUh6UJTOEMd5YdhgkehipjPL2H2D559nZlE6GSwhObFGlPS3DlkmJCyz+ehheRke443uSy3rYyyG11iuDLTsoDUeEg4d/OQLa884/FzZFsQTu5OppAdhaxk2TNd8yrcp7p1w/Br8q56XpCLL+PimE8nef8LbCilJeuF5yNMvD4CLB8lQdtHcA7wf31nY7+9HeH7Ci4CUKDJ/wSvCv/FpfzyAEbv/eglX/xmr3t44MBh17JKDSIe5DaP00YFya5XPKdPIk6UexQ9aY1nCOYmASuObw+TBTeg3y3nxz4aV9KAgXbuVox/CjqRsuHb+HY+rhLwaPhfTcyT480dtiCq9UxZ5eVjP66r5+qtBllkEc8CXW72LnSBvhW+sotHUxc9Xre35969DDxJai9swLfMpx6ZwP1Z3DppK5FslLyni9MPkjjAZh60IxcnIXjcxYQtJCuxMTEimmH/H48pAqyckofAzsXCHwl5HkFaW/Mzkz2UNIzAGmQ7BD/dpd/h8gomh29juKvtDLYXgz1GbvBVkGcwnKWGpjeFV8QQmFq7PyfxXGV8Vbh5iehDkJ/gLNCU9KADf5aePl2+gqjop9vqWvOuL24IogfxLLVD95MScYwsdKOmvLlkmwOdgOAfiEaK0Dx+VgY1L1D4D5slYfq1OMTk0mwQbplsPRFJtmJ75lG9TfD9WPbE6ToIsU/uolpAd/zgPoPiFvIjjSfwiUPQ1s2TBRSd3rV9syyXLofr9T/gikkCh/id8XSpJ3nEZjfDWYTkVRRxX/MwwYUxS8gcAFFzkqMjS/1ltrmSSIMuAYH4W6ZMK0fupfAGw/OuISh/LSXMUJRao0ftF52ZsPlVZBOd+ZCVj7Ap9SU5Nf/XJMqm9pDFMsKnzbfRPUGzRkaS/Sl9VRbkv8inaMF16oGTDhH5V8idKNoWROF+K6oOKLJXHN5lkp08QBEEQxL8OKrhDEARBEBsCOX2CIAiC2BDI6RMEQRDEhkBOnyAIgiA2BHL6BEEQBLEhkNMnCIIgiA2BnD5BEARBbAjk9AmCIAhiQyCnTxAEQRAbAjl9giAIgtgQyOkTBEEQxIbw38TfRj/or1SsQS4gkVmsIlrUQanAz/qI9z2loIOSnPJIKCKSch+50ETJoi0JBR2SC1Jkj68q65VlgQIiuuZcVJ5lCpYUIFpsJLHfOvqUVXRJGEPl8c0hXkRFIMf+VLIXSvNOrKVeQucUZSkRjGHJCn+xNlUKQZUtdqZuw7SgbMPEvpUvcqUmS42o6G+FPsUL7vCbvQZC5EKTBpFPlt/h7/Kqf6X9HXvARjggvH38Yccvwgwb5EmjJKcyJN+ne+XAfhcOfmKfypBYiars+OazXlny50DSIlPDnOsMMb04wGPwLLr6nfI0gyn6Hx7DZ0kau5r7xMbvNafKn4Z5CcDveyNnYVPW6av01Z/3y/sGWtqeS2w/SZaiMy6jc0xuCOZFsh50rxzYCOeFvrGrVw9ipFTT0zN2arLUhpL+VutTJLzfxrDXgvE8E4Q3wfmdC+wdB3W1Wc1wFzNhQCdfZnBh4niQUQG9dxqptc3qc3v31+FgzAe4vvdgHJ4KdZ7/LKzeu4GDj0GlayU5lYPVZsZeM3z+3hj2noflTTigi+E1lisDLbuilG6+YrkCzGa0JnyJ8VVgvbJcYDB3ga0DHEVqwmuZc/MBzizRkCSMnUYWwzNYolInjF29feri9NBIqFsu9jE6vuVpD45hIqlGuD+GMyxXJW/eG+c6uPZgypyidY7vJZtJJ12Wgf7duSXvPcG5JTrAJD0AJl8sySnrG7t69SBGog3TNXZqstSGkv5W61PE6e9jewtwHyJVnpsmIEyG/R0DeH6QJ2uvCROA8eEIyVOmjWHHBJ6/CTu8XTTg4fHvhXTd0QcDgIlmL/8B1snrT7+fanKqxOoNT/w/2+8bwOoR36Wa90c42II2xfJ+PQX/XW58i7FWWeIVL2udcw3sRpWvM8TUceD4/640msN3uwpjktCngqQ74Tjh+JYlyyn6/XhK/EuluzcjtiiBxfCstp1q1oImb2FVHgPbKaXhpat29vU0J9gwRhvDW0EHHAfTipsIEdGG1Tl2jCRZRp9vrHHRo6K/auMrO31uEN+CBSZ7iONfbEXNJkMbu+9kAbcHUzidN8zuPWBrG4lTpneKVtS4m9swRIOMLsZOH9vzGVwAjff6JkQVulc2zNUSX4MQqoqcStIZ4vOhAXce7uj2dwzg94scnr7Yxrc7F1WNub+rCI1PyfFVZK2yDHaEggGtec7t7xiQFhkAHy92fGBZFvv30MS48gKDLZikuaHap8IwZxRbDEavio5vSZhTjC7OEOrHXZVjJn+Oo0YjnUW6LH35XWs+2my/bwCSniXQ2UUDsu6XIsGGAUD36jNwY4U6cOfCOOxX1oO4DauXZFkyO9LCEiP/+awHNDUs7lX0V2l8OXIin7ktJAaE5wZnN20Mb4MuMEPjX+WfC32aoD2YpjbUbZpAxBiwjr6yH4KzDAuDeRfjk/zO14mcoORheSlMYCU5FSGSCCOFupmBwm+hXx8eMbIGWPTGsMs0F0kUkQ1oufHNYr2yjCQnrZYYCcag1jnXG8PeQ2SXxhYeeJ7J58435ziv2Fz3iicozTLcX2KfStBrpraVOb6l4JGX51lsJ961WzAqLyrYHDcOj4FLCxZvo3vlwHbGQJ1JWkC6LDtDHO8B7p3ms2LuhJPkGcKP2eBiVsp5ZtkwxuTLmfyLmwe4JyZfaBdsM9OG1UiKLJkuuphJZ+oTnH+p2J6K/iqNb4js9N03eGgApmgMw//trwDfVkAD+xje9nHwYwRLnCSxkA5SJ/Pi5yv6/MGcE2BmnUkPVj1EWJ7F8Czsa2eI6YWD6UeeMKQoJ3UmOLfkpD3HafIEngVefvfRguyAQ0rs4G7OYQUK2cXYceA0/USRp+Ljm8N6ZbnA4JPg5AdT9J0pjvjZbW1zrjPE9IQtbKVdGt89RY8vqtIeTLkxuE5X9LQ+FW+NH80lG5XM8S2Dn/tzE5GZn9tSeVHBiMpuMlvi+KLFjngqRirSSZNlUm6LDroYX3BnnhHu7l6xhXJ555llwzgpbzF4ZZrLtGF1kSZLvjHLiYIVRkl/1cZXRA7vz1/wCgOtk218k5IJxN3fAi+/AePQxvbckhSbhSESupW2Onff4MGE3XnDSJoczFD+Y4gmeinJqTzRpLmnXx6wZ+P410ia1GzXWrm1SNJc8fEtxJplGUt4rGPOBcYsutKvh2BnHY0e1NWnWAJuBpUTcRNyfzJ/r5H5C15R87FimiyLyFgZ8XW1dGfuvy7p3Y+0LThiib/+fHyeheF9ix2paWhNU+JvFmqy1IaS/pbrUySRj+3ykpO4wvO1p18eABcP0gTporkHeD++x94nPE76PRAoWfT/tT8ewIjd/x9AsMtVk1NV/F3n4ucrkJZ8pm11GUYMCo1vWdYsyyBioH3OCSvtpLCwbkfSGwcOP31Xk9OnQnBnG00kzaNERAhAcu4PICSu2sIZPNudGof9gklhEzw8J+SL8IVffRHGdFn6iautCyHH4MQEYMIulW/QxvA2//30MGJUzyvSgSzNbRh5R1HVW6uYt5JGnizZRkktoVYFFf1VG98kIk6fp/7v2UJyhX8mGa6w2asdJmwhScE/04gmU3Rt1vnkJAv2OoJx+DlcofHziXqyV0vCDW2YmKImp3LwwRQjIzdf2W61NwwmFUte0aBEPIQkyrvI+BZmrbL0w5Ziv3XOOV/xspTTby+SsNQbF09g8sN9mQ5fpU8F8J3wXDFaEBvfIvhOMSEqOB/gzBKSwCwLljXCcsUclmVZhZzW5CE653h4XUMSYioZspx8iT4bS3Rj7+lbsAqOJZv3OQ6Bj5V+h59gw9w3eFJ2ecIHfcqSYMN0oiLLyWwJb6uFvpS418W4cCKfmv4qjW8K8Y/zAIpfK4sMWsZXg/I+ehL9qle5r0LpIuGrbmkDoOOrbglfl0q+j54v5MW/fJY2cRTGN5c1yzLpzDDFQeqYc5lfnYy2Gx3nwh8uSZJliN//Qn1SbTP1ox8FxleFlI+s5PXv4IemrylG5ZP1JT3tskzrH4rLM8GmBAR6nOV0CzoTRRsW17kR3jrFx0/JhukaOyVZBj2LyLS4Lijpb6E+xUl2+gRBEARB/OuggjsEQRAEsSGQ0ycIgiCIDYGcPkEQBEFsCOT0CYIgCGJDIKdPEARBEBsCOX2CIAiC2BDI6RMEQRDEhkBOnyAIgiA2BHL6BEEQBLEh/Df/EkIV9gnFVz3fPE9vJfbp0z/72WKC+BOQHhBEGZKdfvS7xYnfKlb5FnxcMRO/qa7ju+t1sNZ+qX1bv3vFv99tVSyXqjTGgPg96cJGNev71+L3slO+Ja3n+/tq87Kcw0j4fnnhb7IXbDHy3XEVfSpXN0Em+Ca4hnvlkz/nKuuB6pz7E7L026zS1lr1ALXIKYs/oQdym+n1CfToSjH/WmTc4k6fT5bX4CZMAZ0rCMaMN/Z7BusT+133yoHtjIGgY/Fr2L37mA4QDlBvDOekgeWlxQSYdM0fgA0wq3C1rtrJuB/BynxmVt7WvdNhdBDKPPPa4/KVsOYDnKUqRbQMpo6qcKwkZTh32Ry0b4d4EpSveyXPy/Zgiv7JFEO3aMWqCc4tscdJuqKP9mAK+53g6HpjOCd9jHuLUOE7Q0xFfeJ96l91sSjdpy5O04qA1ED+nNOjB7lzbu2y5Iud5yWWKxOtki2sXQ9qkVM669cDf1xmsKy8v9WgKwr+ILDh9y5wWMxCR870eXnJ55mwapjg/M4F9o6DUqSsrKuLmSC8yZcZXJg49mtad45wEC39Ov+Ox5VYx5qVUPXur8NJNh/g+t6DcXhasH60PliNaU2lSXNhCppXiRBAUO+7Er0xd/gKis1Lzrp3M7hV2w1gSlFPGcwJzi1xxcvL9m4d4KgjXPXFkpwyKyVs4OBj1WrYrIwu9pq1zN3F8AyWuHO4+YrlCjCbQmvzAc4scWyr96l7xcqkzu690n1XRmXO6dADFdYqS1ZSFXcWrC/fy/eZ93OtelCDnLJYrx7wUreKEbzquqLgD3pj9D88YmSdYfCzeAuRnf4+trcAdy4/XLfJVhIHH9vAfIH9HQN4fpCNdq/JVucfjtDGgg8Ir58cCJ7d3/vxxH7s7KIBD49/iw/XxtEHA4CJZg/A2s/oWPtKTikzfK1Ir8lqJ68pqtFtsnrsKiv5rh3WFz890dM+28Wt73kZ0XmYctXOPqAjILl6w5P0C8VjrrK820UbeT1vYLeDXBnE6AxxzHfVT++nKRfpKfsM1DPn9FOHLBcYfKpbJ9asB0lyUj5WLEEdeuBvXm8U+qikKzmo+IObc1gV/KLs9H0nHCyx/XrVMyzf2WjxHfruO8Fxg4caPjxidt+AfbiNfQCL+QDfbAf2iYPp+xHOhmArJvGBzG0YEMO8LIyCuxncExuN9/lDqB+2MHn9uY+x00+vJ59Q+9sPuRSh/b4BrB6BwRROYn33uMMwTxw4vkEsdG7U5mMHDG+dbCPdG8Pe87C8ZLW3T4s9Vgo89BVdMAIATNiOA5v/pMsptt83AHh4ywpV8J2j9+sp4yIFgl2qPB7dq8/AjQXLn+dJ4chSsLmK55fM8d/fMQC4keMUFeTIX3uQdA0Pfa7E8/UuxlddoKgxz5xzOvUguEPhOVevLOtjrXqAFDlxm+mJYeveGOMe/rl64PsocwznIiu/S8/45vuD6shO39wWdq2+A7ZwdtPG8Nb/PRewf9WVAxvsXKg9kFc3ky8WJtzAOQ7Yqu5TaAjYRHxlP3SGmF4c4PHSwmDexfhPrfL5xDdOmphZFs5ZTzG87aN/OwQ+DbBAG8MO2zFXHYj9HQPYauEYI1iWmOfgYAwL5zfCDiCWb1G4NWxvAcbhMXAZOqHEfIyOekRAmV4TJiJHPkB85crzOpyr/Wq7AO6Es5+DK2vp6EMkmS9hTky+nMm/uHmAe2JWXtR2r+xkeYr0xrD3UO44pXeKVs4uh/XBxUxyuBOcfynaWN6c06kHKDfnapZlbaxFDwQS5cSOcvE8k53lzTm3seWpUw+YjzJgN2ewLN7TxNw0PeOb7w8q3R5A9EzffYMHAOYQU+cYb5dyI2wF+IS3FQDsY3jr4PjXSFYSIbTZvXKCJD3LmsHds+E40yA3YPHzNXyoi218s+Rz5teffy6Rz70Td77RMzF+DPKgSYFXS1xLipBwRqURKYcCwGS2hOcfpyA5Z6M6vlH/lr+Q4Hkd1c4E2dmYgezn6F752a9l8zfY+anF/81gw3HGcr87Q0wdB07wzy6fHMlheSfxsZToDDHlWeDXhQ15Qr5NvBfYfYeUyE0x6plzBcibc7XLsi7WpQecNDnxzZQ2m8mpXw8ARGU3H+DbM2B8OALLftA8vjX7A9npz1/wCgOtk6gDFnf3C7z8BoxDG9tzS1q1sfAJJwjV+feZ4NwaYbky0OoNmbDcN3gwYXfeMBLDy+tK1CmC+wbPPxOrHSZj/4yqduYveAX4zrOmRDt/JZy1Go/Bz98K4+++PSwv042Y/wqOdz/SFjqLJ7TyM8znWbAwsKxqiZHBK0HRXZNIcHYa3YWrtsFyL76tJfeizuTOoiTMuf8pWYqsWQ8qyqko69CDNJ5+ecAWO8quf3z1+oNI9j7fxScm6YUJd0+/PAAuHqQJwl6j8X58xwJh6F4+P+Gd9+HOxv8bn/bHAxix+68J/oYBc4AC5jaMyJlY9Bpp0aPI5MENJk8I30H9zj6jKs4ED8/i2xMcvsh6/bkIEjKNw35sZ2qesJ/HvaLt8l3+6hHfFVfC+ztGoeultm59Q5f+hkK4Q6jn2wtBlIrPm2KLnQx648DQpR99CLu7Ugl1YTKtLUQo+ocs9Nh3HDi3Q7R1GaNa5lxxkufcumSpm3XrQY6cpI2FBtaiB8Di70d4CQtBNlfe8KR5fNfhDyJOn4ex92xByfyzmDAsy17tMGFfheEG/2zPX+0wYcnX+NmNoZNnr1EYh5+DkL9//vTnVv0LfP8R6VNMBtx5Cq8VRj8WoczNQ0yWLNSp0VEITB6i48vP8njGNG7OhR2pvDN179jPhXcDvVMWOpyrrbR9Q6R6vQgLU2YbOt9g6Hf43ND6sgQSIkQJH/RRxQ9TZhq6dpgwW/qV0wUGn6JzwMLo3mMJc5YVvDI1mS3hbbXQF/XcT+RTpY45V5DkObdeWepkvXqgIiff1vflBRxP5CvE2vQAfBMoRKd5n8O5onl81+AP/vPXX3/9X+y3Sl+iixivpOzZhFfaku4VhGk4/4TPaUb7lJitKWQTe/cjnP08hXOCEpMs6ghSJqqOBCYg/qWq3NdmwqTO4u1yOSE9uzoq69Jfskr5ypp8zyynm2MkFdpTm98jvHX6OPhRxNjGs9dFfJ2JyVKk4utR/ls68bFRnL+FyJhzGvRAZc6tW5ZZ7RWyiWvWg0JyKmx7Yq39AT2Itpkvn3RdUSFPnzLGTsF2Jjt9giAIgiD+dVCVPYIgCILYEMjpEwRBEMSGQE6fIAiCIDYEcvoEQRAEsSGQ0ycIgiCIDYGcPkEQBEFsCOT0CYIgCGJDIKdPEARBEBsCOX2CIAiC2BDI6RMEQRDEhkBOnyAIgiA2hP8m/jZaKCexQEG0CEFSkQ2Va6BY4GdNJBQJCkkptBD0v3ihkczqfKLcY/0qX9Qk2maivKOFMUoWwYkXvihY1KYoSnKKF+0oV+QppfCFJKuEAiFlCwqJ5M45Rd3LIHfsyuiKEqFcY+OiSw9SitKIuqCsmwoU0gO/b6Xnieqcq1EPYvJJK5RTbvzWacN02l4lVPpdoU/xgjuxClZ8QKVB5AP4O/wdGwSxYfZ3jZgSRTrXG8M5aYQKwNvHn3T8CTClfc1xILomQ1R20Ypj+ZXrMp9DrP7EJ5ik7J0hphcHeAyMUtIcKAeTI2py/Gpy6l45sBE+S/k+lak+WH7sYvdIm3M16ZCqnNJ1pUg7zJzJTkifHrB5X74iZqOibJNl6evZEst3rYpzRGqtZj2Iku4zilWWTGa9NkzjnFNBqd/V+hQJ7/Pa6s8zQdEmOL9zgb3joL48q+/rYiYIb/JlBhcmjgdtfs0xzNUS18IAR6/x69R799fhJJsPcH3vSbXq/zxdnB4a8O6/xgxEIIs7V1tr7cExTLj4FshugnOppvgCg7kLbB3gqFPs3ovhmVzf+eYrlivAbArSng9wZomKz2phY69ZeUwWw29wYeDgYzv/4sKoyWnyxZIUv94+RSk/dj7Zc66LcU2LZjU5peuKEp0hPh8acO9miD+dPj0oS1w3yxGXJav/jjsL1pfv1Tsqt7ZmPdBnL5JYrw1b85xT6ne1PkWc/j62twD3QVbXbtMEhMmwv2MAzw+yUveaMAEYH47Q9q+J8YS3FWDs7LMfO7towMPj33Kd+qMPBgATzV7+A6yDdEWvaOASKXJPA9spZbML824X+arewK6mif76MyEU5zjCv7FGg6Emp2BeroVXvJQMfWfOj15Ti1PKIjZ2AlWdYtduwVgt8bVQiFmjHmSiX99DWS4w+FQmtF6oNaU5p00PVm940nMnNdZqw5LmXBvD27psmEq/1fRAdvrcCb8FS2z2EMe/ZlgGzrqN3XeA9ysczvZgCqfzhtm9B2xtI33KLPDyW/jR3IYhTcQuxk4f23O2ym+8X8fOKw+m6LFFDoDulR2LZlSFGc3oQijhuvcNQBqrsrCFHn6/ZIaF2CKurKMK8WX2NXpO23yAZVn83wjLlQn7dqigxNkoyamziwbkOV0E80RQ9Nw++9Gtco4jb8613zeA1RswmEqLqLGGBXTi2MlXpOqKEr0x7D0Pyxv1sGk1PTBhCzKaDrJHTlU3VciXpU4U51xFPQjvw6M18/g4Gof9Gpziem1Y8pxjvquFJUaBHXtA86r6E6r0u4geyIl85raQGBCeG5zdtDG8DbrABOxf5Z8LfZqgPZgGv588uLBPWjjtAQt/YvfGLPniWezoK/shOMuwMJh3MT7J7/xa6DVhwsNyFlGXzhDHe4B7p/Nch0c5nmfZZ2pcqXKvU6B7ZSc/nwgft7KOSk5i8rC8jMhsPsCZ9BwLfP/xGa1DtoAsLV8lOfEjLbiYFV68TXBuxZOV+s4Y+9JZcSSJabXEqMxCUWHO7e8YwFYLxxjBsvhVvTGcEwdjFN9J5o6dSJquqLWEYccsNqer6MHNOaxYgmAfztV+ypmvom5mUEiWlSk656roARBL5pOOiAEWyZDv271yYDtT7FbMIViHDQtImXOsDy5m0pn6BOdfqjQGtX4X1APZ6btv8PD/2zt/0Dae98+/v8eXuwNxGBwMJuBP4XUR3KgSrgKyGsN2WuMivVQl7oxaodakk1NZvQsRuVtwowhSGVVuTAqvG0MQhAhULBzHcb8rZnY1szu7O7O7kvONnhcEPh9b1sw+8/yZeebZmV3AEgPw8tfBDHC+AHZxEBZm2KKSBCmd63PYYM7GDQL48wijZwsO/9/Jzxk6/MFYUc2Z9GBpacT1kOSIVLUPJdA+RW3Lx/Q6TS3Znm0Fck1FHurdIVeoL8nK0uhhyCuJ82Y0Jr2zpSE0ehheuBi+l/ecUyulc6Enp9YVc4zebRkFmBN0r48xvKixrSlxz01wePXuEB13iGMjZ2egc9Gxuv6KaaODWrUFGD6lztiF/TMN2uJfB3UKH3T7V54dAGC1RO+H6ByxvdP4G0Y6tpmOvizLwEznituBPAFuXblw3WpqoeTg0whV12HbxuOcJa1r8mGMJJ1j2e/cGa4ktPptbgdyen/8ghkqqDW3cScVE4ire5airxw52B7bksLG9vGvz4WUrQ3705O8NeDN4cOC05jjUlQOnmZ6dQJDj84gk35eiMBp3qU4zWA27WP6uViQClcdz6NkpxO+FhKdwRZAUajJAr6P6eelrlze+wUa0ZNTMNHw7y9L30tN25qa9L5guqig5hik/grpHN9W09rzTCGtyLZQ/0z3ysuzgziqvVMd2zRkzQXLaTq3CjuIF20nk7eGYL0+bJU6p0Cr3/n6FHlPnxXaWb9VRXo+pnwv6+mXD+zP8CApSAvVfcC//5aS/jtls/lggMYvmF3UsPtD/pv6+0NU4EW+f91wQ19M8S1i6KywEahduHAv5N85rgsnz6t77VM20x4n/RWr7rXKeM+93Q+NJfn1FWEGuYp3UsMin2CWXJZD1ZPTcoVQ8krL2kZFsJU0TPZOtXXuwYPTjG6LcBln7HlqEyvQSrYVLXgRMI46cN2O/DueKfSk15NKsoMIBzsV9TNk2mYB1lzsFtW5ldkBJzVbyxd30cJxLdbqw7J0boKX3x3U+KS6hIoPjX7nt4NI9T4v/d93hMIfVgQiOmUUF48VAAAgAElEQVT2aocFRyhSCPY0kqp2690hf5dSfAj2OkLl6GP4OmCwP1FuRXwOQkOPz7IGn2w5g2HbsG89sHembdjGCrZ0mkmFPSz9VoKjC1JGqcYSKNQKAj431qVc46vQ+EEm+mjJifehdEcXyjZ9AsP6aFbhrq1z1w8x22Sp8xIyU7GxC36ebCtaRDOCtg3bZsW83i37/2AFWpodRAiCX/wZsm0zF0myXBFKnVuVHQT+I6Pos3+R500NrN2H6ejcYDSFv1VDRyrca6FvXMin1+8idhA/nAfQPCEvUrgROzUo6/dLok4+36lQZZLjAIbch30AysMlFL9XYnTKVNKpWIyg/dSga3S4hao9lTIrdGW8jY6pPLXklHCKHgDjU+Rip2Ip/l51al0JhxwBSNG56DPmcXy6Y7eqw0oUBx+VZgcKHU/6+yzb1GtNS5ZpdmfUvpbOlWgHinGJx4x4e/lkumYfZqRzxe1Oq98F7UAd9AmCIAiC+OugC3cIgiAIYkOgoE8QBEEQGwIFfYIgCILYECjoEwRBEMSGQEGfIAiCIDYECvoEQRAEsSFQ0CcIgiCIDYGCPkEQBEFsCBT0CYIgCGJDoKBPEARBEBvCv7M/QvxZxM+efv27Cghi3ZAdEEQe1EE/emGD8oKCqNEVuM1I64KfVyCtX4pLD8q9lEMtz9YVv9zELni5idYYA+IlEsbPp7r4I0S+1CO40zv8bV4diLWZcklM4YChuLSkrMt0klrUkVNUNw0vowmIX/6RfV1x56iSuz2Tfhe2Ay37TbiUJtfz6enceu2gRHTGruw+afuw/KRegCM8o6mtaLRcXnyNEL9whwtyFiokV3xJoLxDv5c/Y8qa5x75Ptzm7lJAvH28cuA3fp4it3FpP7Pi5rEcMAWFllKKylzWSop95yyUbb07ROfd49JJ5JZlVD7qG+BaVy4cLHXXRB467VsrCvxacmr0MLw4xGP4LOX1KV1OQoDMExSN+l2OHUgoda68dnR0bt12UBpaY1dun8qz2TzE41/sE0X6t+IYGNnTr6PXrqHyPBKUbIDzWw/YPwnvvGf3c3sYCQ88+DSCBwsn3Tr0aaHftODff1kKZtzFl3sflaNTmN5EXBbsbm3DCcz1V0wXgFU17TW7V1prgBt72DX89hjtvr4yNnr4eFSBd8vuNi+HFk6PKvDvv4aynfTOYIuGn1uWA5zbooOcoDv2gK1DHDeET32yJWOd9O7goYLD9ya6q27/670P7FdXortachp3cWaLY1ten9Lk1Lpi96eP7v18X27S7zLsIEpundNDR+fWbQeloTV2JfbJxIetgvYpu8t+lBwd8vsUg3iQk0h6/wDbW4A3jtzOXWVpm8P3dWA8wcFOBXh+kANiu8pm+e+OUceEK248pSWlqxp72IWPx+/iw9Vx/K4CwEK1DWDte3SsfTEomeD/ejL7g3YVFjyM1pTVaFUt4HmkZSwtp4bKYoqv18Bps5z2690T/ed9s4c6UMLKpIJtC0DGM1d2DkppDYs5ZC3IsIOiaMlpF3sNZMpAh9nPSEuNHk72Ae+2i6e3w+INSJTXbx2M7bcgWjq3UjtYXRpZb+z0bFPExIeVv3VcR6+h337MVrIwiAfRrSDdjJAc9IMgHC7rmEIc/hhh+sZBbecAALD3BvB/LI0jSEuN7nfhHG0jUOPW1Ufg2oYdCKfdh9vsoN+esM5Z26hghpdQeEEKaASv6WD3bTmqbgab+Mx+HqDvdpb7eRkpyzD7YahQ9be7wOIR6A7hCntCXjQNJgQMq+nCDYKwUSq1zscO6N246Ybe7sPZ9zH93MUELZwaPVUSbJUfmzDGYGOA55fCo19/uwvAxzwtVcFXjoUdfpgZkccj0w5yoyeng50KAE+ws3wEq/lLqc9ydrDeLdaGiNzvMu0gTpr9ltlOiJbOrdoOeBp+IdZGtNC/agEFt4J0dE7LNuN/pe3Dgq1JMRjWu330GpP8GYL2KWqKhXEUta1kkx0PAGl7web9aPQwvHDRR3bgl4O+tS0UWSz3YM6u6+jdBD/nihg+HN+r+jBAvSvP8gefzuTWrh/gNa0wmLNBnwmdPsTjZxvdcQv9klaWxnBjrDSrGNk2zgEEQu7c9ADR4COzSO/WfIZ8sFMBtmo4wSVsWywSDAZwgu6HIDMSrbcwhY1d5egE+LwMQq0rF47bB0KjMZvNatOuwkJ6Woz1x9H6XCY8CKc/Bw9aubMtkWIvaWuMkWUHedGSU7sPZx+5M1dygVIwCRS/n6c6r0uuYYj1u0w7WLaRbr8DnNtSGGF+wO3joNBqWE/nVm0H7Ps9jKRJzADnn4o1p6VzWrapQtOH8e/37y8lHZn0zgtNoFpVC+DZzyiZtqJBdjwAtzkPow+CdMdd3DkunGoLyNBMOeh7c/jYBSwxAC9/HcxK5wtgFwc8C3AJW1RcMbWZUL0d7PpNfs7QCR8KGNlnUneNUyMlIjuACbrjU7hNtv80CWRyfQ5bKvpx4VZzFEwtpvgiyvD6K6aNDmoaA5gHqYYCwGA0xclFLdxOCVc9H8psW28iweop4n00h+2NVSDXnsQ+dcVWj3kmbAw5MLSuXLhuVV51ZNhBHrTk1Ohh2LTi+mXApHe2dFx8NTF8H6RIg5qcy3InhyX0Wwtj+52ge32MoWAredDRudXbAVsxZ2fdDNEaOz3bTCPLh7EFrI/p9xL1R9jGUn1ruq0YkBEP2GK5Asd14cT+NnsrSC7kG79ghgpqzW3cSYUZ4up+gpffQOXIwfbYlh6IpXQ4gaN7HsG2bf4vUhDmzeHDgtOY41Jykiso1CmKN4cf7D8piRc85ofJONjLWznjF8wAvvKMF9qVgkbxSzhTfh4V3HcLVt8+pp+THWuwJxZdDRQhVtCqYweGaMkpnGhEV3IFiBTZBvUZd2UG5lX0Wwsz+2W2Yo6Ozq3bDkpDa+xW1CfJh60GscYpuz9lFqSr4oGHUehPhH8aNhOp3n/CfIGEIr1lwd3TLx+Ah4fIO63VfcD/8Y01Gsy00lJTfKDCv+HU3x+iEvv+NTH+hseFQnn482TvP82M9k4HDx6wxeoglvBZ+O/ie3mR1vDwHBQPCfBJ1uznJCzIrBx14Lou/8fS11aT/X+/bdouX+UvHvEtSTbtfujoir1aVkfvJnAq6e+UB853FVWyYZZKxw5M0JKTsJJaxbvZizmehIJbJ9QTl/Vtq4aO68K96RlOWlfcby0y7JeP52OOFaSWzq3NDspeWOiMnZ5tpqPhwwCNRZohfJUfjVWZxIp609GJB5OfM4RFkjmIBH3+GsW+Izh2lsLD8104SOx1BAvO1XIOE+wPhbP+mNBVB12wVzsqRx+Xs+twL6bklaY2E3z7EemTQgYxeFrLuN/XDzFZsvR6iYFCYPAQHV++vxjMYK/P47NHvjL1btn/G6+Kw+KXhFlokBIs4V1yljrNcCrcsZYf8LlTE1cDWnagiZacAse6gsDJ5cbGcYLuh/hK4/LeZ8VumquOtfRbBx37DeWf4geS0NG5NdvBYDSFv1VD50pci/JCPiP0xk7LNjXI9GEA2+N+BqzmUMrcsEI+8zZbDpvQaGe1JFsxQCceXH/FdFFB7aKfK4sQP5yHdzj7NYeI81JUtUZPKfJuLzFvsDoA8fvin3v94zSjfYrKIPq6RLETmKKBIMF4VlTAlO1kihxSknUIR7wqW8RIFxSnrIWE+pkWdA3HUNGeylZ07SAdPTmlniBmFExU7WUH5NgBM7qtmfS7BDvQst9YLUZeG9fRuXXbQVLfzCddWmNn1CcNNH1Ylh/XIvOwnHy2kozOmKj1RUdP1EGfIAiCIIi/DrpljyAIgiA2BAr6BEEQBLEhUNAnCIIgiA2Bgj5BEARBbAgU9AmCIAhiQ6CgTxAEQRAbAgV9giAIgtgQKOgTBEEQxIZAQZ8gCIIgNgQK+gRBEASxIawu6Dd6GOa6kY0gCIIg/rNpXeW5aXL1/Fv50+hFE8rLDKIH/he4YEDrgp81EbtkQ0S+cCN6aUfufkcvj1BdQBHrV055Ky6+WOUFR/HLOBIuLSlLB8qSkxaKi1RUtlJin0rTOS3il3rEdUXnM9nEL8AREGVaiizTbzpc9l9zfLPQ9SkrsE1ZrnHbK+2ys7/Yh/1pPiX1giONy4viF+7EbrDinZAa5ob+e/kzplyCMHRvwmr34TZ3l8qYeaPR68AEPQufL3abGFdEY+Vr9DC8OMRjaIwqeUdvucu6uc6AvP3OCZMjJOcTlW1+HVihnAzaX9XYlaZzmrSuXDhYPotq7HQ+U6AH6LsOdkM9WPH4Rn1RQn+sEq6+BRR6r+xP3vHN7mvryoXzZko+LJX8/Y7Jt0D72ToXj8lJRNL7/F7i55EgvAHObz1g/yS8h5jd7+thJHz54NMIHiycdE2SGeyeev/+y9LIxl18ufdROTrNdVfwamjh9Kgi3bU96Z3J94Vff8V0AVhVw16PuzizRSczwNd7H9ivCs8/wLl0j/0E3bEHbB3iOMfd0BJ5+52TSe8OHio4fB/oCZOtdys4vtw6sEI5aba/yrErTec0GXyyJQcSHzu9z+Sl3j2BJd1hvsrxraPXsIDnu5TJimp88xL3KTFyjy+/3z4tUDR6ONn3Mb0W9ekco2fAahimpP9qH/Yn+hQF7VPUtnxMR9mT0Uh6/wDbW4A3lv+wVWXJhsP3dWA8wcFOBXh+kJW1XWUpiXfHqGPCFcnH3Iuk/6RU3R524ePxuzgPquP4XQWAhWobwBpWn1kEzmeks+p8s4c6UMKqchd7DQCpq6UKtq2sz+jh/3qK/CSeZipzJj37ySXU2MMugFnk95OfM3S0ZKCDQk6a93HnYjFHVJpafcqLSudWuGVW2TmItpbrM+loBMVla8VlGTjNaw0d0BrfdEx8Stw2M2gc4zDrWaxt5XbD0y8f2N9G0dFj/M0+TMOnAMCijLaQoXPBhHWklV2TV/o8CM894ctuXJz8GmG6CAy5jr03soDr3SHcxhyjex/YYgrDqKB20cH22IZt27A/T+HvO8viPmsbFczwEna0hb7bwfZ4BA/A7ts/oQSCOZ/YJCcGmzDh90thYznYqQCSXOLU3+4C0ljlI8ja3PXkiVfvpooHm4+bbePy3ofVHIbZnry0rhxYiym+ZhmeN4dfrCkAajnVu0O4TWAUPt8lpm8cuFcFVwqNHj4eVeCN09N5ZY1dks6x52PpzmD8vuC08NgFE7TUIKTzGQ1YUIwuCBSfK0WW3GkuHvEtzWlqjm82ej5FbZsaBH7V6sN13fDfUCMLO/kZnX7n42/2Yck+ZRfTz8v2Rs/F2gGgp3PtU9S2AO9Bb9Eir/Sl2d9yL+Psuo7eTfBz7miCTwV7eh8GqHeHsQakmdW4izvHhVNtARhw4c3Ch2P7Qja64xb6Ta3+r552FRay0yatK0frc9nt9eHsI32FwxVBd2anakOckUqpdQDABN0PsopNvj/i41Et16xcLjzxMf0sKPD4Gx7bNdQaPdTDVCPfZioa9pVyUmwnYILu+BRuk6XQChWFSVtjun3Kh1Ln+Pf795dSPya984KBKhiTtNWpzmf02jp+pyGjsmTZOMbhFuDdqhyr4fjqkOZTMm0zG+ZXK3CqI9j2Oftho4fhRQfDLljG5/oBXtNCzWkBY2HfvWkBKBiF/0IfFpLiU/z7yxLqWNj3mehcq2oBOgspjhz0vTl87AKWGICXvw5m7/MFsIsD9G46OPxxCVs08IzU19MvH3jH05E/Z+gAfACBkX0mDVyYAn419NIm9e6QK/mXgs6nh2GTDeCXRKfZQv+CO9a86ejrc9ihgrTQd1241Uh6W5Wqysmkd7Z0po0ehhcuhu+DdPME3Q9A76aDjusyfYCP6e0UfvOwQKsJcuIr0UrThRubWPo5thMGOLeX39+6cuG61YTirBLGjpOoc9Y2KvAxzVghm9K6Ylt0aUFI5zNaaKXay5Nly6mhkug0TcZXhwyfomObWkTkEiy4wu3XAc5toO86cF1n+Te3HqwiC66/1IeF7ST6lOyslD4GOtfo4WQ/acKqRk7vj18wQwW15jbupMIMcXU/wctvoHLkYHtsS/uELKWTjvQZbw4fFpzGHJfiA3HH/OpoFEeEq9jnUbE90/C1EA+jxGrPYAboY/q5rFdG4oWagbH495dhqsr+PC0l3a4u0pug+2GZFrPtM3QR3foxIVtOYupbarfgTD25oLW8sStN5zQJXvuKZg9MP6OHTkFdiXYQOE3NlH2+gmUBg4IrpW0W4OlXdPuVFakt9f8cT29389cs/NU+bBX91iNN59InrGoi1ftPmC+QUKS3nMk8/fIBeHiQGmqhug/4P76lGA+rBwj3IMcvmCH+N/X3h6jEvn/daOzztfuh8y1WBCbMIBNXELwiN+k998IsAyxLD+bYSzRBozBFr4hL8bdpcuI6t+p6ETlLVeLYZemcN4cfFBmVwDKjkFwIqPMZbTL3J8u1g5ZTy+Vr8mUhNWsH4q0ZTX4n3x/hB0V0Agc7lQy741tfuWoW/mYfptPvqM3xWFciMZ3jE9b0mBsnEvT56whisV2wzyPMvNlrORYcofCJ7S+mC5kVXIizXPY6QuXo43KGFu5J5nH4JRI4nyQDCNJYhQN+oFDpBz6w1OkKjIU/h/Q64s8ZIDqN1MNFDOFBK9mxsGLOGtLSg8lkyynQuc4KTovkYxmZeZc2djo6N+7i7hmxgqV6t2++WuRjlRrMdT6jTRAUk1cupdpB4DS1fY16fLXJ8imK/kVtU4vxNzwuKqi1hVfv+D57qj/j74ObZ2r+bh+W2e/xNzwuxFcd4wdW5SdZ54IJq+nEJn44D6D5uk+k2CB2EpDq1Cu1UpR2KlRpZB3AkD6oJv1PPV0pcO5pe1MaJzCJxE8+Uytz/CSvO2xfiIdU6KCSU1wHVnYqmEhETkq5m07gFO3FbKW0sTPTuejzmQfltFPrAp3R+YxBk1mHrJRoB4DiQDGN9vJPbrIPddG1TaP2Qn2Jf1fWaX3aLf3NPky737IteLc2vr6NHKaVsz2lzhU4xE4d9AmCIAiC+OugW/YIgiAIYkOgoE8QBEEQGwIFfYIgCILYECjoEwRBEMSGQEGfIAiCIDYECvoEQRAEsSFQ0CcIgiCIDYGCPkEQBEFsCBT0CYIgCGJDoKBPEARBEBsCBX2CIAiC2BD+rfxp9EYi5UUk0Qsd0m9YSkXrgp/1Eb9AInqhQ9pFIzkujIlespDj8hATohdWKOVdRp9Sb7YSZKq4ZKLopUtZl4mUcclP/OIPgcK3L6aQap8JuplLp+KX/MTlpPMZHRT9XqUMdXWuJNvM9inq9nL7wpjtFfDPOujIqew+acUpQNStIn5F54KicJxz6q65T1nan66uxC/c4YKchcLhApMa5A39Xv4s88aqJNp9uM3dpQAL3B60KthAIvsWquiz6NDoYXhxiMfwb1TyLo96N3Lzk+pmsxX3iclzlnm7WaHgkdLX1pUL5800XQa5Ye3vrkh/s3WRtW92G6Ka1pULB0s5qtrW+UzO1ldqBzHWbAcqOcXsIrcvjOpA9g1/hdCSU7l9MtEzccK1Kp+yHKspZke1kvU2xacIky3doB9J79fRa9dQke5UHuD81gP2T8L7uOvdj6hteRgJDzX4NIIHCyfdOvRpod+04N9/WQ7cuIsv9z4qR6doGXzTKpn07uChgsP3ac/G7wJ/vjNzduMuzmxRcdl979ivruT5J70z2KKRXX/FdAFYVaG1lfaphdOjSvod4ao+acHvns4wzpN9H9NrUQbnGD2L92Hnp949gZXjjmst2v2SAqoeg0+2JEeVHeh8JmfrK7WDGGu2g7icmF14t8JEOLcvHODcFoPbBN2xB2wd4riR9nc50ZJTiX0ysYNGDx+PKvBuR/AMm2Fo+BS00L84xONnG2e9l1ytpPYg0acE8XOE6UL/+yLp/QNsbwHeWH64VpXNJA7f14HxBAc7FeD5QXba7SpLzb07Rh2TpUNNS8E09rALH4/fxYep4/hdBYCFahtA4ZVXecx+pjjy9ilqWz6m12XN7nax1wAgKrV2OisHb/ZQBzJm3Io+GRIo8EgjKPq/nsy+vHGMw6wxsLaV2w1Pv3xgfxsHyJJBGkkTmngKPE/atlW1gOfRWgJ+GpWdbCnpfEaLxRyyFpQjyyT0dK64HQSEPqWxh10As8jvJz9n6JTWXgXbVvR7StymjaHTb1Wf0jGxg5ZTQ2Uxxddr4LSp30aIjk/BAOf2qrJRyYukpS99wt6N/jfKK30ehOfhlKiO3o2Lk19sJsEMuY69N7Jx1LtDuI05Rvc+sMUcJwCWeuDpKdu22b+HKvpt/ntrGxXM8CLtlXewPWazst23RVcL5dC6cmBxxVHDV/mLR3wrwREc7FQASS7IlmX+1rC9BeD3S6qLVvbJGKbAsQljhCCTZLxaDvTJ6sN13fDfUCP7NPkZdbfmMCOMTmKB1tVH4Npejtuth8pRx3DsArsDejeu8Hx95SrQagqfuSmewQAQBqbUwKjzGa22+AptLKd+y5FlHF2dK8cOdHwKx5vDL9YUAKD+dheQfDsQ+NsaprgM5Gk/oHpVPLeiIyd1n7IwsIN2H040q2dKAZ9SBkk+ZZnBMJ+gySt9aRW03IM5u66jF84keJAIPhXs6X0YoN4dCl/GUg94Hsmz8OtznAcP9FaY24b7Qja64xb6eWZlJSIX3viYfk5RnMYxDrcA77aE/bJ2H84+IjO7bFnmpXXlwIKP6ShFdZR9ykG7mtxWpBAojzIzfarAqY5g21wyjR6GFx0Mu2Cyu36A17RQc1rAWNhvbFpAzgQgb51lqBQrkMGnM/kHvA9sUqurMczuKkcnwGcbtrin7vaBcHUWXXWwlVzH7eOg0AqOb/2lZml0PpNGpJhP2mZklCNLjqnOFbSDVJ8y/obHdg21Rg/1MEgF8iwY9nmAiOoms30PI2lPfYDzT8Wa05JTQp+y0bWDYLu1WGZMy6esjGSfImYwTJGDvjeHj13AEgPw8tfB7H2+AHZxgN5NB4c/LmGLDx6k4/iM33tINg+WugI3PmBkn0lKkppOXzGT3llki8LF8L06jVhkACQaPQybFrCY4ovYjoYs81DvDrlxfkk2jKQ+mbeWboTX57BD+bXQd1241TzbF3KtCcZd3DkunHDbaYBzG+i7DlzXWf7NrQeryEQzbXsn4S2GPK48OlaD0RQnF7WUrbAJutfHGKZ+JpvWFUsBpwVGnc+kI09YWlcuXLcqp5tLlKWRzpVgB+k+ZYLuB/AJmsv8InxMb6fwm4e52mO00L/gE7FP8mRw7w0ys27GaMkpqU/6ZNlBWHf2oYyny/IpKyLJpwQZjLSFaApyen/8ghkqqDW3cScVZoir+wlefgOVIwfbY1sKgiylY4A3hw8LTmOOS8mwWZD7Y0grqGn0cLKPWBrSmNCZRWfeq0F8tSRxtlpmnwIFTssohMSLR4vw9Cuy7cSLisIUsX2Op7e7iv1jXVKKOAMZPo+E9vIWFSkYv2AGva2wvNtlwWtE/v1lYuWzzmdMiRUHr1SWKTq3CttU+pQJuh9EvTxDF9EtUBOCzImP6ecVvq4XoCWnFfVJsgONYuGCxH1K2ST5lJwF4wKR6v0nzBdIKNJb7is8/fIBeHiQjLuF6j7g//jGBlvHGfHPhH8TPNb7Q1Ri3/8HoAgKLadWQl+Fma8qBWvg2LVo9zXeJc3okxF5ax7MnN3k+yP8oHhI4GCnkhHQeeV03olb+5StcFWZGGsblaztEy0GeHgO6moEggKwtKwY70NsX1CDZTYouVhO5zNFCJ+tNFmmthbRuTLtQEGqXjK7yRe8eNV50nkAfPEWFPAWR0dOWX3SQcMOeFF55agj7MOzbaOg1kW3BiS/TylIkk/hW8nYd4RnYxm24Hmz6g0iQZ+/RrHvCEIJ9pOXMwv2uokFRyj4CPaHloUw7LWNWJFNuy/8f/CZj8vZNd/rWeUszRgeJGNBga/yi/U1MIQ0Y9GRpSZB+i014Ov0yYBAgXWDKu+jsVzH3/C4qKDWFgrX+P5iYtuNHob8Hdx8K9RgQpOwvePN4QcVygCyDnZKY/AQtU2+55u2tRSOd46VAdf71GCu85lccB0Un61EWcZQ6lzJdiCS5FNClkV2ebYT2FZLenAdjKbwt2roSIV7LfSNC/n05KTTJx0y7eD6XMiWyBkh75b9v7at5/EphUnxKeMuzmLPdonpgk26bdvOtMP44TyA5qlQEYNLOqkqelKTItiUcTpaecRfCUp6jSX3gURia7GTugSistKQZUZrimdbEsjdqE+6baYcwhE/haqIY4g+Y/y7dE7W0kbjYJ+4fl9i3mD1MMaBMksHYnveeZ8vLaAG36nzGc3mFCfkqfxOWbLU0bny7EDPp5TmBxWyDIn56egYmvszLTkZ9UkDY19Y5NAqU58iksP+jA8Lq4f1dflO5CMIgiAI4q+ELtwhCIIgiA2Bgj5BEARBbAgU9AmCIAhiQ6CgTxAEQRAbAgV94u/i3/8T//rvhodEJfGv/1bedxEEQbwi//rvFfzrf/yv6C17BPEfzv/93yjtdZT/+n/4r/9TxnUnBEEQr0vgy2ilTxAEQRAbAgV9giAIgtgQKOgTBEEQxIaw5j19dhTi7oou5iAI4vWIHcdqfGQzQRCrRh30o+d3K403eh5xgTPotc76fwV0+hV8Js/50QntKL8rdqZ6TnkrzsBe7V0H8XPHVe1Fz67OpwNJdwuoZSVeL1w8OC3PMF/53RGZ9hk/E79QnzTtoHMETD/bhS5TYSTJUjG+uewu/aIeuU3NO0Z0WZdPCVnKLMmm1mYHZfmwpO8T+p98Fj4KPOcfJMvgEznuEYkHfS7IWdgIa9i9gvAQ/OF/j2B/EITs9gHTQWz34TZ3l86i0cPwooNhF68a+JeX6dgJz8MH5HmK6cJCLW9DjR6G4vPz7+1ctTEaSK8AAB5iSURBVDAJ5c2urVyOCZO/c9PDk6lTuD6HLSpPuw+36aKP1QSq1pWsJ/XuEJ3mED1vqZz17hDOmykubf4s7T7cZgf99iRXnzInDFzHcT+Fh1opt7TVuyfl3PaW2c4wI7gus2l2IIMCY5xtB/xzVXZzY/GAnybLCbofpEu40bvpoHPTA4zsYIBzW/E03BfNPf7/gi+0Bbszb4+xNp8iwm+4VLJWOyjRhyHbDgafVDLmtvEr54W4f4wsgaWujGCrdDmFyJ4+v6JQumZ0gPNbD9g/Ca+/rXc/orblYSTMZAafRvBg4STjLt9Yx5sW/Psvy4Ebd/Hl3kfl6BSmFzyWBbsfPPteaNzasD99K9bYuIszW5ydsWt0sV8Vnn+Ac+k6SH4F8tYhjiP3PBtz/RXTBWBVVyPtwSdbmvGya5krOHxfF352Bls0/JX2qYX+xSEeP9s4672U85X8Omjvll3fuTLC1XTKbL5djVxxDeD6AR6A3bdmN6dn20H4Sey9MfrqZIxkWaIdBNeZClcQt5yoL5yge82uoz01vNJ6rT4lJPCvI0wXit+t1Q5K9GE6dqCABdGIbWjzJ8mSX2WcM5sQWekfYHsL8MbyF7WqbL5x+L4OjCc42KkAzw+y8rarbFby7hh1TEIHrkqzhG8+N/awCx+P3+XZ+/G7CgAL1TaAtV+xy9pPv8s9uuJYBbvYawBIVWp+t3gJqys/NvstOUUcobJzAGTN79/soZ79KUMSVnkFaDnLu7xPmwmfidhBHlnqr6YjutPYwy6A2U8TSerYQfnoyDLODC9FbaB9yu56v15mM/feAPgd+dz4BbOLGp9A6crzdXxKEORGvSfs3UR/+zp2EMfch+XLKrVwepRfn/8oWTaOcSjpqhnySp8H4TC9hTp6Ny5OfrHZDXPUzBjEIFHvDuE25hjd+8DWNg6Ev2VpWxu2bcO2I7MWaxsVyWBb6LsdbI9HuVYm5cAmPrOfB+i7Ltzg300P6+rNwU4FWY6s/nYXkMYqH0HWRp791tG7qeIhHDcbl/c+rOYwzPbkhgeg+CRDhI0Bfr/kCviVo85y3Nz+ajNG7T6cfR/T66QUJbcDjEJZ2p+n2G266ButFgO7A3o3bvLzXX/FdFFB7SL4fpZWDRyIPtl2UO8O+c/5Pvu+I/Qrh65kyjJKsPoqOjHhq/zFI75lBpInzGMrvSxewaeEK8UCe+YmGI9dXh+maQfRv+qewIotMDX502QZxE2rLzy/i6Fmll0O+ta2UGQRBGAbZz3RQXOHHHzqykVn5w72hy4kNx7OnJOVgA06p9HD0D3B/POKi6Cy4EHJaopB7xJT1NBZR+Bv9+HsI92RcSUUU5GmbQSK0lEq8wTdD/LPJt8f4Qez8tzw7aOMFFvryoEFH9ORqYlN0P2wnKjYto3RswUnTwDSIp4SjtE+jW2FYdzF3bPp9gWzu8rRCXAdfT7R4TEZsEmaCzfY3zfdN9Wwg0nvbPnzBVjxUvhZs9SrliyDz4XO3oG1mOJL0dqfxjEOtwBvLMpogm8/fGlbEwgmyabfv36fIq4UV4/u2Ank9mG6diD37/hdfn/5p8mSxU0LTvVBWkjgqKMV+OWg781Z6t1SB2C2Ogtmugc8C3Ap7yss5ngKOpYxc578nLH/aPfhXmzjLuIozNKR5SIHwjL3DlNo9DDkVbvJjoyv3BAJJCZcnwvOeQQ0XbhXEXNpy7NIV6q6zUfriq0I02bMbO8Tcp1HAVitiVxDUBaq2pbYZwIDFWXp8lQ/374wISqXwWgKP9gKYy2id+OiczTDSHAGeTMe67IDHVmGfRAmdpc/DtEpOKlLcuqT3hku74HaxXLcPuJOsaerx9p8So5VdxH0xy6guA/LtgOBYAFqvIjAHyxL9UKi8u4406fIQX/8ghkqqDWjAVhc3U/w8huoHDk8C7AUBUtLG+DN4cOC05jjUixw4TPjPwpvXsJKN4Xw9RMPo8RVWbDP7mP6uaxUU7xQM3hlyL+/lGaSRU6hD/a0/fvLxEyO+LpL2W9usK2pMjHZI2QV23b0X+HXscBtdrkVFjqNwJ7GXZzZrMjWiU7s8rASO8i/3zrpfWHbGU7OZ2v0cLIfXeWL338mjdlZDzxVX4J+rkSWOVbdhTAdu1X4MMTsYEkRefzpspR5+iVurycTKeRjq3jrt6pIz8eU74c8/fKB/RkeJOfdQnUf8O+/YQKw2QbvQGge0WAeFMX8+CYZXP39ISrwIt+/Jsbf8Niu4TBaqGNto1LCHroaYeabUd1rab6Lac6yhoCtTvNWucZZrt5TXqVr90t8v1WA65z3UPJuXFC4etSB63bk3zVduE1erPdzho5WUWYWAzw8O7CiBZCRIr2DnUqYbVvC7dqkuXXaga4sU/xBeo1IMi2nZuRr6t0TWIspLk180zplybcqsOXAdR35d1y+pZ6DYjR2ZfgwPTtY9o+9ZhctTtfiT5Xl90d8PDqM+RS17ceJBP0JuuNTuE0H/fZg+Z5+U66WnPTucOo6cK5aGISHITi8upEJYPL9ER+Pajjp1jHoTaSDFJYrxgG+3p+gc/QRvcYkfE//Y4HZTnEm+PbjI2pinxQyKI/AENJfjWKp8RUEfL6l4N9fhm1PooEqdqiGATyYpxpHsK1R+glueYvYNIiedxC057LXrpYB6iumjQ5qF320xsVWNoMHD45km7xGQng+9pkaPnbrmITv6edxfGu0A21ZxmF2sfQ7RvBVvq6vYdkqH9PPphmaNcpy3MVZ7PvYO/GHP1Zw6JnB2JXlw3TsgBEUaOa0/z9WlmwSWWv3UB8vzzZx9gHvNls3//XPP//EbyLVOiFP46Qq6Xs8jOyv2FMILHp858pPNNMg2qeoDGJHjgqY9D/te8IgqDhFL8Tw1K74K5RqI4yf9HSH7YtsJxz5lpSTz4J2k07RY5jpgt5rhsmndRV1SEmBSv2MufQ8qguqiVKJpy5m2QH/1PKwrtImbQpZqiafBSaKy8NyEiZjWieT6rMun6JoWRmo1moHJfow5fel2EG58eQPkKXQj6VP0W9HHfQJgiAIgvjroFv2CIIgCGJDoKBPEARBEBsCBX2CIAiC2BAo6BMEQRDEhkBBnyAIgiA2BAr6BEEQBLEhUNAnCIIgiA2Bgj5BEARBbAgU9AmCIAhiQ6CgTxAEQRAbwr+zP0IQfy+x885Lv/RnzbT7cJu7K7qJkVglrSsXzpsc59D/xxG/i+JPuG8lP6u4e2J1qIO+1kUT0YFLvyUuFa0Lfl6HMChkXigE5JNBwqU0ivbil+AUcOwlXyaSRPwSkYx+hzItoE+s5VA/E/Wp3UfnCJh+tgsGSD1bKGP8ohd7rMtWUu2gFPTtoBS0LyXSu8Qpm9cJdKX6DL0WQ3klPV/rqoMapri084xr2iVe0TZLjFH4k2SZdEmZ3vPFgz4PBrOwEdawewUhKAgzmw/B1bouHLcPmAo1XJnY4dW6w4sOhl38AYG/hdOkG/Ci/UYBGSDbAYSrAG4o9e4QnYshejBXPObAywh22Ux6Z5Jhp/ebX4VZBvw62TRa1RKuNuX2gvtL2In6yo33eQTbLnZLm6gDTAc76LcnKw4eKXZQMmtb8UWvMW334TZd9CG2z8ZtVxxb5eeyaV3J/rLeHaLTHKLnrSpwlKNzptS7J4kBmdFCVfMKWDUDnKueh/vjuRf2pLwY9YfKMu+EP7Knz+8lfh4JCj3A+a0H7J+g1wg685HdYS2sDAefRvBg4aRbN2ie3Snt339ZKv64iy/3PipHp2gZP065tK4cWIspRvd+/HdVC3i+kwx28OABwT30ZdLus3u8r5eGMul9wXRRQc0xlFK4un2d9O+kdwcPFRy+j+tJqFe3nuIvTQj0aoTpIukzdey9KdgMWujzgJ9sfHX0brjDKJhJmfTOYIur3uuvmC4Aq7paS0mzg78GlSzbVVjwcCeO7fUDPAC7b038HDD4ZEvjn2YHxSlP54xo9PDxqALvdoREC27sYbf0hvliQfDH5cWoP1iWOYms9A+wvQV4Y/nhWlU23zh8XwfGExzsVIDnB3m21K6yWcm7Y9QxCR1TNB0pzeQbe9iFj8fv0loQx+8qACxU2wBea5+n0cMJn5E+vR2qP/NmD3UgfNb6210AM7yUHEzrb3eBxSO+id/bOMbhFoCtKlqA9szVaHW7wm2X2c/o97DVpH//FQOcwinw3WyG7GHUe8LeTZFeZsCDwihNJo1jHG75mF6v0GFE9JDpoJwGzT12OnZQcho1nXhqs0y99H89RX7CJ/GBvfCgFdfffFR2DiCOHH6/YCLZXY40sonO6dxLr0nLqaGymOLrNXDazPUV+WifohZ5XpMYlYqBLP1fT5HtzPx2sEpZyit9HoTlFImLk19sxcQUlK2QROOod4dwG3O2EtjaxoHwtw5GsG2b/fs8xW7TRb/N/9DaRkUKki303Q62x6Ncs+nyUGU8ZAajKfytGjpun2Uk2n10wqBljtV04br8300P4pMf7FSYMwh+0O7DvdjG3a1pZiEYO6B3I7QXPIP4ye4QbtOCd2uH4/cFp2G2Jy/BqvHrtfrnX4o673CGrDa2enfIn5kHjn1HkMPQ6PnYZGwOhN/J/oX6DSx13OpLnxkarTaSYJN0STdYo3DcE8w/87G79VA5+phj7LLtILBZtkcb6MoDqlf5sg9pdgAArauPwPVSJ9mzdWSZ5yBYGcqr+q8sm3YRjCnL7FQU+msMnzzEJhn7DtzGPJTl6LmCWjsuh1Q0dY7ZODAKx+0S0zcO3Dxjp8hGCi0t/Q2vI8oaZ334Kl9aFOnGKA0M7Ldy1EFn524py4UFp3RZyu2l+fAk5KBvbS8Lu8IAbOOsJyomdzTBp65c9qAfupDUt30aS69g3MXd8zKFxlbGnEYPQ+6oXr2KM5g5jlLC97iLs2BgXTfc3zdfcQxwbgtOzL7EFMJkIpKGDpT3MtcMko1d5ehEcpyjZwuOqDQ8cPr3l9JYTHrnubYE6kJQVCpzsJocFy/YEmfIKia9M8EowVY2oezNVlQHOxVgq4YTfJGCkCVMbJmOW3CqD9LkF0edwoG/deXAgkpPI6tDHryMU8kadsD64GEkFdsNcG68WsyyA/6pT5ExypluB8Amz1wvO8qJ4gTdDzYu730epPj+fuHCQj6Zim4dALHCRba4OMSx6WQ0U+dYZk1+5gm6Yw/YrxpurcbT6zJMjkE/fEBaTBSSJ894yr5DM0ZpYGS/UpZkVbLk3/1BtJXAh+stWuSg783hA4ClDsBs5vSE+QIADngW4FJOBy3meIIgLNeVZkjOPpbpyJ8z9jfByjXidMtKoZmhqDNQ0ehh6PJCEdvG5T1Qu3DzzZIlJuheT+EH2xuY4OU375mgvHIq16yF6LMNRmJ74JO/6LZLfpaB1ob9+RGHF+JMWWc1qYnmDLlUotkJ5T67evJbeXece4VT7w7h7MfHUg3TIZap00XHDviENJpGLYWoHXAaPQwln5JcyZ3J9bngOEdAM2q/bIXaOZqx1TB39iarKhWtK5ZlSspGSYxfMEMF28YPmaFzPNMgrbhdl6f6zeqSVPvn60I9ydeLUfrktF9vDn9NsmT1CnoTeznocwWrNaMBWJw5cQdy5PAsgDC/2olW+HpC6kgxs/Pm8GHBia5cV1LsoUewHxybgcufCgNVoEyT3hnsWw/YdwqnGgOC1cvTLx/Yd2LKK2VKijB+wQxr2k6JFmrqZFW00JkhrwM+SeMT2ySefhmmGQXCfcPnkWZmybxoUc8O1kOol8FrplJ2pqxCp5SC5cA3jbs4s1kxWK60LZY1TtEsWiIl+kKVzkkr7lwZL7EWZ80kZghNYlQ+tOxXypzrUFyWOhP7SCEfmyFZv1UFED6mfOXHgtAMD5LSslcx/PtvbAB+ztCJFsFEGb9gdlHD7o9v8mtd7w9RgRf5/nWwLCJ0XDdSTFZDx3XRWUxx+eEF21uA/yMyX+STmMLwlXYg7wmXpbLg0WiVNcDDswMrWjwULU7iz7FtIXnsisJn20GRaO3ChXshf4SNgWYxTFjY6MB1I2WARx24bqf0d9oHDx6cJjP85bfyABvss39/xMejw5gdHOxUcqw4ENaOmBVcHaj1NRFdO+ji5XcHtVghYUlE7CD8/8ITxDSWmTP1GHEfmeObl9kZAz3kzzw3mNlMdHQu8L1vC45cUBzHbUyi6cJtru41zJZTS4wTWjFKAy1ZJmBc2F1EltyHew/ZthF5ZS/YhxBXqyzNJ66g2Osm8mw32NsLVwZhEUxaKmyAr/e+XGQU7ie/wsxRsVfCUvc+22sLsxQDPDwjVhyVpoTaNHoYRuQdylIo6GGrEHMHOHiIji/PWogpsqD2oinvEdW7/cKFfEHQCmbng0+Klcath2WWSLN2YdzFWWzFwvbt/ftL2HaeeosMrh9idhAbl/E3PEbGjm1D5KhhCHXDrMI6ZpuZ6NqBUNAqrXxb6Bfd5lLZgTeHL6W60w9qydOe6HcGDx6wVcNHce+Wn/+g41wlwkJfk4ln3PdqoaVzge8tWAQpbZHI2Zcgi7CSGi2+yk+KE1oxSoe89psnjuWWpVmB6b/++eef/4r9VOtVrYjBKU/OUp8cFJ2tRE9t+9OOZKx3h+i8e8w4IQ/I9YpG9GS8xFd0VncCYlIQiY6L+UpZNf4a/W73eVVx0de+WPuHP1T9LuvozGjgUT1fVA55TvNKOoWLtxrYTEyfUNqpdkl2oCeDDDTtIO4rLjFvJI1xMnHbTRgT7ZP7UltLmZws242fXlnkdUQ9nVO1Wfx0Tva8UMkpdvhbzhauXDj7WXqmE6N0yJZlXJ/KimMqWRY7JVId9AmCIAiC+OugW/YIgiAIYkOgoE8QBEEQGwIFfYIgCILYECjoEwRBEMSGQEGfIAiCIDYECvoEQRAEsSFQ0CcIgiCIDYGCPkEQBEFsCBT0CYIgCGJDoKBPEARBEBvCmoI+u5davLe5rOtnif98Wlcu3Jte7rvlCYF2H647LH4xErF2/gQ7+BP6sDIaPQzXGHvWK8sW+q6LYTe7tX8rfxq9/EJ5AYP+BTCtqw5qmOLSTrjsQOuCn1dg7f1aXqQQu0AhdiFJgQt3AsLnU31XsUsdkttirEKWystDAhSXbYj30he7YARIHbsSiV7ssRZbWYsdKC6lKeh3jNoSCMZPdYlKet80WIssFZczlXTpUiLRi4lU7ZXiw/TGrjySLroqwf8qWInORYgH/dgtSEzI7hWEBoUbyj4Mlp11+4AieFT3Ae82LeDvYvrZZrcWNXoYXnQw7OJVA//yFid7bVf81rsnCcrMrk5cjgmTv3PTw1NuQ66j10gyHTbmu/eXsIMxaPfhNl30YW5U65LlpHemkEWgqy/L33Edx/0UHmqlXM2aPHblUe8O4bwRJs/tPtxmB/32ZMWTjHXYwQDnttiCyu/E9TLZ75i0xeG+KLi7fvBJ9cy8D7/SblJXsz5ZTtD9IE1v0bvpoHPTA1YR+Bs9DEUfzmXUuWphIo5dKT5Mb+zKZl0L0bJ1TkUkvc/vVn8eCU5kgPNbD9g/CVOG7M5wDyNh1jH4NIIHCyfR9EJjD7uJzbP7ov37L8trCsddfLn3UTk6RcEbuXNT7w41rm0sGX7/snfL7k+WGeBcukt5gu7YA7YOcZwzjRuO4a3CStrV+L3T1w/wAOy+NUtWvYosRdqn8v32aKF/cYjHzzbOei/ltJE6duUx6Z2F99gDAK6/YroArOpqLOV1x47d9479augH6t0TWIspvgh6meh3jOGT4Iy769nkzvBOdry2LIv7i1TGXZzZ4lWz8bFbhQ9bojd2/6nk1bkkIiv9A2xvAd44slavsjXM4fs6MJ7gYKcCPD/IytuuspXOu2PUMdGbuTX2sAsfj9/lWenxuwoAC9U2gBWtYJJh7fv3X7WMU07H5LknnX+PU0NlMcXXa+C0qftXFWxbAIzba+H0KHjGUzjKz+xiryF8N5+8zX6aKJ6BLH+/YCKlCPPLUmyfOYOR5JCUK4UC6IxdNG1XahryzR7qgGBzM7yM5TSo+UpFf+xi2yplppIXcwTrm4Md1dbNE+YLwNo5AIq0GEwOr9OeVrQbE17bDgJmeIl+TzQtDwCLMtoCYj5ESV4fJpA4dkmp+RWxElkm65xqK8DX+EZ5pc+D8DJFwgrwTn6NMF0AlZ0DAHXsvQF8IdVQ7w7hNuYY3fvA1jYOxMI9vodjNYVCvqC4wdpGRVLEFvpuB9vjUa5VZTmwic/s5wH6rqLPIewZg3Sdbduw7S+Ak6Nwo92Hs+9jeq3vKOtvdwFprPRpXTmxFZPE9VdMFxXULoKiF5aaCwKbPrqyBLDvwG3MccllOXquoNYuWATTPkVtC/AeVri2yhw7ricYcR2xYX+eYrdZRkERky/ErQsAgAXHPcH8M2/v1kPl6KNhcZ/m2LX7+Igvy2ezR/C2auhcFcw+BNmTcZZNTPDyu1hT4eRw8Yhvmav86CJFh1e2gzCjKgeOencYbq3aYXuFGgphEzTFJENsv4APE74lYexYLKn9lu1OJyiqqBx1hEL0fiwLvSpZqnWO+5Q301BPbFs/yygHfWtbKLIIArCNs564l8AdTfCpKxednTvYH7pYfmqC7gdZ0N7tUhhBipINOqfRw5A7qlXtT2rBV7RWs4qHUKCXmKKGjmCkLD3uY/pZTNdN0P1kusLJkZriDjFXOqvRw8k+MpwpG7/Le59P1vg+qunqTVOWAGKrw8FoCr9g6q9VtQDjiYoJGmPXPo1thWHcxd1z8bR868qBBXHrIiCyOuSTuMP3BqFDd+yuzyMZhAEenhFmHwyfaBkUL6LbjMDgwQO2ajgVJ0vtfnLhky6NYxxuZdkEz0DmsrnXsAPxjSnVJD9YQX4pPyXOxyQ1s1HEh0nfox67ICU+Klz4JsSyMJhbcKQ3ZFYlywSdCzMb+bJpctD35mwmZKkDMFvds3QacMCzAJdyRaGQjsti8nPGH6IP92Ibd7acxjJLJZeLdxsJ5pH9p4OdSubKQAdVfUQ6fNWdS6FVNRsJn7tx0TmasSzG5ylw1FHOcHXIkqWS8QtmQeovD1qTm2LojB2b2FpwXPmVVWcfOQNj0PaQO1YdR8NWwyxTZ0b22MVfx80fhNm+b+hc4cg6d30O+9aTs4bVh8IrKnF7JpFYbYg567UDOVhd/jhERwxUyq3VEmj0MGyyyXZiJrGQD4t8U8LYKbegS4LVkQiT6FXJMkHn6m93C8UeOehzBas1owFYXN1zB3Lk8CzA8kHVe24peHP4sOA05rgUC1xSi/9eCW8Ov0gQUmK6Rxjs00YzDJpoOq4wmAVjMu7izGYFU07RtC2gJ8uCOqDlyAthMnbiFlA842WK+Kqh3j4925IrBWnsgj1T+fnKShEri/Suz2UZfnqKbTcaoTU5XFGh2BrsIGDS+8K27JwVlkeHr+R5GCXqdkEfFmlv1RP7NPJMovVZXXFipHqfr+KVRXrLmczTLx+AhwfJobJX8/wf3/QHYPyCGeJ/U39/iErs+9fE+BseF4p6AmsbFWH/6elXUL9QAF78KO8XseKrYDWz3Peto3cTGEvOYsGqBYDt1YftNS0sV6JsVcWyGNGMTZDhMUBTlkp0PpMEdwZGumiK5tixbBYvaCql3X6OswXYpN0oMGqNHf9e48I2M1Izfnz7JG9lc8upZfuaorUhr2UHCmQdiE44ikwOhdV74hsKxX2Y1GLW2EUzadL2dQH4REzWhzJliWydi8Yeg8lhJOjzlNO+IwQbVgQizjgmvbvYqo/tL5oaH3u1Qyoy4ns9q3YkyUzw7UekT2kykPbk6uhdGRTdRFctQkFGUAMRpOFbVx1eQ5DfWAafFKvNWw/LlSgz1mDv9KO4wsrl+PRkGUfnM8kEzqCsV1yU6I5dWBSZb2tEIkidGh7Skc82dcaOTQTFFU/q4SJG8ACRkq1hxVNWJG1uQDA5TPU1QaFYkazR69iB9E1XHXlyxCciViPwV0Uq3YNgnv5KYhk+LCRj7GL1H6rK+lwoippLlSX/+xSdm3x/hC9mwGKHHqXzr3/++ee/Yj/VOjUqcjJS0ms6scN+4kRf+VnliWa6RPuklkF0cMtQaCZXiDJIU9iir0e1+3CbiBuros2845IlS9VJerkPwwgP3kn+++TAVHT8FGMHIMkJmMkz3ZGE36VyAAV0JNMOFKd3Xv46Qefdo1mbCn2L64Cmz9FkeVhOyqSB96sMn7Q2O1DpgHKiKMvTu7Xx9e3QeOxST8IM2i3Zh+mMndSvxRSXH15wqrTP1JY0TyYtR5YA9HROkqeHkf0VezcdHP7I1hd10CcIgiAI4q+DbtkjCIIgiA2Bgj5BEARBbAgU9AmCIAhiQ6CgTxAEQRAbAgV9giAIgtgQKOgTBEEQxIbw/wFWimGnmfckaAAAAABJRU5ErkJggg==;" vertex="1" parent="1">
          <mxGeometry x="8.66" y="-500" width="1202.58" height="860" as="geometry" />
        </mxCell>
        <mxCell id="QTnUCfMTTWea07dF9Dti-13" value="" style="shape=image;verticalLabelPosition=bottom;labelBackgroundColor=default;verticalAlign=top;aspect=fixed;imageAspect=0;image=data:image/png,iVBORw0KGgoAAAANSUhEUgAAAgAAAAFYCAYAAAAlTUT9AAAgAElEQVR4nO2dPWgbTff2r+fl6bYwOARMICm8LoIbVcJVQFFj2M4yLtJLVezOqF22Fe7kVFbvQkTuFtwogrsyqtyYFFk3hmAIMajY+nmL2e/P2Q8p+d97/cAQWeudmTPnnDlz5uzmP+/evfsfCCGEENIo/t+f7gAhhBBCNg8DAEIIIaSBMAAghBBCGggDgIL0L02Y1wY6f7ojDaGjT2GaY/T/dEcIaQDC3kz/55KW92/mv5nfdg1Mz9tQ3M+PM2ink8hFHRjXQ7S33M8WZtoZolf1L030dt1PNpYXJ9DnkYsGY5hHqvfRvhvhxFhIDuUPIiWnbMLyiVDifmXaTJZ3H2OzBzXwG+tGw9lV0daielL2PuXby9Knjj7F8EABVkuMPukornV1yUmSGm1TCgnb9GToUlqWNfqUInhjrCAnSTxZpdl2DT7FaUleBwZjDA+A5YVWQY4y7RWzzUw2bQeR+0X7HbMBt8VafGb9dpCeAXAE+3yjQdM0aNoM1m4vEhE6Hfw9c67RMHtU0Yvs2PqXJnqvlhg514zugPb5FEY3cNFgDPNoB8sLp72LJXAwxFT/y/faUnLKZ3KqeTL0f2awANi/ftTe7Y4+Dc2JdmNBORhiPAheJRa1nbuR36cbC+qRGbkun/5lWE9GdzbUo4gO1EZcL7P1qY/jBKOVpz45SVGjbUohYZvC8T1j5unuCEu0MSycLavRpxRtt6vmX1aVroGpaeIzHmBlXVODTxF6OcT+95GUDvRbKvB4W33xz5y7oraZwabtwGVwHApeYqwCftX5Kb34r9kOUgKADoxBG8rjLNDxCc5uLGD30Lt5R/+M9paFWSDimpzOYEHFoTuZgzF6uzaWV/5OYGF8wXKloN1zh9LH+EiFfffFV765ji93NpSD4784/Ssnp9J31w+hwsLtGrIgC+MEWnB3dvUVyxWgtgLSHrTi7V/dwwKw86aYsU5OtVBkvjBuYUHB/oc1BHjdj9jfsrGcBWLl+Tc8rADl9V7s8v5lD+pqidmdXa69GuWUT422KYWMbXbw8b0C++5rYHeywLfvNrC1jbjEM0ZXm08phtfuTeqyXAN9jM/38XCh4cR4SutJbT6lox9CXS3xJaCX6TrQwdtXBYaS2J7E3BW0zYzWNmwHLq49zLBclfhzSTZlBykBwB62twDrPpxs6LdUIOC0914rwON9OCUxaEEFoLz/iA6AzpsdYPWAb8GosvsR+1sAdlvCgXTfYgc2Hv4JLnTCqQAqWuvYRckyGIfOxMJpejk5lUPsSsNO1fnm0gz1qdZd5qu3kR3bDt4GnU73LXYAPP+sJyiJGb2zQ3LHlpROk7wztkMbOjFXsWxK18DhLmDNdVTLs0jKKTK+4ru6+mxTigK2GZ3LvdcKsHopJNfafEoh0m0tRMQXFM9OTnCm5aVn6/Mpe6+TbOcHXgovtgXak9I5SdvMbm2zduDgb8rqz8oG2ZQdJAcAjtG/eMFwB8a1icNfIuoRyiMixuCkdfQpzO6L2Ek5kf/eawX4/eTvNAdjmOfbuL2x4DlNdRsKnvHkDUSkrrbnszXtouTo6NNw6lPTMHsMXCAlp7JtH0JNcLzGtYkewumznVpSzcKgQnN19VVEk+fu/fsYn7ehrJb4WvVs21kgQ0Y/GMMMpfTEUUFh5jpuHwH1yHXSHRjXvYRsStIuogSycnLGh+BRwX2r2NzVaJtSSNnmAvrcAnZ7XoFsR5+i5wRW8qFijT6lAG4G6EtGpk34AhVWQDe/4Lj+I6w1+hTBAk+//U9+0Z9z1rzbCwQ5RY5UJHVO2jZz2LQdAEDXwOcDBdZNTv3AVhvDShu0zdlBcgCgbvtFFZ7BazgJRT3OguFedWli+PoW2qfgTiqcVnIHMYoUMnTe7Pgfugam5iFeLtZZICaDuyv4kh6xS8mpDM4OK3oeNziOpYU8g2pVOyjpX/agIpKawwL6J/e83oTpnnOXKuwK4iy8IaN3zmCrLsYOk1O/rsE03bO0iOEOjtGOpiNLISMnkTrE4yxc7HR1Vmy8tdmmHNK2eXUmzmAd5+fWAxSby/p8ijSBDFCqTjuO374bhcazMM6qFR0mUaNPmdxbwFYbx8EFaDAOZTEXxolfs7GCKKLzzq6LFFXK65yUbeaxYTsAgH4vf/PjyzNcC1QsW7Q5O0gOAKwX2ACgJhu8iExEKgnYcyKvUbj6cvWCH4FoMzgI39DEzmLx81l8dCOYiOLVlW4uRGLqM4KUnEqQsjAJZ6yiZ5rxY4lY6l4ed7cWD3ZEVO0VdznFOlUfy+tfit1GOJJOTumVb8MMZG+c4qDQjibhbLs0EnJyMh6Vx1ebbcohbZuDsR/4eAVLRR1ffT5FDskMkLoNJc8X1EWdPuXqzFuAPH/Rug9nMWtDXufybVOCDdtB0nm7FFdnmD0WPW7YnB0kBwDzJzxDQfsoavDByER0QDnoOZGX33Tw7OnHLxvY7cUGEdpZWC+woaIXjWAcp/nXIiWnorg74bRqXCtQaR34KbkrDz6OFH+syylEcedkruNEE4UovZLPB7uPrER3U7XiGqv3OMwEZ9pIpOkHboq6vgLLdcgplRptUwop23SDKf+RqMmpyIgoB58LOPYafYoMtWWAaqRun3J1FvYTpz9i6eV6kNQ5CduUYqN2kOeTJSh03LA5O0gpAnQikMQiBD8S/vHLBmDhPuTI+2jtAvb3b1jA3UGkFBG5958/4Rn+33hXfdiHErv/JokWq0QrZeXkVAjnEZOknaKQZfEzzvS2xpnPIicXcbnRaXH8TEP6M7/Reo/CCxZcA4hGwMGzT7+IrRctOHTP7wo8viYlJ0fHq9ez1GebUsjYZkrBo5c9KEBtPkUCt2CsfR7YIR+p8PXCyeBYL7BjvmBdrMGnhO4jjhHX8WSRzNzl26Z0a5uzA6+wLlgfIbKY4hgjK9PlrBkF9FK233XYQUoA4Bf1+AUM7hmmHwWJR7nCuxxxlhxQMLdAKhDdiR1TMPKe4Gt0t+Cdu+VU5q4L59EUtev2O/7yClk5yeNEmmnnTF6xWQ1vxusamDpn0mkvGHHPED8HlTsjQMnECTbSF/8J7h8Reuwz8+VIGSz+eRC71uDu2znrFcYjzuyjWZTRne0/w1sgoyInJ1fHI+9aGIwLFgnVaJtyo8u3TddWjiLPe3fVeJVy3uhq8ykSI0t698aNBT/L5md0ROFaOE3d0cdreI9F3T7Fxy9kXM9LjmTmLt82pVvbnB3MdZzEsq6iZsJ2jrzSNjTiuLN4lmlTdvCfzP8OWOrNfJE3oCW+/UvujUbRtyit901xMoTHZt1o+PpmiuH7h/AY63qDoXOf7HEnBSJFZZV8j8R7RcZWvC0g6S15PsF0YLhf9t0IJz+PYR6h+Ju7om8IQ/68dPSEuZVFVk7R68q+4a0225Qj3zYTdKqutypW8CmFGYxT9S0qgzJ2nh7URt7gVotPKTL/gRfPVHrrqESbJWwzlQ3bgY+Q1/73cHux+a30Ftf120F2AEAIIYSQfyX8z4AIIYSQBsIAgBBCCGkgDAAIIYSQBsIAgBBCCGkgDAAIIYSQBsIAgBBCCGkgDAAIIYSQBsIAgBBCCGkgDAAIIYSQBsIAgBBCCGkgDAAIIYSQBsIAgBBCCGkgDAAIIYSQBsIAgBBCCGkgDAAIIYSQBsIAgBBCCGkgDAAIIYSQBsIAgBBCCGkgDAAIIYSQBsIAgBBCCGkgDAAIIYSQBsIAgBBCCGkgDAAIIYSQBsIAgBBCCGkgDAAIIYSQBsIAgBBCCGkgDAAIIYSQBsIAgBBCCGkgDAAIIYSQBsIAgBBCCGkgDAAIIYSQBsIAgBBCCGkgDAAIIYSQBvLfP90BkkQfY7MH1ftsY3lxAn3+B7tEyF+NsJmduxFOjIX8X12a6L1aYvRJh9xf/V+3zXJyIsXp6FMMDxT/F48zaKeTP9ehBLIDgK6B6Xkb3hASB9CBcT1Ee8v9bGGmnSE+TP8660bD2VVCe4MxzKOAaf0NSirTJyk5ydKBcd2DmnaPaFup8i6AN8Ya7pVBzCBWRRxv6VY9vUucu9p0Ts4O+pcmertea9UXj8y5k7VNObz5y9BvmWv+75Jjm7L8ZX4uZpeV9HKDdhCRI5CxtlQmOi5k+6/BGMMDYHmhlbfv6PiS2qu4HqQfATg3fr7RoGkaNG0Ga7cH87IfuMgRyu+Zc42G2aOKnjlG6Cp9CtP8DHy3cga7g+WF097FEjgYYqp3JIeyBmT6JCWnAnQ/Yn/LxnKWNIV9jENtjbBcqehdGygvpQ6Mrpp/WUWEk3nGTAv0HW0MK/VdgsFx2GhD39Wlc3J24O02nWtGd0D7fAqjW3JsmXMn1ycpugamponPeECqBctc83+dTNuU5C/0cwvjxNORanq5YTu4Ogv1W7uxoB6ZGA+K9luGBfRPgbZy/Fe/pQKPt+UX/66BaVBPtBmsrTaGoXWl+nqQEgB0YAzaUB5ngWhqgrMbC9g99Caqo39Ge8vCLBANT05nsKDi0FXowRjD9w8YaSfQf6Z1o4/xkQr77osvsLmOL3c2lIPj4g6rFmT6JCenQqjbUFK/nOBMC0a4C+hzC9jax8eSi4g3hzfrdNsdfHyvwL77GohMF/j23Qa2trG3tnbdOZxhuUr7rrrOydpBb9fG8sqP4BfGFyxXCtq9chqeNXdSfZKij/H5Ph4uNJwYTxWu+ReQaZsy/I1+Ls7CuIUFBfsfigUlf8oOPK6+YrkC1NYmJJnlezt4+6ri7ec6TrRgVmSCr3c2sNsK6En19SDlCGAP21uANQ9Huv2W2G3sf+gA8wX2XivA43043TBoifOx9x/RwQKLqzNoeSmZ7lvswMbDP8Hkhlg0ABWtAYC1pHWq9klOTutHwbYKoHC02cfxgbswH6OXck34zLN8mk15vQcEElh7rxVg9YIf0RZrSpN39EOosDAzfuDtdeTLGnVOxg7wZgdYPeBbcBzdj9jfArAljLrYvjJ77qRsU6qdCc60vJ7JXFMQiTR5WE+c68q09fsJi1B7azrXL6JzsfR2+eObsnJ6/lnMd/0ZO4hj/4p5lNp8WJxnPG20/mMHb7vI8fXy60FyBsBR1BdvY9GBcW3i8JfYSQlHLqKcoLA7+hRm9wWzu4I7O3UbSkiQfYzNIbbnM1gAdt78gfSYTJ+k5CRDH2PThGmajtEraJ87n00z8zih82YHCPVBnv5lD+pqiS+p548dGNct3IfSgzbUo6LpOicy3e3BdNJTHX2K3i5gzYNnWkJ+vV0rcFTwBeiVOCboGvh8oMC6SXGatemcnB3svVbEQuNeNBjDPN/G7Y0Fz6gLkD13NdrmH6CjT2EeqbBufL37guOAzjl6Ekgja9qs/NHDbg9m98W71+xRQXvg6lx524whq3NdA9PWfTjdXOqor5ycXN36WmiB/DN2EOqBk4G4NcIBVj0+LIqbzfGzmuKo24RpOrUCuz1fT8yq7Tmyywk4iq4HyQFAKNXlKqmGEyMYWYndr3fVpYnh61ton/TYji4P0WmHroGpeYiXi3UVc9TYJyk5ySBSOe45ltiBBM6b0gqOnEWu1FlT18BhbAGOsoD+KbyALv55gO1GmEW4OvPPsUzTqwcIylMYsI3lxVnoqEA/LV4o2O+1oWQ4sfp0TsYOwilB1zGOyhbk5c5dfba5cRydtu9GoblYGGe+jg+OhZ5c1VRAGimumsyWsL00aknbTEBa5+Y6TkL3LXlcVkBO/uJlxlL0cvwBOwBEAOH0e5gY8Nfow5yASrQXD8D9WoqROHJ8nAWCuOrFvr1dRI5RI5RYD5KPAKwX2NgBVANT52wveEM3yntZATvYg3E9xP73EbRg5JWQ2k1j8fMZQ8BJewEz7SQ0yKKpqDqQ6pP1UUpO60EUgCgIn7nJkVS7kEJCpW0pnPvYd0JP+pcmeqaJw0BqVxwJLMPpwZJt9XZtLC/SnVh9OvdDwg4WwO8h2nDSsZhB+xRqrUAaUWbuZPr0l6JuQ4GN5T/p8u8kpZHrZP6E5/N2yWO1dIroXFLavihF5LQwTnxb6RqYnpuYfijydMKm7cAhdMTsZGtakac06vJhWED/FMhX6lMMzSk+rvsx0K6B6ZEKZGZry60HyRmA+ROeoaB9tI3bUOQSjPIWePoNKAc9Z9cbOdstgvUCGyp60Wiw+xY7WX+3TmT6JCWndeCeaUV3y5K4O4O8aubgou1GshfLEuesbrrMdyiTU5GKUw4+V06NhXEq4/Oi4Np0Ts4Ofvyygd0eDn+NQs4ptCuUQWruarTNJrIuvyOpc2LxD2caRnelqhvKUaowccN2kEhCAXZtPixObcWLWXiP+VmYpT4yXX49SHkKQERzyQUdfhHLj182AAv3oZ1IH61dwP7+TT6FNH/CM+J/0/mwDyV2/w0h1Sc5OdWL8yxyhUIlUaQYOcs8UgGo6JkmTOexHWGU0TO1EjgOLrqrXvx8Dn3+8auG82m3oCh0/ibO5JSDIUzTFI9c1ahzMnYgxppSABbVnwxk564229w01otcejaqJ3Uu2k4WokxdTSZSOuekyas8QhakipwKZoo2aQfZ+JmE2nxYBuvL9AZ29anHJNXWg5QAwC/a8p+pFLu4oGKKx0VU9AKFMP3LHtTCAhePOIR2g95ZYMaZx1qR6ZOcnOqkfzl0zsnLp50mp8HnWYPnm27xnVA2YayBwpzYSyckmX/DwwpQj4LPAzs79UCK0tOnULFTB8ZlgeKnuY6T6NicMzl3FyB2J/XpnJQdXH0Vu4WBPxav5qHAc+XSc1ebbW6YuY7bR8SKtDr62PssznADj5aV1ctE1mm/cj7l6TeAV28DehJ9UY8cpeU0GIvz9Mz6oIT2NmgHiTip8qD91ubDEhC+eF325C7s2U9/VF0P/vPu3bv/pX4r9caqyCMWsbcVxR/BQMq1UUVf31ud5JHqU51v9vJeFJIwoVlnWVXfquedS4aVLf5I3i22z3tA4bmRfZNW9Lo6HsnqeOeS0XmpT+fy7MDvR11v5vNImTu5PuWTfh7tz43MNUWIzkvMpkK2YGGmfcXblDku0k5iW6E2U2yzAPk6lzBv820ME+c4h1w5JdhlJb3cnB3EdS5Z12rxYUmBQ+obIQMvRCr5xsjMoM9tt4b1IDsAIIQQQsi/Ev5vgIQQQkgDYQBACCGENBAGAIQQQkgDYQBACCGENBAGAIQQQkgDYQBACCGENBAGAIQQQkgDYQBACCGENBAGAIQQQkgDYQBACCGENBAGAIQQQkgDYQBACCGENBAGAIQQQkgDYQBACCGENBAGAIQQQkgDYQBACCGENBAGAIQQQkgDYQBACCGENBAGAIQQQkgDYQBACCGENBAGAIQQQkgDYQBACCGENBAGAIQQQkgDYQBACCGENBAGAIQQQkgDYQBACCGENBAGAIQQQkgDYQBACCGENBAGAIQQQkgDYQBACCGENBAGAIQQQkgDYQBACCGENBAGAAXpX5owrw10/nRHCPmD0A4I+b/PfzO/7RqYnrehuJ8fZ9BOJ5GLOjCuh2hvuZ8tzLQzhK6K3ifpGgAYjGEeqd5H+26EE2MhO5Y/QB9jswc15VvrRsPZVbX7Jd2jf2mit+t+srG8OIE+L9LOhonNf5CE/rt6sFpi9ElHWQ2QltPG9c63mdJt1WWbfzW+PRS3pWL3T8JtM6xHERLlnoOEvkXbLK+T8jrQ0acYHijlxuQh58NqY8N2IOVTavMn618P0jMAjmCfbzRomgZNm8Ha7cG87AcucgT7e+Zco2H2qKJnjuFf1cc4dJ8RlisVvejuYTCGebSD5YVz3cUSOBhiqv/Ne4wJzjTNG7v3c2MBsPFiFbmXmOydu1HoPuqRifEgcNWlid6rJUbONaM7oH0+hdGteWh1MtdxkiCn0Z0N4BlPnrL2MTZNmK0XLFfVmpSVU//ShHkEzAL9WnvQOTgOOKMS1Gabfzcd/TB1ca4HOfudnCZco81gAbB//SjWpISf6+jTkO5qNxaUg2HID8jRx9gcYv/7KFsHugamponPeEAhl5XYXr4Pq40N24GUT6ltHdvMepASAHRgDNpQHmeBaGOCsxsL2D30bt7RP6O9ZWEWiLgmpzNYUHHoDVgYmX+fBfS5BWzt46PXyT7GRyrsuy9+5DLX8eXOhnJw/H/GYQk6MLoq8HhbbFc+aEGFhdvg4nN1DwvAzhtHloMxers2llf+rnhhfMFypaDd+78lJaCP4wMF9t1XJxLvwLjuATcatNNv1W4tKaeOPkVvd9O7YlfXZyWDnDpt8y+ma+DzgQLrZlZxUSqKnP2K4CRir7nI+bmFcQItmPm6+orlClBbxWy8ox9CXS3xJdDHuA70MT7fx8OFhhPjqdD9Y8j4sNrYsB1I+ZQa17ENrQcpRwB72N4CrHnYLfZbIh7f/9AB5gvsvVaAx/uw8xy0RNT+/iM6WGSkbxVsqwDmALpvsQMbD/8Er+7g43sFgIrWAMC6Ukh5RNI5AIAsxz04RnvLxvKqzJKyg7ddCJkAjlyA559CLp03O8DqAd+Cjqn7EftbALZa6AOFF7L89FE0fVbPkYPrQGeegi+gf6pn5y0nJ6FffgBSFbl0nT/uH3h7XaadTdhmAjJ2EL2mQiq532tDWS3x9Qo4Pkq6IqqXNR3dSNlvNHiVpKqfe/UWHUB63vZeJx26/cDLClBf7zl3muBMqzP8zfZhgjrmbrN2IOVTal/H1r8eJGcAnIH4KewOjGsTh7/ErkV5vQegg7evwimwjj6F2X3B7M4Gtraxl9Jo580OQilydRtKLBU8xPZ8tqboUY6OPg2nczQNs8fMvxC7h+ikyHD1VURu526KRxyduE4QcAz695OvsIMxzPNt3N5Y8JRFfnQwrk1nB+yO7wvQCx7NxFOI2s1zDUcOwoHGDLMm5OQkHMjzzz1x7OD+lCps68C4buE+cryhHkXk5O1qK2Qc1mybiaOTsANxTfAoZYTlq2g6VpKEnU2U/uVn4Cqcti+XJg+NQsp+RRAXdfQSlPZzQldDOl2aBZ5+V75JMhI+DKhp7jZsB1I+pc51bEPrQXIAoG4HCrbcQWg4MYLnXY5Sulddmhi+voX2SUfmqZjjBIMpNhEQ+N9PzUO8XKyxcEQKN8r/Ir/bdaIva16mcG0B/ZO7cJgw3fMfLxUolNnFVeRRyfS1SI3ZWF4E/34B/dTve1IK0VXM/Q8VgrJBCypsLGfrWP4l5eRE0+pRcOEeYYk2hoWDgAX0T+H7L/55gO1muRyCu9rSrNM2E5GxA3FNOLBxjvp2WwWP8ORS8JPTSBaqjlSzlP06O7qiR3wo7+f6l71S9jK5t4CtNo6DC+tgnF7QWJk8H+b0q46526gdyPmUetexzawHyUcA1gts7ACqgalzPhScMDeielkBO9iDce3sEoMLxeolQchOFIPwmczi5zOGgJNCBGbaSWgQ4fTRhkhM52RTzcG7aTHnTLprYHo+hGkeO2fUCzz9HqINJ22PGbRPISkFIs989l4rwGqZudPZe60AW20MTVPMTxAvhVgU18HP1vTkgqScnOg4vmgdwzwS9SmLQjUcCSnyyPe9XRvLi/JPNQBYo22mIGMHTjClHImCyjB2OI2Zg3dm+ynHjaU8WWLLNZOIlP1WOOIr4+dEnQqKbURcrs6gYQwzOC+PM1EEV7j3MuT5MIc65m6jdiDnUxZqnevYZtaD5ABg/oTn8zbaR9uRQQQjKqcDBz1s32g4CRhN8tmTe0Ya3XXCmcw2et0lRlrAQbpnHvnj+PN0DRzuAtZNOQfvOT7XUOY6TuZCZr3LPianE/z4ZQMHPRzehRVZRJ5rklLFR/FiVKqRkKOSnKwX2FD9+hQZnMU/dI7pODmn5fqCnrXYZj1Uf9xL8mzdXUBCNQZO1XTZpqXst+I8FvRzwcfyStc2XJ1BC81JB8Y1YH8vngvKQ8aH1TZ3G7YDKZ9S4zq2qfUg5SkAUSiSXDzh7wZ+/LIBWLgPKVgfrV3A/v4tYEiiwltNKyCbP+EZ0b8BOh/2ocTuv0nCKdxo2iVIv9eu1FexI49GpM48OCx+PgNpRSYFz9N//Mo/A5O5phgVaiQKICWn+Tc8rBLSjuo2lIKPcAqDy6gIdwtzdnt+rYEpiqCUgyFM0yzwmFDdtilDjh049lu5VscpznJlIn5EYaVIgzrnoc4c1XmEJGW/zuOb1n3Jdov4ucG4hmfyExgco71V9OkFOWR8WH1zt1k7kPMp9a1jm1oPUgIA9/yuFyjMEI84BM++FsYtLKjoBQp9xHlVWMH6l0PnvDmtenyCr3c2lIPPftGUUytQX5V2QZwFQu2658HxylUPZ/dQpa/ued3n4EIQdThuYcjAP6P2zvILGpQ3d6Hz7g6MS/9z8jUVcMdTqkaiAFJyWuDb94jOJei4DMIQA0U30RRn4nsQRliuRPVzsXcP1GubuUjZgWu/FYvwrs5Sn7e3nGe9z67g7LSCQUn2C31ykbJfN3itUsMh6ee6BqZHau2LvyjUVKsVoWYg5cNqm7sN24GUT6lvHdvUevCfd+/e/S/1W6k3GkUmMJoyzjobjVzrpbwc1voGKSnCY7NuNHx9M8Xw/UOo3+JRuhqeJ0+QVVwGdb7dTeYRvyQDLfMooNMW0o8UovMfpLguyMkp2mbZR8nij1PeYvtcvNcgud8d71yyVHq3DtuURs4OEuev8iIm2o7KMe4rRnjplpOnlP068q7DJ2X7uYyNRuzaPOTmP/1NhyXsXMKH1Tl3m7WDcj6ltM5sYD3IDgAIIYQQ8q+E/xkQIYQQ0kAYABBCCCENhAEAIYQQ0kAYABBCCCENhAEAIYQQ0kAYABBCCCENhAEAIYQQ0kAYABBCCCENhAEAIYQQ0kAYABBCCCENhAEAIYQQ0kAYABBCCCENhAEAIYQQ0kAYABBCCCENhAEAIYQQ0kAYABBCCCENhAEAIYQQ0kAYABBCCCENhAEAIYQQ0r3pS/IAACAASURBVEAYABBCCCENhAEAIYQQ0kAYABBCCCENhAEAIYQQ0kAYABBCCCENhAEAIYQQ0kAYABBCCCENhAEAIYQQ0kAYABBCCCENhAEAIYQQ0kAYABBCCCENhAEAIYQQ0kAYABBCCCENhAEAIYQQ0kAYAJCG0oFxbcK87P/pjqyHwRimOYXR/dMdIX83/3I72CgblmXXwNQ0MR6Uv8V/cxs4b0NxPz/OoJ1OIhd1YFwP0d5yP1uYaWeYpH4PYLXE6JOORbS9wRjmkep9tO9GODFiV20WmT5JyUmGPFkK+pcmertej7C8OIE+L9FcLfNbAAlZhsdWVQf8vls3Gs6uSt6mVqr2qY+x2YOa8u16xhm34Xg7MtfkE53/EEH9jOpuKb0sIsv4tYXHF+tzkIgd1+ZTBLX5jDwiNp7o62uZu4S2sE47T1jHRIvl/WEG0nZQkfQAwJmkZ0+gwgDMSwQad4Tyewbt08TvuDkGPKEsoH8KTr/4m+G1AQQVYzCGebSD5YUmFLNrYHo+xFTHnwsCZPokJScZZGTp/O7VEiNNyK6jTzE8n8JAQYOubX4lkZBlR5+Gxib+ZojxYFHYqDv6FMMDYHlnAQdpLn6z1NOnCc60BMk78n2xKnUxkf5lWAc6+hTDoykMy9c5mWtkmJxqCXoldHPn1w//c0h3hZ72rg38SNpYpLcmKUun/bsRNNfuB2OYRybGKLDgzHWcJMhC6MUzniKLf3Wf4v+t+jiDljTWOukamAZt3Gl7eNnHwut3XXMH4OoMWlD2ZeakIJvalMrZQXVSjgA6MAZtKI+zgCAnOLuxgN1DL63Y0T+jvWVhFlDKyekMFlQc6p2UJhfQ5xawtY+PXnqyj/GRCvvui+8s5jq+3NlQDo7xZ5JTMn2Sk5MMUrIcjNHbtbG88g1lYXzBcqWg3SsipXXObxJy87swTqAFncDVVyxXgNoqqAGDMYbvHzDSTqD/LPana2OtferA6KrA4+1adnWTUy208CyMW1hQsP+hU+iasnT0Q6iwcOs53gnOtKCTT/IppVuLy3LQirQP4OoeFoCdN1XH18fxgQL77qvj8OvzKWJxdRb/mnaMmcx1nGjBgG+Cr3c2sNsK+PA1zl1Zf/F/hLgdVCclA7CH7S3AmoeVpt8Su5b9Dx1gvsDeawV4vA9HKoOWSJO9/4gOFhkRXTDifYsd2Hj4J5wp+PheAaCiNQCw6fStVJ/k5CSDjCzxZgdYPeBb0Ml3P2J/C8CWMDI5M9/E/Ab7WHF+X71FB5DfHUR3BhnYv344OzA3IVk2pZeTIi7Qp8IMjtHesrG8ivb6GU/zcL/q3MEor/eQNysy12QTXSAzW8O2CqBKEJQqyx287Qbu3X2LHQDPP6vJ0nXqM29O6vMpwjckjSVOfXaQRER2idQwdw52bIdcw/FNwfbrl2WaHdh4sSLHEwUCvuQMgOOw/RSYKG44/DXDcuUadQdvX4WF3dGnMLsvmN3ZwNY29lIGInaDgYGo21CCAQH6GJtDbM9nNUXZJZDpk5ScZJCT5d5rBfj9FD42Od/G7Y0Fz8hkWOv8JlB6foUzDI25ZpSDIYavb6FpGjRthOVKRa9wEU8HxnUL95rm3EfD6M6GerSJIjxnxxoNDAEAKnrmIV4unH7dWFAOPlfvk7P4xR1twWskEAtkNHhMuO7NDhDS6VKtJcvy6qvIsp27BVcija2slvhaaRERTj0UZNfmU+DbnTqGaZrezzQhe1ePHcTZe60gtNlLoJ658zOW4R1yvbapHAwDshwnZqfXIct0O1DQPh9ie+6M72IJe7cnXRiYHACo24ECDddZazgxgsbsOGf3qktTDPqTjrjJO9WRpgnT7EFdLfElMElCARy6BqaO0/qTRVtSfZKSkwwyshQLsvfJWYxHZSLL2uc3m7Lz27/sQYWN5WyN6ctQtOykI0MpSxkW0D+F52HxzwNsd1ezTpwMkDVPOj+NFHs5C1m1tLyTos5MRcpcI9fWx/dK/tFG18DnA4nr8kiV5QL6J3fhED5s524UPq4qw6AV1+/afIprdyp6rXtv8dMulsDBMB4E1GIHEQZj9HaRnb2pOncDP7gZHiiwbqL+sC7bFDqgBQKJ2aOKXtKTNrXLMtsOQtmMuY7bR/ljkOQAwHqBDQBqsrMWUf0PvKwAYM+JUEfhtMPqJbBQhIU3+r6PYUBwi5/P4h/ujlYLFw5VTbOVQapPUnKSQUaWCzz9Fh+Di7EvmewoO0Tt85tNmfnt6FPHeXxZT7VyGtYL7CLZFJdBeJdlplZ710u/V2QnKnSo0C4y2t6l+wRDeuApc40Ubjo+MwB0duMI16qUIV2WYgMzPHjGLLCIpu0A5Uip26jNp3g3DMvFWSCU9x+RGQaWtQOXroHpkQpENnthapi7q7PAojwDjhIew1uTbYp6KImAuqospezA58cv2zs2zSM5AJg/4RkK2kdRZx3cFTrO5KDnRKj+JIu0TzqxwjXrBTZU9KI7WieN+EeQ6ZOUnGSQk+WPXzaw24stxqEdtgxrnt8YBefXOz97nG3+CZDQDkwS53Ek+24U2mnZ6+hfkK6Bw9203X8S4SxSUdxHk+y7UWr2RuYaOWQKG92zXRvLi4rBRoYsvWJYV3fnOk40UQxbOrWb5tRr8ynp/PglcYRXxg5cvMf8LMxSsyQ1zp1HQrHkBmwzN6CuIssSBb5F/HPKUwDO7i+xAMw/h/jxywZg4T5k6H20dgH7+7dcp+RFs/MnPCP+N50P+1Bi998QUn2Sk5MMMrIUO+mUYrpoH7Jb28j8ehSZ38HYW/w3UrkcQQRTBbIp3t/UW50rQ7/XLmgfYhEpcy7vZ2TSiwhlrpFmcCyyCPdpOuBUuNf0THuWLPdeKwkZLzdDVoasuo36fIpIdcd3nsnjifSwhB0IArv61OPJeucujt/vtdqms4FJ19FgH8rIEhJ2EGtNBPmSdVMpAYB7bhEsJhDFe8FIRDzqE46CxblttsBFijD8WM/XOztcoOScDclV/64DmT7JyUkGKVm6xUgDw0vviN1J0XPy9c5vHMn5ddOGf2jxL6tzIjALONrMF77UhLNjLdLXcnMHLyjLXNhlrpHGXSDTjzaED6lpAcmR5eTeArba+Bw8Ny/smAO4f5uYuanPp2D+DQ8Rf+Gey2dmjUr7Xndhz656r3Xugjj+I9jv9dmmZCFopXUs3w5if1FwPfjPu3fv/pf6rdSb+SKPWETf/JQk8BQHH3504u94e5tUn2p7g2GOLEWPNvpmPrk+yZEty7Q3bSVdm0fGG94C/U9621ZZnYu/ae0W2+c9IPIyl7w+FWsvY+6T7K7U3GW9Lc914jLXFGjS0cvUuUh4A5zHOmSZ0mY5XXH0HDn9rM2nRO0qPh912UHUvkO4Pr/GuYv3O1nX8m1TqjWpRwnr9Cm5dpBom8XWg+wAgBBCCCH/SvifARFCCCENhAEAIYQQ0kAYABBCCCENhAEAIYQQ0kAYABBCCCENhAEAIYQQ0kAYABBCCCENhAEAIYQQ0kAYABBCCCENhAEAIYQQ0kAYABBCCCENhAEAIYQQ0kAYABBCCCENhAEAIYQQ0kAYABBCCCENhAEAIYQQ0kAYABBCCCENhAEAIYQQ0kAYABBCCCENhAEAIYQQ0kAYABBCCCENhAEAIYQQ0kAYABBCCCENhAEAIYQQ0kAYABBCCCENhAEAIYQQ0kAYABBCCCENhAEAIYQQ0kAYABBCCCENhAEAIYQQ0kAYABBCCCENhAEAIYQQ0kAYAJBidA1MTRPjwZ/uCCGEkCr8N/PbroHpeRuK+/lxBu10ErmoA+N6iPaW+9nCTDtD9KrotfbdCCfGIvz1YAzzSPU+Jl6zUaJjA6wbDWdX4av6lyZ6u/7nMv2O3iNEjtwryUlqjisSbSOEjeXFCfQ5YvMPJMs7j44+xfAguTWslhh90hGVlvc3Kd/nEu170n1icsiylQJtoZycZInLMzBnadeW1qM+xmYPodFF7lVmflORkmV+n2SRlmUtvjDuv1LlU0t7knLauB0UWaPSKCDLhL4Vl+dm7OA/7969+1/iN84kPXsCdToU6oQjlN/+78RCliLggFBiAhmMYR7t+MbgtI8/GAT0L0304I9NCBwhg+3oUwzfP/jCdsZYj0MWMt/JCZbKBgBJ48klphflEe0/pxtjrbKM66pPwNjKBABdA9PzfTx4ckyyFfE7eGNx+oOSAUeQWuWUT6LeePa6xPNBOzL2KiTJMrFXGfNbAClZyvYpn1SfErSL2nxhis6tzff+DXZQcI2SJr3f9dw/ynrsIOUIoANj0IbyOAsIcoKzGwvYPYTRda7SP6O9ZWEWaGhyOoMFFYd6Jz6AIxX23QzLVcLgjlTYd198hzLX8eXOhnJwjH7uMNbD5FQLCXFh3MKCgv0PncDvTqAFFeDqK5YrQG1V73VHP4QKC7cxI8ySpSSDcfHFv1b6OD5QYN99TTeSGmWJwTHaWzaWs3hr/cse1NUSszu73L3nOk60oBwn+HpnA7utgO5OcKYFHdMC+twCtvbxsVuuWY865SRB3A76GJ/v4+FCw4nxVHNrSbJMIGN+CyElS8k+SZAky+MDBdZNYPGozRcm6dw6fe+ft4Nia1QRkvvd0adrWPyBddlBSgCwh+0twLoP36TfUoGAsu69VoDH+/BABy2oAJT3HxEUr7+Y/Yg3132LHdh4+Ce40HXw8b0CQEXrLztvVl7v5V/06i2qqFfWApkpS9m7t1Tg8VZi8e/AuDZhms5Paiq/GOnBTRz7V/lxOq3B6KaMt2vgcBew5jqqthJnB29znZqCbTXvGjnicupjbAbmrubajeef7txNcKatOZBcvWTMT8b8lkRK5zL7VAxPlt232En4fvHzGXL6JNUanrzMzQZ8r5Sc1mMHRdaocgRk6cgtc1NTlZrtIDkAcJTixQrc+NrE4S+x4xQLYAdvX4WF3dGnMLsvYie1tQ1vmewa+ByNaoOo21BCguxjbA6xPZ/BArDzpvo01YJjnNnOQQRP+P1UKZ0lFsioYSJflnJ3d+YO4cXdHEeiSzEP7d8zaJomfi6WKLlPDt33+CDBMKO9dKJ3mSAhk8Ex2gkBbXKmqx72XisIO4c4nTc7QMjOypEspw6M6xbu3XnTNIzubKhHUy+DVxY3Y/J1A8cNnr7PM9LDqfNbHCmdk+mTJNKytF5qsTux2w8sUOv0vZJyWp8dFFijCpMgS8f3P//cCwfe10b1QGNNdpBcBKhuB3Z5/pnNyVUHxrX7e2ehc69yz8s/TdDRp6Hb9XttKBlKLhTgWXzwzlM16PM+xkfSY1kzzmIBC7MM59C/7EFF1VSkE4E/zmKRXJ4s5RBzpxwcAhcaNKeN/qWJnjkGnPSVu0uf1V0UOGilyyhSPFMt0BH0WyqQJDM3XXZV9/jG6O0ieyfgGHTSHMu2kS2nBfRPYT1d/POAzwdtsdMq2Ga44MjG8qL64pdOpAAqJ0BLnV9ZpHSuWJ+yyJTl/BseBm20uwY6V+7vXd9TJgSIFK+tlhgF/Ff9vregnNZqB/JrlBzZsnQ3iMpRCzNNw1ngb4bXBlC4xmH9dpAcAFgvsLEDqEGF8L92I6qXFbCDPRjXQ+x/H0ELCsNNVQzG6O1mO4zFz2cMnWvNI2CmnYQM0E81/jn6l2LisxYkcf6D8HlaGdIWJglZFiHaz8lsicPztkj7XaWkzyrjpqlSDP7qDJqnwE4Ku1Wh2MpN8d9EZeZG8KN6U9ddA9MjYYhfUgPFPsbnTjBZdlwyckqoki7Lwjjx5dc1MD03Mf2wrgLdCc40fxz9SxOm2Uo+V02d3wJI6VyBPuWQLcsF9E8Qi4ZpCr8IG8ubJeyj/RKDCweCHX2KoTnFR6f2p37fW0RO67aDH3JrlDTZsnQJrxEL6PNjmEeiVmBRyNes3w6SjwDmT3iGgvbRNm5DZ3vBiGqBp9+ActDD9lwLOQKR/gSkzySsF9hQ0eu+YBQcXMp52KZxH9Gz70apEVjw8afKlbqJMqv/nDPG/AnPWPORS6EilXjhaVHSMiZFahCk8R5vsjBLjfbdqN7G8qKuQqEEOTmLv303qvn4Bhsv0M0q2qonIxZqTUrn6ikkQ4osF9A/+Uc3mnYCHdFUfTkWxhcsVwraPae1NfvezKLwtduBzBpVnpgs07BeYNdQ47AOO0h5D4CInNTfScUTNpbOufSPXzaw+4z7yDOzrV3AvvuGRfcjPm8B2OrBNHvhJg6GMM2h8wjbE57P29j5/i3kNDsf9qHAitx/s/i7+ozdzmBc8dnn4L2cc5x59NnZj9iXkqXMgjbB/WMP6us9APEUVijqd4oZvd+EjoeK4gQxqyW+FXJkJR2fExXbd98ii7Ff5NQzTYSl2RY7r8KPAwZ2M5nvwXCd3jqK5nw5idRuzQFOlBqL4GSI7UZT57eW1qR0rrbspERxl303qi0b552Lzzfje8Ny2pwd5K5RNbTmy1Ic3+y/CXlMx2dWr3FwqdMOUp4CcB5x2O0FqoZFyjS4AxWPsKjoXfoRkDgDdxzPXMeJFoxkNWjaCMsVvJ2JWLDEIw7KwWc/6nbOhtZaUZmHs7BnLqxuyreW5579BTIWyUnLUo7JfXR+nXPGQNuTewvYauPYvaZqStkLbiQXVke2ZXWg3xMLcnwRjO6w/CI5rJYYaVr40c5cXIeW/fiPOEZag9NLkFOsajzzZUwFceyijiK4fBzZJthE+vxWQErn0vtUmFxZOoW4yDpSkkfoYFBm6/S9yXLaqB3krVEViMtygW/fI7JMWDfLsR47SH8RECD5NqNIoULuzqnjncdE7xV9s9GmXmySTMKbmDxc5U14O1SAwv0v/EKXdFkWac8jIYgJzclqidGnJxyHXuQhS/4LP+JvQ6zgJEq8zCT2UidJMt/I5co0K3gqmG2QlVP4OhvLi1tsnxeduyQdjwc66W+yLDiHCXJK9Ds1vaxGSpayfcpFTpa1+cGkoC9lo1JLmzJy+gN2UHyNSqCCLEvpyobsIDsAIIQQQsi/Ev5nQIQQQkgDYQBACCGENBAGAIQQQkgDYQBACCGENBAGAIQQQkgDYQBACCGENBAGAIQQQkgDYQBACCGENBAGAIQQQkgDYQBACCGENBAGAIQQQkgDYQBACCGENBAGAIQQQkgDYQBACCGENBAGAIQQQkgDYQBACCGENBAGAIQQQkgDYQBACCGENBAGAIQQQkgDYQBACCGENBAGAIQQQkgDYQBACCGENBAGAIQQQkgDYQBACCGENBAGAIQQQkgDYQBACCGENBAGAIQQQkgDYQBACCGENBAGAIQQQkgDYQBACCGENBAGAIQQQkgDYQBACCGENBAGAIQQQkgDYQBACCGENJD/Zn7bNTA9b0NxPz/OoJ1OIhd1YFwP0d5yP1uYaWeYpH6fdh2AwRjmkep9tO9GODEWsmOpnY4+xfBACfzGxvLiBPo88KtIn70ry/Q9eq/VEqNPOtYlgf6lid6u/zmxz3X3KWuOE2Rp3Wg4uyrbWHSM8fmLzXGl8eXZQviaqmOTs886iNtwvO8y18jQx9jsIaQFaxsXSuic379y46tLTpJEdSRHJ6v0KepPQgTnUKpPBahlnZIny6dIrRmFKL6+Fll7/vPu3bv/JX7jCPXZUwRH8UPCdRr/7f9OCCfYSXHN/vecTg3GMI92fGE57eMPBwFBxOQiPKGDMcwjVFNgwBnvPh68eyfJuz46+hTD9w/+Yuc4wpDh19ynuG7kkNQn+dZy+yrm8zmmq22UCAIk9NXTn7tntA/Kjityr0rORY7+pYkefDkmtS1zTcnW12oHMXJ0LujgSy+Sa5FTYmsYmz3A62eyfq+3T6IPO55dyPVJFqm+1raWFNfFSrLM7Xd8/S061pQjgA6MQRvK4yyg4BOc3VjA7iGMrju4z2hvWZgFhDE5ncGCikO9Iz1OoI/xkQr77osvpLmOL3c2lINj9AvcaZ0sjFtYULD/ocjYJJnrONGCSjLB1zsb2G2tZfwL4wRa0OCuvmK5AtRWoLUa+9TRp8UW/7Q+ybUG4zrPUDv4+F6Bffc10J8Fvn23ga1t7BVqr49xntENxiLg0k6g/yx08+R7bWjxB4DJqRaSY5IdyFxTsvW12kGMLJ3rGvh8oMC6mcEqefv1ySmxNZxpwSBlAX1uAVv7+NjdTJ86+iFUWLj17EKuT1JI2YGEbUoh41PilJelRL+7H7G/ZWM5C/Rn/g0PK0B5LefBUo4A9rC9BVjz8ED7LZEq2//QAeYL7L1WgMf7SBq/JdJ37z+ig4VcRNd9ix3YePgneLVw0ICK1gDAulJkJXj+ucmMxA7edgEEFXydqd9Xb9EBcuYtoU+ZJC228ti/fhT7A9cwrvJbE4bij3bvtQKsXlCoxUELKizMshzM1Rm0mnS431KBx5nE4h9ND1ZNR4aJyq7sNVLE5qRa6jOPJJ3r99pQVkt8vQKOj2ppxiNJTnnHVxVaw7aKXPutPnd9HB/I2r1cn0J3l7EDGduUoYBPSaLwmiHd76jcxNptf5fzYMkBgLsge2Gum8afYfmqh7YTXbx9FW7ITSvP7nbQOxC7KLf7ysEQpjl0PkV2guo2FDzjyRuEmyaawTrqYedN/pK0CfqXPairJUYxR66iZ5roOZ/qckR7rxUAVkAu8FKU9t0IWuDsfDxAxXNEoTh4fMqUdGKfJO/9/HMPY3Pon+/mnLd7GaaisnT1SR3DPE+rKVlAnx/DPOrBvH6L0Scd0Kfo7QLWTbFUZOfNDrB6APQpzMD533rOdjuO3QHGtZlxNuinXoN6Yp5PYaDiQtJ9ix3kBGYy10i15e66w3PSv/wMXGnQQkdxQ4wHi0oyT9W5wRi9XRvLCx0L9HFcvokwiXJyg5vIUeqlgc68Wk1Q580OABsvWSmMmuZO7P5tLP/J7rFUn+J/JWUHtdmmlE+Jk75mZCPV77mO256J3pGJ6ZsRTgyILEWBgCc5AFC3AwUa/pnNyVUHxrX7e2fBcK9yz5E+TdDRp4GbLaB/SohszSneOhGtUIBn8aV37qxBn/cxrjnSLkq4qMN1AAGiO7uugen5EOblXrVd+WCM3i4i0bM4KsHjLKx0V2c4K9+SuPNlTxjrLKPPiX2SwHEoylELM01z+iqc3PDaAIJBQKQoy7opXlsh9ElBrzWDpjmSceZlqsOX3dUZtCuh30PTRNnCoL3XCrDVxiFG0LRgQaOJMeoOAoTdKQeHwIW/AAqbGgNO/zv6oXA8IT35imV36GXwyuEcD2Y6GZlrsogUAoaOIgWT05PwL67uYR2p5TYLuTrXgdGVzboUIVlOIgixsbw4Cx1P6adVd7EimMoeR9W58+/z8X1eW7J9SkLODuqyTWmfAok1Q2Z0kv2enGqYOMGvaUJkgz/Je7DkGgDrBTYAqAam5iFeLsKCEpHhD7ysAGAPxrWJw1+j8IKXkUYVdQL+ucji57M/wPNt3GrhHcpmU+5hFsYJNE0TPxcP2D83Mc2qb3BqFyqdWXYNTI9UYLXEl6AROgupdV9vMVTH2fmGajBk+1SAsGNNOfu7OvPlrc2AIxPmZRlJhmtTMNdx+wgo7z/Cm73BGKa7S9Y0zB5FJidzftOIyqV0/YIc0bmazJaw3eMy+A5kaJowvR+RMpc9H0yif+k+wZAeKMlck404J3b1YIYeTHMctqeugWlobJEnB4qQo3NJtU51kCYncQz1gG+1BhviTFmJ2oVknwozOBZBTNaGQrJPWeTZAYAabVPCp6DEmpGGRL/7l6ZTPC9019rtwTSnXp1eHskBwPwJz1DQPoouxsFd/wJPvwHloIftuRaKgESaOB/PEVkvsKGi133BKLgDcxa8v4ZChYnOOXlRvPN9C7M1PgLo4kWr0azCJvpkvcB2z7ASiReeVuHHr2CBn1t46qfwJqcaRnc2lIPPNbQn7MOtqVg78yc8A84O2GG1xCiwkHo/JZ2teyZt341Sd04y1xQlVljs6uPjLLRwly3Mi7QW0bki59jyrENOGa05GZVoVmFdfXIzJrfZxXkSfSpMkh3EqM82wz4lqT91FrNH+u0dS7lr9ARn2gjLlYL2wJAaW8pTAM7uPrHAzy/W+/HLBmDhPqQsfbR2Afv7t/SFIrqTdSYt+jedD/tQYvf/C8gpEisfwQci4qRUtJRyF2Aw9hb/9EUhp08yOJWpsX6r21Ckzv6eC9UcLP55gJ0QgIUK/BwdjGaXvGxUASb3VoITEGeU+J1dU1GcCe4fE3bxkfHkOqaC+Fmi7Mcc866pgjdXjt5k7y4rtyZ0zilqFjVM4WyDeiQ+jwc5t4qQJ6d6586pXs8pIqx17gbHIouQmqmU61M2cnZQl21K+ZQsChYWy/TbPToP+0YnSJAkJQBw0rO7vYByu+fPflQnHnFQ0bsMpiR6kcc+ojgLilNN6wwXX6M7L+dsqO7IuxLOgmllFOK4hpR1Tcpf+gUcqQutK6dh2Ok4RYCFcFP6OY/K5fdJBvF4XXhnHdentD4W1oH5NzxEo2CnfsGbFycoUY+CqWVn51I0eLu6j9mBd467hkVqch+1TefcNmBTnm1ey+0EMnH0PnNxkLmmFI4OBv1FLHOU8PKgskR1LnQ8EM42WDfic6HdsoSckufOKQIsOByR0s9ZaGudO9eGgv69RJ8kkLGD2mxTxqckIbFmJCLRbxGUhK9B18Bh3gY8QPqLgJzO57+ZL2J8scruuHHKvGQj67rNkPQGw/hCWNeb5OJvkAoQXaSjby8r/Bhg2tsZBa7cC/VJptXI/aL6FH+TWBUnIfMIXIIcSr8JMKrnyVX5iYtUmTaldCCpzaIyzVpc3XvJXCPZXMKb+ZL8TtxXjPDSlXjhWIRyOhd9mY10awXkVMMjnClvKQUQ0Lka5y7QZqrvlupT8fY8pOyg7IYmb07k1gx5JPode6tiXW8CJIQQQsi/Fv5nQIQQQkgDYQBACCGENBAGAIQQM+lAEAAAFXlJREFUQkgDYQBACCGENBAGAIQQQkgDYQBACCGENBAGAIQQQkgDYQBACCGENBAGAIQQQkgDYQBACCGENBAGAIQQQkgDYQBACCGENBAGAIQQQkgDYQBACCGENBAGAIQQQkgDYQBACCGENBAGAIQQQkgDYQBACCGENBAGAIQQQkgDYQBACCGENBAGAIQQQkgDYQBACCGENBAGAIQQQkgDYQBACCGENBAGAIQQQkgDYQBACCGENBAGAIQQQkgDYQBACCGENBAGAIQQQkgDYQBACCGENBAGAIQQQkgDYQBACCGENBAGAIQQQkgDYQBACCGENJD/Zn7bNTA9b0NxPz/OoJ1OIhd1YFwP0d5yP1uYaWeIXgUA/UsTvV33k43lxQn0eeCCwRjmkep9tO9GODEWkkNZB9GxAdaNhrOr8FXhcZXtdx9jswc1+KtEeddERNZA8tjCfUuYM2nkZFkbUd1N1Mu6+yRnC7l2kEmCngQI9T86x6slRp90lLaoDPvs6FMMD5TYnxSVZ9SWQsTswZd3lXmTst+aZBmXUxWbym0tpt9p/Y71q9T4ivmwanYAKR9WTJ9ykPIpdSEjS/n5TeM/7969+1/iN85gnz2BOh0KdcLpwG//d0LgUcEk/W2EwRjm0Y6vBE77+INBQP/SRA9+n4WRIKSoHX2K4fsHX+iOUlZf3CRkVicp/Xbnc3m3g3Zk7EWQkWV9CNnBG4ujpwgbR619ktLXNc5pov3s48EbS7W2k+3aJ2YHtSL6vhMLOIDl3TPaB+XtTcp+a5ZlrP212UGstUQ7EH14Dsxt8nXFSZPTmuxA2vfG9SkfOZ+yPmRkVrxPKUcAHRiDNpTHWUCQE5zdWMDuIYyuc5X+Ge0tC7NAhyanM1hQcah3Ap3K63gf4yMV9t0X3wjmOr7c2VAOjtGXGMg6mJxqoT4vjFtYULD/oRP43Qm0oLCvvmK5AtRW1V5P8PXOBnZbmxl/Qr87+lQskNoZvlW8vYws62OCMy3oBBbQ5xawtY+P3XX0qY9x7uIvYwdl6cDoqsDjbch+TrTgolJenzr6NHPxXzcd/RAqLNy6sh2MxaKtnUD/We3eUvZboyzj7a/TDmKtJdhBBx/fK7DvvgbmdoFv321gaxt7ldpLktMa7UDS98b0SQo5n7I+ZHSueJ9SjgD2sL0FWPPwBPVbIiGx/6EDzBfYe60Aj/dhpzBoibTF+4/oYIFF9yP2t2wsrzImu/sWO7Dx8E9wQoRiAipaAwDrShWXQHm9B+TFV6/eopN/VT6rF/wI/SKe9qnzqMT+5be2ME7WHtkmybJyajC9NWyrAHLuJTW/QQYtqLAwy5oDGTsoy+AYbel77+BtF7ky8ElaIDZJH8cHkfavzqCt2x9I2W9RWabz/DPnyKHWdPMzniJ9jur83mslwfeUJHifddqBQ9CHxUnQp0ok+JTo3NUZ7EjNSXx+00jOADgL8ovl/qID49rE4a8ZlitXWTp4+yos7I4+hdl9wewuED2q21DwjCd1DNM0vZ+pHoh43Wu8TvcxNofYns9gAdh5s4noWILuW+wgT8FE8ITfT9UWz66BzwcKrHk4ldO//AxcadA05+fGgnIwxHhQpTE/m1MsKq5AoiyFnondpjvGL0DPQFUN6LzZAUI6LdsnyXuvXgB9GtLx0JzI2EEpnN3/6gHfcox+77WCIs7B+StsbwHPP/cwDvTbvE6Yk602hmnjL4nYrUU3B+tEzn7LyTJO/7IHdbXE12BA0zUwbd37Nq6NsFyp6CXJvFhrTqY1vNvX5xaw2/PmVGR8EPM9hUnyYWuzAzkfVqc+JfmUjj6FeYSA/xph+aoH87JirihlPQiTNL/ZJGcA1O1AoYN/9nFy1YFx7f7eMRT3Kvc89dMEHX3q/V4ISUGvJVLJ7mCm50NMdeDEWDjXPAe+28fDhQZ93sf4SHIka8c5FsnZ6fUvnWK5WZmIL1L4ETqCEUxOT8K/uLqHdaQ6QVJBpY5EqtbNplK8ybIUBmxjeXEWdlCnFY3VMR48zjIyCXLzm8TeawXYauMQI2ian6Y2j0yMIdKGMnZQbmwfsb8FWDc5znowRm8XxXc+TlCkHLUw0zSInoss1PDaAJz0eSxb5Ix/+qZKdsrJAmbOW71I2W9ZWTqEC+5sLC8iczfXcRIa7wLfvn9G+0BsqopJM5IxXC0xis7H1Rm0K+F7hqaJatmGbB9Wux0U8mE16lOiTxHZhXAfFtDnxzCPROq+mEzz1wOp+c0gOQCwXmBjB1CDi7H/tbtDelkBO9iDcT3E/vcRtGDDoVRFuE4Acx23PRM995jg5zOGgDOZwEw7CQkqlh77A/Qv3WrjdAVzI+dQLUMhJjjTAqWTlyZMsxU2xlglqsAu01woldoXO7zW+osO02Qp0o7L3J1swdYwPncW9oxxycxvJqslvgT1/+orlt0h2q2g2efYQYlm+702lOgOMkrXwPRIjfexAMlOTZw1LpLm6+oMs1a1sRU72qiOlP3WIMtQsNQ1MD03Mf0QDpQyq9eLtQb9UzDInmJoTvExeKzmLKL2nfDh/UsTPdPEYamjRQkfVqcdFPFhtelTik/xgmUTZmzjapc4LpKRpcT8ZpB8BDB/wjMUtI+2cRsqfgnu+hd4+g0oBz1sz7WQooj0WDY/fgWOCawX2FDR675gFFrshED/NK4x2nej1OpSL6p/nNV2Hh8rqHQX/8dZID0ojklqaC1W5LkOZGRZY2uBxxfTF/b19EnYh3uWnEbIDorSNXCYl6r1AkYLszqrla0X2O75ZxalC8kSChvXiJT9rkOWCcXOQh9tLC/8o77RXakQP8bC+ILlSkG757XmpI39xX5yKtpTDj5X9gXxovBkKtmB31qGD6tLn/J9inUTOKL1fqrXMcnIMj6/2aQ8BfADLyukFPj55yc/ftkALNyHnGYfrV3A/v5NpAb/eYDtFssECBWZzJ/wDP9vXDof9qHE7r9Z/F1BRjQ8GHvOYx27Zy8Dom5DKX28IN1a5XPNNPJkWY8T8FoT1cY5RYRS85vD5N5K6LeokXHPkqXsoCD9XjvHPgI7lbIp3fk3PKwS6nAcXUyvqXDGH/UhsgyORUbmfjOPwObbbw2yzMLTAVdu6w18vDoXZ5MVzbIufj7X2p57/3XYQUJrcR9Wiz7l+BRnHVt3zZpMRly2jiklAPALQ/xCHhEpBhVTPMKiohcocBBnaIFCjPk3PKwUtAeBAhbnDM3fuYhHHEIRp3PG8ueqj+E5hszFwU0J1r74O8oWTO/Gdl3ZL4UphDOOtclbQpaePoWKnTowLosXP4mUfs4TBDLzK8PVfcwOvHoGN1iTsoMCOLv/9PlynVXVBUs8EhbeDcZ9QRRP/qWCVbewMedoow6k7LcuWSbg6KCvA/HMUdpLlsog5iXqnwH1aBx+VE+ysDSbBB9Wtx0ESfVh9ehTvk9x17HqRdlxEmSZ2kf5Yu70FwEBkm/miyxCiW8iij66lizEqKKv9U1xuWQtrm7/E97EFKBQ/xPeapUk77iMRnjpihqMIotY/IwxYU5S6g0AFAx4ZGTpfpbTlUwSZOnh6WeRPskQvZ/MmwfLP+Io9WKetEWjRLAavV9UN2P6VCUgzn2hS8bcFXoTmpz91ifLpPaS5jDBp863MTxCsQAkyX6l3uaKcm8ClPRhddmBlA8L9KvSeiLlUwSJ+lLUHmRkKT2/6WQHAIQQQgj5V8L/DIgQQghpIAwACCGEkAbCAIAQQghpIAwACCGEkAbCAIAQQghpIAwACCGEkAbCAIAQQghpIAwACCGEkAbCAIAQQghpIAwACCGEkAbCAIAQQghpIAwACCGEkAbCAIAQQghpIAwACCGEkAbCAIAQQghpIAwACCGEkAbCAIAQQghpIAwACCGEkAbCAIAQQghpIAwACCGEkAbCAIAQQghpIAwACCGEkAbCAIAQQghpIAwACCGEkAbCAIAQQghpIAwACCGEkAbCAIAQQghpIAwACCGEkAbCAIAQQghpIAwACCGEkAbCAIAQQghpIAwACCGEkAbCAIAQQghpIP/N/LZrYHrehuJ+fpxBO51ELurAuB6iveV+tjDTzuBe1dGnGB4oSGS1xOiTjoX7eTCGeaR6X9t3I5wYi8Q/3QTxvttYXpxAn0culJJTHn2MzR7U4K9S7tO/NNHbzelTHhFZA4B1o+HsKnph9vzKsllZRvuMuK651KVzUXmmtVcTYR1I6XcdfYrORwh/DqXnN4fouELk+J9K/kJK71wbLWlzkrIM4c1hObuLt5l0n7i9JPuCPOR9WC1I+7Bg30rOHSApyxqRsd+KffrPu3fv/pf4jXPjZ0+gjgBDE+oozm//d8KA8zoR/zsx2B1/cpz28YeDgCDCySGsQFJyKkPyffqXJnqvfEVI7FMZHGULG1DZ+c1ns7J0xoGkgLMGnesamJ7v48EbS139ThmNPsXw/YM/lqS5W3OfxPw9p+pBbXoJwO37Tk6QUzYAkOmrq/fLux20axtXsP0kWQYX5jI2J+QGTy+S7aB/aaIHXy/qm7v12kGMRB9W19zJybI2pOy3ep9SjgA6MAZtKI+zgCAnOLuxgN1DGF3nKv0z2lsWZoHJnZzOYEHFod5Jb3VwjPaWjeUsMJAjFfbdF39i5jq+3NlQDo7RlxjIJlgYt7CgYP+DOzY5OZVjgq93NrDb8sc/GKO3a2N55U/uwviC5UpBu1dRSldfsVwBasu/T+n5lWCzslxAn1vA1j4+evepUefmOk60oFNJmLsaWRgn0IIGnjB36+1TH8cHCuy7r6kLUnx+y9PRD6HCwm1scXfncIblquTNB+Pcxa6jT8UCqZ3hW8lm0kmXpWd/N1bJe09wpgUXwyQ7ACanWmiBrm/u1msHMRJ9WF1zJyfL2pCy3+p9SgkA9rC9BVj3YZXst1QgoBh7rxXg8T6suIMWVADK+49IVp8OjK4KPN4Gdn5vsQMbD/8sQtd9fK8AUNEayA1mUzz/dPspJ6dKrF7ww/ln580OsHrAt6Cj6n7E/hZqMzL71w/v3+XmtxgblSWe8bRRndvB26ghdg1MTROm+3NZo2t89VZiThL6VJD0BTmOP79lyVog3X78SPxLqbu3Ir4ogYVxsrYdbFZwkxdklUfBtipx1eu9epoL+DBBB8Z1wAZME9OKG4ogQR+2zrkTJMkyOr5xjQGQjP3KzS+QFgA4zvHFCzzFgA5/iUhbKEYHb1+Fhd3RpzC7L5jd2cDWNhLVZ3CMdtTRq9tQgs4ZfYzNIbbnM1gAdt7UpxxV6F/2oK6W+OqlWWXkVJKugc8HCqy5v9Pbe60Av5/CKezzbdzeWKjq2N3dhu+ISs6vJBuVpbdTDDjTNevc3msFoYADcOZLHDFomiZ+7lsYVw42RPAU0g3ZPhVGLEyxwDB6VXR+SyIWyGigBt8+bqocRbk6jjU67CzSZenK70vNx5+dNztAyM4S6L7FDsK2X4oEHwYA/cvPwJXm28CNBeVgWNkO4j5svSTLUviRNpYYuePT7tGqIdCXsV+p+Q2QXASobgeKCvxzhpOrDoxrrzvC6bhXuedInybo6NPUBvstFYg4BtHpZ/HBO/vQoM/7GB/JDWRdhIubbCwvAsosJaciRIpoQulw4azwO9Cv9w8YaToWgzF6ZZqLFJmEnWm5+c1is7KMFDatlhgFHMNadW4wRm8Xkd2bCELwOAufU1+d4axic/1Lp7hplrEUJvapBINWaluZ81sKJyPzOIvt0Pu9NpTKAYbQceXgELjQoDlt9C9N9MwxsM4CLyBdll0Dh7uAdVPz2bKzICfJ08c5ioOFWamFNMuHCSanJ+FfXN3DOlKdoLtgm5k+bI2kyFLYooVZ6Ax+grPTiu3J2K/U/IZJDgCsF9jYAdSgY/S/diPDlxWwgz0Y10Psfx9BCypMLO2DVMVe/HzG0BmkeQTMtJPQIKunEcuzME78vnYNTM9NTD84xUaScpJngjMtXPBnmi2n+GeBp99DtBFejH1K7OyuzqB5xtnH2DRhttwikx/F5zeHzcpyAf1TYMHXpxiaU3x0znrXpnNdA9MjEeSGdm/Orip6xFGVjj51HMOXdKNP61Px1pzju2QHkzm/ZXBrha4iMnNrYSoHGIKo7CazJQ7P2+IYqGIGI500WSbVwtRBH+NzZ2HPSIn3L0XQXH4hzfJhDilPQ9hlmsv0YesiTZbOJi0nO1YYKfuVm98oyUcA8yc8Q0H7aBu3oUKE4K5wgaffgHLQw/ZcCxm5SFUkdDEtardeYENFr/uCUUhRhNP8a4gWiUnJqTzRgrsfv2xgt4fDX6OQgovdbOXWIgV3xee3EBuWZaxYch065zm26A5gPXg77mhWYV19ihXvZlC5iDehVijz9zUyf8Iz1nz0mCbLIjKWJvgIXPrC7j6Cad+Nags+YkXDrj4+zvwjAE0cu9XQWk1Fw1nIybI2pOy3fJ9SigDF7i+5AMw/j/vxywZg4T6kLH20dgH7+7fY84qHSb8HPIOLftf5sA8ldv+/AG/3Kyenqri70cXPZyCtcK22qNPPJBSa37JsWJZeJqF2nQtE4Emp47oXlcHYW/zTdzs5fSqEs/BGi1DzKJEpApBcKwQEil57gTN7sWtVDoYFC8omuH9MqC9xgsD1ZR7TZekWvbbPAzUJRyoAFb1S9QkdGNf5z7/7maT1PHbtyVLdhpJ3XFW9tYp1LmnkyVJsmuSKcWWQsV+5+U0jJQBwHifY7QUKM9wzTD/yFo+LqOgFChzcM5BoIUa/JwaSXKAhHnFQDj77kZtznrGeKtiSOE7XL2qRk1M5nIkNZkyuvopd7MDwFEwUvtRgUE6aKSjvIvNbmI3K0k1tBvtdp865RphlqG57kWKnwbh48ZObEsxc/GX6VAB3QZ5LZhFi81sEd4FMyBbOdZxogQIyTYOmjbBcicVL07RCC9jkPqpzTgq+hgLGVDJkOTmNjk0UyYn3AGjQCs6l0PucxcGZq/oX/wQfZr3ADlWpJ7w8qCwJPqxOZGQ5mS1hb7UxDBX99TEuXAQoZ79S85tB+ouAAMm3pEUmMONtRXkvWIm+Tazc26jqIuFtcmmTUcfb5BLeapV8n3rezBd/41qaEknMby4blmXSGWPKYlmHzmW+7TLabnSeC78kJUmWPm7/C/VJts3UF4wUmF8ZUl7okte//e81vcUxKp+sN/jVLsu0/qG4PBN8iodnx1kLcMGFRdKHxW1uhJdu8fmT8mF1zZ2ULL2eRWRa3Bak7LdQn5LJDgAIIYQQ8q+E/xkQIYQQ0kAYABBCCCENhAEAIYQQ0kAYABBCCCENhAEAIYQQ0kAYABBCCCENhAEAIYQQ0kAYABBCCCEN5P8DH0akjENeqdQAAAAASUVORK5CYII=;strokeColor=#000000;" vertex="1" parent="1">
          <mxGeometry x="1620" y="560" width="1190.7" height="800" as="geometry" />
        </mxCell>
        <mxCell id="QTnUCfMTTWea07dF9Dti-2" value="" style="rounded=0;whiteSpace=wrap;html=1;fillColor=#FFFFFF;gradientColor=none;fillStyle=auto;strokeWidth=5;strokeColor=#000000;" vertex="1" parent="1">
          <mxGeometry x="1770" y="560" width="390" height="110" as="geometry" />
        </mxCell>
        <mxCell id="QTnUCfMTTWea07dF9Dti-3" value="" style="rounded=0;whiteSpace=wrap;html=1;fillColor=#FFFFFF;gradientColor=none;fillStyle=auto;strokeWidth=5;strokeColor=#000000;" vertex="1" parent="1">
          <mxGeometry x="2160" y="560" width="390" height="110" as="geometry" />
        </mxCell>
        <mxCell id="QTnUCfMTTWea07dF9Dti-89" value="" style="edgeStyle=orthogonalEdgeStyle;rounded=0;orthogonalLoop=1;jettySize=auto;html=1;" edge="1" parent="1" source="QTnUCfMTTWea07dF9Dti-4" target="QTnUCfMTTWea07dF9Dti-5">
          <mxGeometry relative="1" as="geometry" />
        </mxCell>
        <mxCell id="QTnUCfMTTWea07dF9Dti-4" value="" style="rounded=0;whiteSpace=wrap;html=1;fillColor=#FFFFFF;gradientColor=none;fillStyle=auto;strokeWidth=5;strokeColor=#000000;" vertex="1" parent="1">
          <mxGeometry x="2550" y="560" width="130" height="110" as="geometry" />
        </mxCell>
        <mxCell id="QTnUCfMTTWea07dF9Dti-5" value="" style="rounded=0;whiteSpace=wrap;html=1;fillColor=#FFFFFF;gradientColor=none;fillStyle=auto;strokeWidth=5;strokeColor=#000000;" vertex="1" parent="1">
          <mxGeometry x="2682.74" y="560" width="127.26" height="110" as="geometry" />
        </mxCell>
        <mxCell id="QTnUCfMTTWea07dF9Dti-6" value="" style="rounded=0;whiteSpace=wrap;html=1;fillColor=#FFFFFF;gradientColor=none;fillStyle=auto;strokeWidth=5;strokeColor=#000000;" vertex="1" parent="1">
          <mxGeometry x="1770" y="670" width="130" height="100" as="geometry" />
        </mxCell>
        <mxCell id="QTnUCfMTTWea07dF9Dti-7" value="" style="rounded=0;whiteSpace=wrap;html=1;fillColor=#FFFFFF;gradientColor=none;fillStyle=auto;strokeWidth=5;strokeColor=#000000;" vertex="1" parent="1">
          <mxGeometry x="1900" y="670" width="130" height="100" as="geometry" />
        </mxCell>
        <mxCell id="QTnUCfMTTWea07dF9Dti-8" value="" style="rounded=0;whiteSpace=wrap;html=1;fillColor=#FFFFFF;gradientColor=none;fillStyle=auto;strokeWidth=5;strokeColor=#000000;" vertex="1" parent="1">
          <mxGeometry x="2030" y="670" width="130" height="100" as="geometry" />
        </mxCell>
        <mxCell id="QTnUCfMTTWea07dF9Dti-9" value="" style="rounded=0;whiteSpace=wrap;html=1;fillColor=#FFFFFF;gradientColor=none;fillStyle=auto;strokeWidth=5;strokeColor=#000000;" vertex="1" parent="1">
          <mxGeometry x="2160" y="670" width="70" height="100" as="geometry" />
        </mxCell>
        <mxCell id="QTnUCfMTTWea07dF9Dti-10" value="" style="rounded=0;whiteSpace=wrap;html=1;fillColor=#FFFFFF;gradientColor=none;fillStyle=auto;strokeWidth=5;strokeColor=#000000;" vertex="1" parent="1">
          <mxGeometry x="2230" y="670" width="60" height="100" as="geometry" />
        </mxCell>
        <mxCell id="QTnUCfMTTWea07dF9Dti-11" value="" style="rounded=0;whiteSpace=wrap;html=1;fillColor=#FFFFFF;gradientColor=none;fillStyle=auto;strokeWidth=5;strokeColor=#000000;" vertex="1" parent="1">
          <mxGeometry x="2290" y="670" width="130" height="100" as="geometry" />
        </mxCell>
        <mxCell id="QTnUCfMTTWea07dF9Dti-12" value="" style="rounded=0;whiteSpace=wrap;html=1;fillColor=#FFFFFF;gradientColor=none;fillStyle=auto;strokeWidth=5;strokeColor=#000000;" vertex="1" parent="1">
          <mxGeometry x="2420" y="670" width="260" height="100" as="geometry" />
        </mxCell>
        <mxCell id="QTnUCfMTTWea07dF9Dti-14" value="" style="rounded=0;whiteSpace=wrap;html=1;fillColor=#FFFFFF;gradientColor=none;fillStyle=auto;strokeWidth=5;strokeColor=#000000;" vertex="1" parent="1">
          <mxGeometry x="2682.74" y="670" width="127.26" height="50" as="geometry" />
        </mxCell>
        <mxCell id="QTnUCfMTTWea07dF9Dti-15" value="" style="rounded=0;whiteSpace=wrap;html=1;fillColor=#FFFFFF;gradientColor=none;fillStyle=auto;strokeWidth=5;strokeColor=#000000;" vertex="1" parent="1">
          <mxGeometry x="2682.74" y="670" width="130" height="100" as="geometry" />
        </mxCell>
        <mxCell id="QTnUCfMTTWea07dF9Dti-16" value="" style="rounded=0;whiteSpace=wrap;html=1;fillColor=#FFFFFF;gradientColor=none;fillStyle=auto;strokeWidth=5;strokeColor=#000000;" vertex="1" parent="1">
          <mxGeometry x="1770" y="770" width="130" height="110" as="geometry" />
        </mxCell>
        <mxCell id="QTnUCfMTTWea07dF9Dti-17" value="" style="rounded=0;whiteSpace=wrap;html=1;fillColor=#FFFFFF;gradientColor=none;fillStyle=auto;strokeWidth=5;strokeColor=#000000;" vertex="1" parent="1">
          <mxGeometry x="1900" y="770" width="130" height="110" as="geometry" />
        </mxCell>
        <mxCell id="QTnUCfMTTWea07dF9Dti-18" value="" style="rounded=0;whiteSpace=wrap;html=1;fillColor=#FFFFFF;gradientColor=none;fillStyle=auto;strokeWidth=5;strokeColor=#000000;" vertex="1" parent="1">
          <mxGeometry x="2030" y="770" width="130" height="110" as="geometry" />
        </mxCell>
        <mxCell id="QTnUCfMTTWea07dF9Dti-21" value="" style="rounded=0;whiteSpace=wrap;html=1;fillColor=#FFFFFF;gradientColor=none;fillStyle=auto;strokeWidth=5;strokeColor=#000000;" vertex="1" parent="1">
          <mxGeometry x="2290" y="770" width="130" height="110" as="geometry" />
        </mxCell>
        <mxCell id="QTnUCfMTTWea07dF9Dti-23" value="" style="rounded=0;whiteSpace=wrap;html=1;fillColor=none;gradientColor=none;fillStyle=auto;strokeWidth=5;strokeColor=#000000;" vertex="1" parent="1">
          <mxGeometry x="2680" y="770" width="127.26" height="50" as="geometry" />
        </mxCell>
        <mxCell id="QTnUCfMTTWea07dF9Dti-25" value="" style="rounded=0;whiteSpace=wrap;html=1;fillColor=#FFFFFF;gradientColor=none;fillStyle=auto;strokeWidth=5;strokeColor=#000000;" vertex="1" parent="1">
          <mxGeometry x="2160" y="770" width="130" height="110" as="geometry" />
        </mxCell>
        <mxCell id="QTnUCfMTTWea07dF9Dti-28" value="" style="rounded=0;whiteSpace=wrap;html=1;fillColor=#74FF5E;gradientColor=none;fillStyle=auto;strokeWidth=5;strokeColor=none;" vertex="1" parent="1">
          <mxGeometry x="1767.26" y="880" width="1042.74" height="480" as="geometry" />
        </mxCell>
        <mxCell id="QTnUCfMTTWea07dF9Dti-29" value="" style="rounded=0;whiteSpace=wrap;html=1;fillColor=#74FF5E;gradientColor=none;fillStyle=auto;strokeWidth=5;strokeColor=none;" vertex="1" parent="1">
          <mxGeometry x="2417.26" y="770" width="392.74" height="130" as="geometry" />
        </mxCell>
        <mxCell id="QTnUCfMTTWea07dF9Dti-32" value="" style="shape=image;verticalLabelPosition=bottom;labelBackgroundColor=default;verticalAlign=top;aspect=fixed;imageAspect=0;image=data:image/png,iVBORw0KGgoAAAANSUhEUgAAAgAAAAFYCAYAAAAlTUT9AAAgAElEQVR4nOydPWgbTff2r+fl6VQYHAIm4BReF8GNKuEqoKgxbKc1LtJLVeLOqF22Ne7kVFbvQkTuFtwogrsyqtyYFF43hmAIMbjY+nmLmV3tt2Y/JOd/7/WDwC1pvTNz5pwzZ86c3fs/79+//x8IIYQQUiv+32t3gBBCCCHrhwEAIYQQUkP++9od+DfSNscY7D9hoh9jtLpWYF0O0NpYfONc6Ti+WFmDhPyF0A4IKUp2ANCxMD5poeF9fphA/xpd0qIG6CQsfHEjdW9OcWTNwrfqD2F3texrXoO19ktFnkDvfIAW5jjVTZTqidIcA0APQ9uAhgIONtpGCBfzsyOYU8Tk7F9RRN6xNtX0stjisZCNT6ocq6F3bsPYWXxWsSe8zHH6uZy+iOC2Ucm9lrNc50rbgarOvYYsvTbLtLVWO8BK5JTFa9hBuM2A/4pQja3kW1/zzlt6ACAV58m/oTBG+xwBxyYb/jOB/ll81zu3YdhDwO9k/Bpx7wHGJhaT1R/C7m5hfqYLYSZd8wqIyXYw0fUV7uYlUua4OYWeOeYemjuAc1WFA8JC5pnXHiDuJhWZmjhKNZAnPIZ+Sw548tHDMKS7QgeNSwv3AUPsnYf1sm2OMeiOYTnJBp3OCMd6sMdJtlIdbXMM401g0esPYXcHGPZnC+PvWBgH7Un2aXDew6xwn3o43E8O41bBcp2rxg6W6tzaZSkDn4c55i8aWgVbWLsdrERO6azfDrx5mUDXl/1tBbaisB74PvzGAfbze+iUGoA2rH4LjYdJIJoY4fjKAXYOYHW8xr+gteFgEhDk6OsEDjQcmG05iE/Y23AxnwQENv2Buxeg8XZXftHDsKvBvfm2ULipiW83Lhr7h+jlHlY1tM2xXPxXmcr3EMYKld1uZxtbZZvrD+Xir2DkHQtf9htwriZwyrbrIwzEvfm+AtmOcKwHI+EZzKkDbOzhUydw1Vc9tEDPrGs4aGDvY7t0+99vXGCnuRLdnVlH0IM7iovvmL8AWjPQ2tTEkR6c2/J96p0b0F7mmNy4hfuujIrOVWEHKqxVlm1YlwZwpUP/+qN4n2U/12oHK5BTFuu1AzEvmmJmr7ytKKwH/SEGH+5wqh/B/FWslZQMwC42NwBnGh5orykijL2PbWA6w+7bBvBwG3bg/aaI2j98QhszOTkNbGoA/EkQ93d/3ouPnW1swcXdP8GBtvHpQwOAhmYfwNrP9ET7SgtUZopbkX4TGhxM1pTt6DU14GGiFOH3jBYaL3N8vwAOu9W0L3Z36xuvIKqHKVe93QWqSFq+POM+9IXiUVhR3myjjWU938J2B0tlEKNj4UDutu/fjVMuUju+UmEVOlc9q5DlDObnVdvEmu0gSU7KR48FWIUdeBvZC4U+KtnKElTWg4tj6CXXxeQAwFuQ/dBbGPbezwnmbwy05M59+01gEYdMR3y4w+RmC8b+JnYBzKYmrg0bRtfG+N0pjiyISCo4OG0TDQRTwSLVgqsJnK6BrXfLp7N6RJDy9GsXQ3uwSEVGz3Pk+VLw7MVLy+Sh/W4LeLkDzDHsQOrIiaTvgouH1rVhe84x1zlTW84dYF3a2Q67P4Sx42J+ZmKGHg7zDSsFmR6LBo8AAA2GbcOQn6paINvvtgC4eM5KYcgdpfv7PuMiBfzda3g+eudfgAsduqfnSSnLQghdxcNj5vzvvm0AcCJHLiqEM4JtM+kamR59CZ7H9zA87wF5HXumzlVpB/4dcuvcamW5OtZqB0iRk/SZbjC13R9i2MffawfeGqUNYZ9k1YNVM7/L14NqSA4AtM3AbtZbjHUcXbRhXXrfS2F7V53bMCDOkdpmOOoZfdUxks7OtiGivc8LpyCU8kl86FgYn+zh7kyHOe1h+FrRvzSCRreJia7jWPQU1uUAg0sL+GxihjasjthJl52U3bcNYKOFA5xC14N1ETaG0HF8EdgZxOozcreGzQ2gsX8AnC0WpMT6jY56pkCZfhMaIsdCQDyilXUg9vluud2BXJCzxyENt3BWIlIImKATo69H4S8ubuF0tdIBbu/cSJZnkP4Qxg6KHbn0D9FasvsRfXAwCS2+Ixx/zdvYMp2r0g5QTOdWLMuVsRY7CJAoJ3Hci4dJeOG8OJY+tjirtAOxRjVgNCfQddnTxFq2auZ3+XpQ6vY+yTUAzjNcANAsjO0DPJ+FGxSR4T2eXwBgF9aljYPfp2GDCaQ/e+e2X+Cn6xM4OwZse+zXEsx+PS0GeLKJaz18Lv306/WKAJ2r4I44eoYmj0puKzLmlzm+hYwi4UyrQkI1FwBGkzlc78gFyTUe5fEc/PXyoELWgZQ7QxRnaQ1kj6N37lXRFq33EOetuvw3gQHbHob73bEwtm3Y/j+jeGGlRNSpxOcyRMfCWFaTf8vt1BPqc+K9wPYbpGR08rEancvBMp1buSxXxbrsQJImJ7mxqsxnSlZvBwCispuauH4AGh8+QVRLVDy/a1gPkgOA6SOe0ECrG12Mg7v+GR7/AI19A5tTPRTNiRSLxE/nefcZ4Vg/xfylgVbfEoJznuFCg9F5xmkwBb2uIp88OM9wvTO0lSNk7J1prZzpI54AuSNdUZGeFyFnRekx5HldbrxduYv5WbpD8x7rcW9OK4us48Ww8szzYeIHCbperqjSf8woupsK4p+1Rnfnqm2IWo3rtdRqrLIwNC8JOvd/SpZB1mwHJeWUl3XYQRr3v11gQxx3r35+q18PUp4CkLv7xAK/RbHe/W8XgIPbkLKIR3Pcnz8wwyK9Hz5vkQPxkAuP9zce7Y97aMTuvybkkwpiMQygbaIROUOLXhMKgBQZ3Tq+Ii2QO6s/2Wda+Rnh9iH4FIZEBlxPv2Z+MWdjfxDbsWpd8XnYz9uu3P2/3OGHYoS8+7aR6/pQW5ee00t/0mGxc1jNux387JXUm3yBTwb9oe/00o9HAru+QsV4i0JcI5C5GOyL9OTAtmFfWmhX5ZhWonP5Sda5dcmyatZtB0vkFNpkVMBa7ACY/XMHNyEoFLryjPuK53dd60FKACBT3TtGwOC8s5tF6lY8LqLBOF+kJLyzQC8KEoILX+NVSS4WfPFoRmP/i38s4J1Xvd5uYIYfPyN9islALqSBRxWjL6ZQ5uI2JkuRDq1w0Qgwuo3Orzz7k5XXuDgO7FTDO1bnSnzOvUvoH4r04lQtAveckur1QUQqM9vpec6j+sVfOl1PlkBC5ijh5UGqeKnMTKfXXhTbFn6MdQbzc1QHdJzeuKLYTtf9x7BGkzncjRYGQTv3igBVWYXO5SRZ59YryypZrx2oyMnz9YNwMCeLAHOxNjuA3BAGstayzwtdqXh+17Qe/Cfz/wao9Aa8iCNLqsJNeEwu6V5+KkfyN7zSM9qnxKrPQFWye3OKo1+HsLsooHDRRSFFaasofgLib8ha+ijOoiA0f7tSTkiv0o7KuvAbtFLe7ha+Z9YCvMRhKrSnpt+neO4MsPczj+ONV8EH8WwmJssgJR+58p72ic+Nov7mIkPnKrADFZ1btyyz2svlE9dsB7nklNv3xFp7BTuItrlcPum2osIye8qYO0XfmR0AEEIIIeRfCf9vgIQQQkgNYQBACCGE1BAGAIQQQkgNYQBACCGE1BAGAIQQQkgNYQBACCGE1BAGAIQQQkgNYQBACCGE1BAGAIQQQkgNYQBACCGE1BAGAIQQQkgNYQBACCGE1BAGAIQQQkgNYQBACCGE1BAGAIQQQkgNYQBACCGE1BAGAIQQQkgNYQBACCGE1BAGAIQQQkgNYQBACCGE1BAGAIQQQkgNYQBACCGE1BAGAIQQQkgNYQBACCGE1BAGAIQQQkgNYQBACCGE1BAGAIQQQkgNYQBACCGE1BAGAIQQQkgNYQBACCGE1BAGAIQQQkgNYQBACCGE1BAGAIQQQkgN+W/mrx0L45MWGt7nhwn0r6PIRW1YlwO0NrzPDib6MUa5rwHQH8Luav5H9+YUR9ZMdSzVEh17CBfzsyOY08jXfv9TxpdB79yGsZPyY1DusX7lbyutzUR5R+YEL3OcfjaRd1ba5hiD/aA0U2RYFUpyiuol4FzpOL7I21gPQ9uAFv06JKt4W0VlGWKpzinaXgZL566IrSixkGtsXqqyg6h+e70O2IKybSqQyw68vhXWE1WdW6EdxOST0CfRYqH5W6cPq9L3KqHS75J9+s/79+//l/iLvPGTrwhyckMTKifzz+I7MSHBToi/24oZVKSj/SHs7tbCGGT7eM0gIAFhwE9LFpOqFCMqO/EZ/pzINpFfodvmGIMPd4u/k8oWMvyOhfHJHu58B5WkA8UQcsSKggA1OfXObRhYjKV4n6LtqVB87mL3SNO5FdmQqpzSbSVPO8K1hRek6uxA6D0K9DHu14qQLEvPzuaYv2mV1JFQayu2gyjpa8bez/I6uV4fVqHOqaDU7/J9SjkCaMPqt9B4mASMboTjKwfYOYDVkVeZX9DacDAJCHL0dQIHGg7MtrzmANrLHN8Ckx29Buhh2NXg3nxbKNzUxLcbF439Q/QUBrIeejjcb8C9+R5zFr4srpzKWmubB9Dg4NqX3QjHetARzmBOHWBjD586+e49s46gB5Xk4jvmL4DWDEh7auJIDzqBEb7fuMBOs/SczKxrOGhg72N7+cW5UZPT6KsecgKr7VOU4nPnka1zPQxXFECrySndVpToWPiy34BzNUF8dNXZQVHitlmMuCzbsC6FU9e//ijf0XBra7aD6vxFEuv1YWvWOaV+l+9TSgCwi80NwLkNm26vqQEBxdh92wAebsMG3m9CA9D48Alt75oY93h+ARpvd8XHzja24OLun6AxtfHpQwOAhmZfbTCrJt3oSzq7RPLcs4HNeBazGG+2sdzst7BdkdI//UpI19l24N+wQuehJidfL9fCEx4Lpscz9aPfrGSByiI2dwHKLpA9o4XGyxzfc6WhK7SDTKq394UsZzA/F0m/52pNSecqs4OXZ9xXcyc11urDknSuDetyVT5Mpd/qdpAcAMgF+dkPvcWADn5PMPcX7ja23wDu78XUts0x7M4zJjcusLGJdPWZ4fFP4KO2iUZIKXsY2gNsTkX0v/VuHTuyZQijjwU8AHrnRizLURbhQKNBUcJ177aA0FwVRQR9+POYmToSAV3RRWuBJ7Pv0XPd5i10XZf/TjF/0WBcWgoGnY2SnDrb2EJYp/OgdQNGv7TPXtar2CKyTOfa77aAl2fAHIcCqmEFwXTi3IWvSLUVJfpDGDsu5hfqqdVydqDBCMhobGbPnKptqrBcllWiqHMl7WBxH5nFmcbnsbE/WMECuV4flqxzYu1qYY5T34/donlefoQq/c5rB8lFgNpmoKhgcc5wdNGGdel3Rwjbu8o7R/o8Qtsc+9+Pbh0Y3RYO+8DMU/L+UBRuPAQ7/SQ++GcfOsxpD8Ou2kBWTr8JDS7mk4jpdCwc7ADOVZXnQDL78TDJPoOTBrb0OgV650by+ILIeSu6aIULoFzMzyIym5o4Co1jhh8/v6C1L4LJwvJVkpM89oKDSe5AboRjPV7oNLCH2A2dLUcKoF7mOC0SNCro3O7bBrDRwgFOoevyqv4QdtfGEPl3mEvnLkiarai1BKuj5dPpMnZwcQw9Vlw4gH2+m3JGrGibGeSSZWny6lwZOwBihYChY2RAZDjC9+2d2zDsMbZL1hysw4f5pOic6IODSegMfoTjr2Uag1q/C9hBcgDgPMPFFqAFF+PFz15k+PwCbGHXL+rQgwrjpX0ujqFDOB7bW8wfJpg8aDDkx9mvJwzkIEVBzlFokFmpxvWQ5pSSaiUqoH+I1oaL+UWWiooz3gbCNRhFaJtjqVzf0hWnY2EsK5KLZjpm1tHCKDoWxic2xh/DZ9SZFdeFUJNT71w4SeeqiuLNGcyLTxiftMTxVfCMLuD82uYYA3uMT7kcXw6di87VxXfMOwO0mj0g5yhV5s7vX94FPPjXXl3DZ9X+VWcHAETt0ccxBvvirDX+pJKKbWajLssqyKdz5e0gHAz3zm3YdjOzyHL0dYKmbYij5WnBctg1+TBBms6JrHjhzFcaSv0uZgfJRwDTRzyhgVZ3E9ehQoTgrl+k8Rv7Bjanekh5Y+f+F8eBtK4O/et9+PjAeYYLDUbnGadBRZGpqFfHM/poZJn2fSk8B3qd4UC9KNvF/KzcguXvRh4m6Q7If9QkGtmWIKHIUyz+LuZnC105vXFLNKImJy/ocG9OKz97zTq+mlnfMH9poGXkSA+W0jl59KZ0RppBVoFuqf7lPVuvzg7iJJ21qthmTtZc7Jylc6uwg3jBdzpFaw7W68NWqXMJKPW7eJ9S3gMgivS0P0kFfi7m8uzr/rcL7DzhNqQsPTR3APfmR0aK8FBE+d5kTR/xdNLC1s/w37Q/7qEBJ3L/dSON/mWOHxGjF0WRQOvEhn0S/s2wbRhFHgfsH4oIfJr2V6JKWKviOfr+0Dec9EdiApHlKp559QuEvOi5KueqJqfFzqHiHZi2iUbAVrLIc9aqrHO3Doxu9OhEynjJGakyseKudFtRQhYQY38A2x6Ef5MZRCf0yFNFdhBh920jeQxLbbMEay6Ui+rcyuxAkpnFlRu9aNG5Emv1Yct0bobHPwO0ZIBdQYWIQr/L2UHKUwDycYIdI1A0JApIgg5aPC6iwQgUOHhnIGnVv21zLJ/VDA5IPOLQ2P/iP2LonWdUW1lfAN/o49HX6KsezmzoOvQrB+KZbB16bmVbONC0oiCRoqvA6XlppUzD8ZRrBYu/NNyFXOO70/hLU9RRkpPsQ+VOz5dtdjAj+pivUl5Z5y5uY7Yp0usVZKxic+d9n24rSkQzhboOXReFwM6V+OztTCuzgwjeQhgfw3LbLESaLFdEos6tyg48/7GkYHR4UuSJD6zdh6no3Ggyh7vRwiBU9NfDMHcRoFq/y9pB+ouAAMU380WKPmJvK1r2+4Kowy/2NqoqKfCyh8IvFgESX2SR8Hsiud5ulfY2LoHXfuYCnOtFGkntJSl2gq5MNzHIK08lOaW8vQ9A7rfXxd7GlfD3SW/Lq+CFSgAydC46xiJOUHXuVvVilISXLFVmBwk6nvb3y2xTrTUlWWbZXa72lXSuQjtImJf4mhFvr5hM1+zDculcebtT6ncFdpAdABBCCCHkXwn/Z0CEEEJIDWEAQAghhNQQBgCEEEJIDWEAQAghhNQQBgCEEEJIDWEAQAghhNQQBgCEEEJIDWEAQAghhNQQBgCEEEJIDWEAQAghhNQQBgCEEEJIDWEAQAghhNQQBgCEEEJIDWEAQAghhNQQBgCEEEJIDWEAQAghhNQQBgCEEEJIDWEAQAghhNQQBgCEEEJIDWEAQAghhNQQBgCEEEJIDWEAQAghhNQQBgCEEEJIDWEAQAghhNQQBgCEEEJIDWEAQAghhNQQBgCEEEJIDWEAQAghhNQQBgCEEEJIDWEAQAghhNQQBgCEEEJIDWEAQAghhNQQBgCEEEJIDfnva3eAFKUN63KA1sbiG+dKx/HF6/WIkPVDOyCkKNkBQMfC+KSFhvf5YQL96yhyUdQAHUz0Y0SvUqI/hN3V/I/uzSmOrFmRO1VLVr8ivwFlHZCaPHvnA7Qwx6luopSElOYYAHoY2gY0FBhftI0QLuZnRzCnspVzG8ZO4NeiOhBrM0mOVS0eC9n4pMqxGpTkFNXNlzlOP+fXl7Y5xmA/OHvhOUu9vmB7efpd2g6U7Ddhfpf0Kx01nVuvHVSIytxV3SdlH1acuA0ECIwxr60otFzd+prAf96/f/+/xF+kUJ985ZRGEBKu7NyfxXdCcQt0sj+E3d1aCEu2j1cOAnKPRxpAoYVEecxiLlBypyOUFUoKGlTsqnZY4p5Pvmzb5hiDD3cLh1FYllH5SD1F2Bn1zm0YWOhuHnmotK+tKAhQklPHwvhkD3f+WKrrU7acAotlkQUyV7+rsYMQiTpXXTsqOrduO6gMpbmrtk/V2WwR4utf7Ioy/VvDGphSA9CG1W+h8TAJKNwIx1cOsHMAqyOvMr+gteFgEhj86OsEDjQcmO0c3ehh2NXg3nxbCGlq4tuNi8b+IXo5B1UVbXOcP5i5+I75C6A18/a6h6HqZHe2sZXz7jH6Q3XF7Fj4st+AczWBU7Zdnx4O9xtwb777sp1ZR9CDTqCwLEc41oPOcgZz6gAbe/jUCVz1VQ8Z7sy6hoMG9j7m0d3k9r/fuMBOcyW6qySnqYkjPTi31fUpS069cwPayxyTG7fYzfP0uwo7iFJY59RQ0bl120FlKM1dhX3K48NWQf8QrQ0X80n66lDcp+RYD0qQcgSwi80NwJmGB9ZritTO3sc2MJ1h920DeLgNL479poj+P3xCGzOpxPG0Vyil1dnGFlzc/RMcaBufPjQAaGj2Aaz9TE+0H1yg8uD+vs/3B/0mNDiYrCnb0WtqwMNEyXB6RguNlzm+XwCH3Wrab5sH6uN9s402UMGOpYFNDcCSMTfe7lbSGl6eEdaCJXZQFiU5bWG7g6UyUOHpV6SljoWDHcC5MnH/bly+gRDV9VuF3PZbEiWdW6kdrDLVrDJ3arYZJI8Pq/54uQ2ro95+zFaWkWM9iB4X5ckUJQcA3oLsb/eEcuz9nGD+xkDr7S4AYPsN4P5cGIqXuprcbMHY34Sn0r3zL8CFDt0TVH8IuzvAsD8THdU20cATHn1BemmiCZyuga131ah9PkQQ9PRrF0N7sDj/W5LW9LMiOZWr/W4LeLkDzDHswBmSE02VBRYPrWvD9hbkXOnWtpw7wLq0s42+P4Sx42J+ZmKGHg5zjSoNsfuPBY8xxBzg4bH07LffbQFw8ZyVwpA7ytLO38+YhOdjqR0URk1Ou28bAJyAnRXD2+Wfhvoczhq2zXJtBAn3u0o7iJNlv1W246Okc6u2A5mqfwnWUvQwPO8BJY+LVHROyTbjf6Xsw7zjy+DC2DaHsDqz4pmD/iFaCZvkKMm2spzl6wEQOoLQZT86FsYnNoZQCwKSAwBtM1CgsTizObpow7r0vpdK6V3lnW19HqFthqP/0dej8P0vbuF0NX9hFwrwFBjAHu7OdJjTHoYV7ThzIw2z0W1ious4BuAJfHBpAUHjj0SXzlX+yHn3bQPYaOEAp9D1YIGhN5kzmJ+9jEm0PiMvYu4a+wfA2WJB6p3bMOwh4BtQvihXmX4TGrJTZ6I/htJ1S5ELcvY45AJWOAsTKRQLHZ8JltlBUZTk1B/C2EHhjFa4uMkLCIP3l+nQi4prHmL9rtIOFm1k2+8Ix3poSRF+wB5it9QuWU3nVm0H4v4OJqGAZoTjr+WaU9I5JdtMQtGHyfu7N6chHZlZx6WCqV5TA2RWNMpSW1Fg+XoAaXMOJp8D0p2auDZsGM0eoKCZyQGA8wwXW4AWXIwXP3vR6vMLsIVdmR04hR5U4mD6M6UK3DslnP16wsAfIDDRj0Jdz50+qZCwM5jBnB7C7orzqpknk4tj6KGCIRt2s0Cx1csc34IyvPiOeWeAluJk5iVUcwFgNJnj4KTlH7n4u6HPVbatFlSI+ot4H/MjztIaCNeqxK46F7vKIsGbILxI9M5t2HYzvBtZYgdFUJJTx8K4q8X1Kwcz62jhxOQuY/zRS6N6NTyn1QaKFfRbidz2O4N58QnjgK0UQUXnVm8HYie9PBuXE6W5U7PNLJb5MLGZdTH/p0L9CRx1Jd0121ZysGQ9EBvnBgzbhhH7W7XjouQiwOkjntBAq7uJ61BRR3DXP8PjH6Cxb2BzqocGJ9I+Es/pPUyg67r8Fykmc57hQoPRecZpyGGuoMinLM4zXO+8KpF4sWRxhIy9s7+VM33EEyB3pPEivUpQKJzxI+iHSclzOm9X7mJ+lu5kvTO06C6hDLFiWBU7yImSnPygI7rDK0GkQNer57iucpFeRb+VyGe/wlbyo6Jz67aDylCauxX1KeTDVkOwJmp5f6osZk9aDxxMfH8S+KdoMylPAdzj+QUpBX6LYr373y4AB7eRZ2abO4D784fogBeBZaWv5KT5fyNpf9xDI3b/NTH9gbuXBEWS41l+XvWU66x1dOsAG6JuYoGMzv+UP/uLtIbbB6/wKIAMuJ5+zfxizsb+ALZty38ixa11xedhP2+7cvf/cocfabLpD32nV+5xtTasS8/BZD+z7jniVVTb+tkrFTvIg5KcAjusVTz7/fKM+0CxruHriS36ttHCwLZhX1o5A9gV91uJJfYr5/OuwM5SSefWZgdVbzJU5k7NNrNR8GGAwoYtJ3L3H12rlhIrCM5GZT2Y/XqCX2BZkJQAQD6asWMEnLxI8+Hh2p8w8YiDBuN8Edt450n+biA2AUkv1RCPizT2vyyibv/spuIdqDIz/PgZ6VOCDGLI1Ffufl/cxmQpUvAVLhoBRrfR+ZXnkV5ke3EcjyrljtW5Ep9z75b9wpmU6NRLG1bwrLpIry5xMNLJVr/4SwcX3CUo2YEiSnLynOwKFlEpNzGPM5if4zuQ0xtXFMrl2I2svN8qqNivL/8MP5CGis6t2Q5GkzncjRYG58E9qiwCzIXa3CnZpgJLfRggzsQfAK07DmV0RBFg/jZ7hghulLNdIVvJgcp6cPEd85cGWifDwtmF9BcBAYqPTkQcWUJ1bPTtSM7VKZ47om4geL/4da//Ss9on6IyiD6CUe7NT9FFIcWQVlT8tNzhlHkhyrIXfsSru4Pk0oWEt7v5+PqZtQDnnMOE9pJsRdUOslGTU+aby3ItLEntLV+cYy+zUW0tT78rsAMl+43VbhS1cRWdW7cdpPUtfwCmNHe5+qSAog9b5seVWPpinmK2ko7KnCTri6qeZAcAhBBCCPlXwv8bICGEEFJDGAAQQgghNYQBACGEEFJDGAAQQgghNYQBACGEEFJDGAAQQgghNYQBACGEEFJDGAAQQgghNYQBACGEEFJDGAAQQgghNYQBACGEEFJDGAAQQgghNYQBACGEEFJDGAAQQgghNYQBACGEEFJDGAAQQgghNYQBAIrYB44AACAASURBVCGEEFJDGAAQQgghNYQBACGEEFJDGAAQQgghNYQBACGEEFJDGAAQQgghNYQBACGEEFJDGAAQQgghNYQBACGEEFJDGAAQQgghNYQBACGEEFJDGAAQQgghNYQBACGEEFJDGAAQQgghNYQBACGEEFJDGAAQQgghNYQBACGEEFJDVh8AdCyMbRvD/spbIoQQQv4qeuc27EsL7dfuSAL/zfy1Y2F80kLD+/wwgf51FLmoDetygNaG99nBRD9G9Col+kPYXc3/6N6c4siaFblTeaJjD+FifnYEcyo+9c5tGDuBX4v2OzJ+vMxx+tlE6E6xfhWUd7QtAM6VjuOLvDdSo22OMdgPSjMsw7R+FZZlVXJSooehbSAkzSRbqbBPlemcElEbT9IVlWuWEx1XiKBMK5FlwrwFWPRfcX6XoepTVmCbYbnGbS9qn4Xb+xf7sL/Np8R9aoAkuSfwn/fv3/8v8Rc52KeoEYQ6IY3+z+I7oWgBwcTuk0J/CLu7tVBM+Xd4zSAgASH0J398bXOMwYe7hbClUuZWxI6F8cke7nzDTJK3+A7+vaX8oTbZmRTtd0GEHBFyRFHZFteBFcopR/urmrvKdE6R3rkNA4uxJM2dyjUleoChbWDL14MVz2/UF6X0RysSBCQQ0/vE/hSd3+V97Z3bMN7M6cMyKd7vmHxLtL9c5+JrchYpRwBtWP0WGg+TgCBHOL5ygJ0DWB15lfkFrQ0Hk0BDo68TONBwYOZJePQw7Gpwb74tDG5q4tuNi8b+IXo57rRaejjcb8C9+e4b6sw6gh6c2IvvmL8AWjNnr6cmjvSgwxnh+40L7DQD4x/hWA8q9wzm1AE29vCpU3RMJftdkJl1DQcN7H309ETI1rkKOMHCOrBCOSm2v8q5q0znFBl91UPOJD53atcUpW0eQIODaz8IXOX8tmF1NODhOiNwSZrfosR9SozC89uGdblk0ehYONhxMb8I6tMxJg+A1smZtv5X+7C/0ack0D9Ea8PFfKIWmKYcAexicwNwpuGb9JoiIbH3sQ1MZ9h92wAebsOK22+KtMWHT2hjJpXKxbMTSRGG0nnb2IKLu3+C8VEbnz40AGho9gGsYVe6DM8RTVR2o2+20QYq2G1uYbsDIHMX1cCmtuwaNdzf95Fv4qmoKiPsp19SQp1tbAF4ivw++/WEgZIMVEiQUzSNWNGuDgDw8oyoNJX6VJQknVvhsVrj7W60tULXZKOwQC5aKy9Lz4FeKOiA0vxmk8enxG1zCZ1P2Fs2Fm0z8Uji/rcL7Gyi7OwJ/s0+TMGnAMBLFW1hic55wetEOeuWnAGQC/KzE7jxpY2D3xPMXzyjbmP7TVjYbXMMu/OMyY0LbAjlETTQOhlgc6pD13XoZ3O4O8aiMFDbRANPePQ73cPQHmBzOoEDYOvd31A+IRxRLOCJIYIn/HksbTi7bxtASC5x2u+2gNBcFcPL5lxb4SDMumziVpfzpus4vXGhdcd+FqgovXMD2ssc35cZofMMt1xTAJLl1DbHsLvAxB/fKeZvDNjnJXcQHQtf9htwptkpv6rmLk3nxPhEStSbv284LD13XrCWuSCpXKOAWCCjm4OE6yqRpXSgL3f4keVAFed3OWo+Jdk2FfD8qjaEbdv+v7FCdnb2KxqKF+Pf7MPSfcoW5meL9iYP5doBoKZz/UO0NgDnVn0Dk5wBCEWFi7OPo4s2rEvve+l0vKu8M8DPI7TNceyWoYhrauLasGE0ewBGUpBP/kDFOZIOc9rDsKs8ltXSb0LD8tRK79xQum55e0MYO8je+UilyBPxRdsIRqqh9DsAYAbzc1jdZv/c4ct+q1C0Hi5acTE/Cyjz9Afu+i20OhbafjpSHkWVDQES5ZRw5IAZzOkh7K5Is5UqKAsdn6n2qRiJOifv796chvoxs45LLlrenGTtWlWuUWvr0wcFGVUly84n7G0AzlWSk805vypk+ZSltrkc4VcbMJoT6Pqx+LJjYXwywNiEyARd3MLpamgZPWAaOKfvagBKrsj/Qh/mk+FT3JvTCupexP3y6FyvqQEqm6oAyQGA8wwXW4AWXIwXP3tR/fMLsIVdWJcD7P08hR409iXpsfvfLvBBpix/PWEAyMkEJvpRaBL9NPGroZZaaZtjqfDfSjoiC+OumMxvqQ60h+GJdLJFU9YXx9B9ZelhaNuwm5EUeFI6qyAz62jhWDsWxic2xh+9lPQM5mfAuhxgYNtCH+BifjWH290r0WqKnOQOtdG1YceCTLfAkcMIx/ri/r1zG7bdTCnsqmDuJKk6p22iARfzJTvnvPTOxTFe1oKkco0SSun46mTZM1popDrQPPOrwhKfomKbSkTk4m2+/CPaEY51YGgbsG1j8TdXDrQym69/qQ/z20n1KcuzVerk0LmOhYOdtOA1neQjgOkjntBAq7uJ61BRR3DXP8PjH6Cxb2BzqofOFUXaJ5vQNc4zXGgwOs84DQ5OOulXR6Gwwt/dPkzKnbH6j5o4mKRWjXqRoYv5WVWPocSLPD3DcW9O/XSWfjavJCWfXOA3g/l5kTrT9SOYiB4P5WG5nILp8VC7JSP49GLY6uauMp1TxHuULJpVyHuNGirFeBXagedAFdP6xYqdA+Qq1kqwzRLc/44e0YoCt4X+H+P+3VbxGod/tQ9bRb/VyNK57OA1nZSnAO7x/IKUAr9FhHP/2wXg4DbUaA/NHcD9+SPDkET9gH9mOX3EE+J/0/64h0bs/utG4VywP/QdcbkCskBkmbqzkJW9ac/Rl2ax2IoUYoGzxzwoFLWoFYAl/G2WnKTOrbq+JJy9qnDulumc8wzXK1CqgEWmIb2IUOUaZZaeZ1ZrBz2jVcjXFMtOKtYaxFvLFQjP/rmD6xXgBdh921hid/J4rFCNw7/Zh6n0O2pzcq2rkJjOyeA1e81NJiUAkI84BAv1vHOhQEQuHvXRYASKpsR5ZLbARbFGMPoVjzg09r8sIjf/DLOI868QzxGlGYOX6iq9+HvKlf1yCZFeXYHhyHGEHnH89QQEHUjmi0xyIhewdCcjCkFbyEohprNcTp7ODVbwlko5l5GIvLK5U9G5qYnrB8SKndrmMP8uUs5V5sKuco0y3gKZvqOp1A48B6rsa5LnV5llPiWhf1HbVGL6A3cvDbT6gcf55Ll8pj+Tz5vnz+D8u33Y0n5Pf+DuJfj4ZPzlWMVJ1zkveC0S5KS/CAhQfIQoUqgQewNR0tu2khWksrdRVcaylz1kT3Ce/me+1clz9FlnWYpvfvKIv3EtWbHjbxC7xuZJ8IUYKiTJKa4DK3sbWZCInBLlnjeYS2gvZiuVzV0+nYuOL/8CnfW2PE9nVK7J0eSyF7pUaAdAwsvLFNorHugsf4GMqm3mas/Xl/i9lr0lULmlf7MPU+532BacKx3f30Ve3FWwvUSdK/nCvOwAgBBCCCH/Svh/AySEEEJqCAMAQgghpIYwACCEEEJqCAMAQgghpIYwACCEEEJqCAMAQgghpIYwACCEEEJqCAMAQgghpIYwACCEEEJqCAMAQgghpIYwACCEEEJqCAMAQgghpIYwACCEEEJqCAMAQgghpIYwACCEEEJqCAMAQgghpIYwACCEEEJqCAMAQgghpIYwACCEEEJqCAMAQgghpIYwACCEEEJqCAMAQgghpIYwACCEEEJqCAMAQgghpIYwACCEEEJqCAMAQgghpIYwACCEEEJqCAMAQgghpIYwACCEEEJqCAMAQgghpIYwACCEEEJqCAMAQgghpIYwACCEEEJqyH8zf+1YGJ+00PA+P0ygfx1FLmrDuhygteF9djDRjxG9Son+EHZX8z+6N6c4smZF7lQJbXOMwX4j8I2L+dkRzKn3uYehbUBL+FsAcK50HF/kaDAyfrzMcfrZxKok0Du3YewsPifKu4o+RfUoRECm0bZQQIYRwmOMzl98jou0F5VjiESbqYhM+0zRzUI6FbXxJDmpXKNCQr9XKUNVnavINpf7lOT2CvvCmO2V8M8qqMip6j4prVNAULfK+JVlPgUIzHNB3c3vUxb2l0dX/vP+/fv/Jf4ihfrkC0oKL9S4bPTP4jvR8QIT2h/C7m4thCnbxysHAUHEpCLZYINEx6JCx8L4ZA93/t8kybs62uYYgw93C+OUhhsyjBX3ScjzKV1XkvqkzPK+9s5tGG/m2TIojGh/a0X6u1wXRfuoYCy9cxsGFnJMalvlmoKtr9QOYqzZDpLkFLOLwr4wqgPSX2NFGwslOVXbpzx6Fgy+VuVTFnM1x9N+q2K9zfApgcArTwCQcgTQhtVvofEwCQhphOMrB9g5gNWRV5lf0NpwMAkMcPR1AgcaDsx2voF1Nbg33xaTODXx7cZFY/8QvRx3WiUz6xoOGtj7mDW2NqyOBjxc53N8UxNHelCJR/h+4wI7zZWMf2YdQQ8a3MV3zF8ArRlobaV96uFwvwH35nt6oJjUJyXasC6XG+rBjov5RVAGx5g8AFrHQh7tTeyBeQANDq5XEbz2hxUtrmqMvuohOSbZgco1BVtfqR3EWLMdxOUk7MK5CgTFhX3hCMd6cKGbwZw6wMYePnVKdjwJJTlV2Kc8dtCx8GW/AedqAidnMwIFn4Iehid7uDvTcWQ9FmolswepPsVbPyeYv+S7Z8oRwC42NwBnGh5orykijL2PbWA6w+7bBvBwG3bg/aZI3334hDZmC+ealabpbGMLLu7+CQ6sjU8fGgA0NPsASu/IquPpV4ZT7x+iteFiflFV1LeF7Q6AoIIrp7wK8GYbbWBJJJ7Qp5x4yjxRWCDd3/f5bt75hL1lc6BtJh5J3P92gZ1N7GKZDLJIC27iafIiqd1eUwMeJmtZ/LNovF0uJZVrlHh5RlgLqpFlGmo6V94OPHyf0tnGFoCnyO+zX08YVNZeA5ta9D4VHuXGUOl3Up+yyWMHPaOFxssc3y+Aw656Gz4qPgUjHOurylKlb5gWvvQe25f57pqcAZAL8rMfKrVhXdo4+C0iDGHUbWy/CRtK2xzD7jxjcuMCG8KJAhDpCZnC0nVd/LttYtiXv2ubaOAJj6Gz9QE2pyJa23pXdhdRDb1zA5pUomTk7v/lDj8qcAq7bxtASC5YLsvirWFzA8Cfx0x3ndin3AhljgWPEbwMU+5dtKdP2hC2bfv/xgpZqdmvqOvNjzDIaEAL9M6/ABf6Yt6uHDT2BznnzrM7wLq0A+MbJu4OtW7gmsvymQ0A/iKVuUiqXKPUlty5TcPp4WpkGUdV56qxAxWfInGe4ZZrCgDQfrcFhHw74PnbFuY49eSp36J5Xj7noiKn5D4tI4cd9Icwotm+vJTwKVWQ5lMWmY1iwVpyBiC0O1qc2RxdtGH5EYZcMLyrvDPAzyO0zXHgZiI9gYdJODq/OMaxN7h3gZjXP0fSYU57GBaJ1iokXLTjYn6WoUSdT9jbAJyrCs7X+kMYO4hEfMtlWZTeuQENLuaTDDVK7FMB+s30tiJFREUUW+hTA0ZzAl2XkulYGJ8MMDYhZHdxC6eroWX0gGngfLKrAQWThLJ1kblK2JmMvh6Fv5B9EAGuqsYIu2vsHwBnOvTgGbw9BPxdW3Q3InZ4A3uI3VI7O3k8mJm9Ubkmi0ghYOgoUlCNLCV5da6kHWT6lOkP3PVbaHUstP0Fy5NnyRBALhZR3RS272ASOoMf4fhrueaU5JTSp+Wo2oF3JFsuY6bkU1ZGuk8JZjaKkBwAOM9wsQVowcV48bMX1T+/AFvYhXU5wN7PU+hBIXgpO7kTcG7TTUWktyANEZjoRyGFyUy5r5iZdRQ5xrAx/picaiw7GT4dC+OuBrzM8S3YjoIsi9A2x9JQv6UbSVqf8reWbZAXx9B9+fUwtG3YzSJHHOHaFExNXBs2DP9oaoRjHRjaBmzbWPzNlQOtTNCZdQSU8jREEbcenavRZI6Dk1bGcdkM5sUnjDOvWU7vXKSJsxZJlWuyCQcvvXMbtt0Mp6QrlGUunavADrJ9ygzmZ8hgzRZ+ES7mV3O43b1C7Ql6GJ7IoOxrODDcfoOl2bjcKMkprU/qLLMDv07tcxWjW+ZTVkSaT/EyG1mb0iUkHwFMH/GEBlrdTVyHijqCu/4ZHv8AjX0Dm1M9tCCKtE8OnGe40GB0nnEaMnKx4P01ZBXjdCwc7CCWqsyN79iiEflqCD6ukhrFVtknT5mzMg0+8cLTMtz/jhxNyYIkP42sH+P+3VbCebMqGQWgngwfJoH2ihYkJTB9xBPUjsuKHql5jya5N6epFdQq1+QlVli8Ullm6NwqbDPRp8xgfg7q5RFMRI9J8+BlVFzMz1b4CKCHkpxW1KeQHSgUGpck7lOqJs2nFCw2j5DyFMA9nl+QUuC3OIe4/+0CcHAbMvQemjuA+/OHmHgVxySv8f9G0v64h0bs/n8BCQtEz2hV0NdARJyUps3h5JXoDxWeVV3Sp1wUrZHI5/hm/9zB9QqPAuy+bSxZ3GUFdtEgrn8odr5JGRptE41lRyxKjHD74NXhBPCKx7KyZbIPsXNEBRZZovRCO5VryuCPrTJZZrYW0bkq7SCBTL0UdlNsIZPV62nvG5AbOa/4tzwqclrWJxUU7EAWpDf2B4Fze3G05NXGqNaMFPcpJUnzKfK4GTtGYGwi8+aNV6U+ISUAkI9m7BgBAXnnz4uIQzzCosEIFIt450mLIhrxKEisQKc/DHz2rvmyiLrl2dAqo7fcyAUztkDI3X+5vnpGkWU4KrJUxEvRZS7+Kn3KgafMqgus7GNuuU5/4O6lgVY/UPQmzyNT2+5YGMtnfIvtXL3gJuUIyHmG61U6A1j2EqksRrdR25RnxFnHT/58F9gxSL3PXNhVrimE1MHg2CqUZYxEnavYDoKk+RSfRYFekSMHcRyTvdCOJnO4Gy0MQkV/PQxzFwGqyUmlTyostYOL40AWJZwpcq7EZ2VbL+JTSpPhU6YmjmJjO8X8RQTguq4r2WH6i4AAxbdRRYwv7Q1Z0TdEJSw8VbyVrTrijxmlPRpT+OVHwdZibwgLEJWVgiyXtJYwtgWe3HP1SbXNjBd+xN9+VcZJRMcYv5fKG72UUXiJUFy/T/HcEfUzuRfNZToQOyMvOr6sxdW7p8o1is0lvJkvye9UJUsVnavODtR8SmV+MEGWPjE/HZ3D/P5MSU65+qRAbl9Y5gVZeX1KkAL2l/vFZG2/Hq/8mwAJIYQQ8q+F/zMgQgghpIYwACCEEEJqCAMAQgghpIYwACCEEEJqCAMAQgghpIYwACCEEEJqCAMAQgghpIYwACCEEEJqCAMAQgghpIYwACCEEEJqCAMAQgghpIYwACCEEEJqCAMAQgghpIYwACCEEEJqCAMAQgghpIYwACCEEEJqCAMAQgghpIYwACCEEEJqCAMAQgghpIYwACCEEEJqCAMAQgghpIYwACCEEEJqCAMAQgghpIYwACCEEEJqCAMAQgghpIYwACCEEEJqCAMAQgghpIYwACCEEEJqCAMAQgghpIYwACCEEEJqCAMAQgghpIYwACCEEEJqCAMAQgghpIb893Wa7WFoG9i6OcWRNXudLhBCVkLbHGOw31h88TCB/nX0eh0ihCSSHQB0LIxPWvBNOdGQ27AuB2hteJ8dTPRjFDL3/hB2V/M/un9LgKDSL++alzlOP5so1OtIO4n3is5JUXlH2wLgXOk4vsh7I1WiepLcXu/chrGz+FxMB+JtyRYTZeUvWJUsVCK41bBqeULBPhd98SjVJ0U7GOwD8zMd5rRgOz5pskyY30J2F5dPkHCbkWvL2DmwPp/is5BZmk2tzQ6q8mFp9wv0P+pPQhQe518kS++K0DhdzM+OlOwvPQCQQn3yGxSdsM8RGJAUxJ8J9M8BgdtDIO+E9oewu1sLx9GxMD4ZYGziVYMAIVgHE11PGY+cnIc55i8aWkUb6lgYB8cv7zs472Hmy7uHYWhOhPyNSwv3eR3ExTH0oCL1h7C7NoZYzaLVOw/rSdscY9Adw3IWito2xzDezHGqy7H0h7C7Awz7s0J9Who8SB3HzRwOWqkLQR7a5kEl91neznjJQrvIsumeDErM8XI7kNc1NeBhUsHinyXLGczPwXkVdjC4tIBcdjDCsZ4wGumLnh35OeAL9YDd5W9PsDafEqR/mBAQS9ZqBxX6MCy3g9HXJBlL2/h9n7M1yV8jS2ChKxPoSbq8hJQagDasfguNh0nAUYxwfOUAOwewOl7HvqC14WASiHBGXydwoOHAbOfoRg/Drgb35ttiEqcmvt24aOwfopdzUFXRNsfSUNOCmTasSwO40qF//VGusamJIz0YtY3w/cYFdpqB8Y9wrAed9wzm1AE29vCpU655XHzH/AXQmquR9uirHoqEZ9Y1HDSw97Ed+O4IetAJrLRPPQxP9nB3puPIeqzmlh0LX/YbcK4mcJZfXRx/l50R5feb0ODgOhgAXdzCAbD1Lo9tqtiBfyW23+S6dTq5ZFmhHaANq6MBD9e+bHtG1BfOYF7M4W60cNjPefd1+hQfz79OMH9J+G2tdlChD1OxgwTEghqxDWX+JlkKXdFKZBlSMgC72NwAnGn4pr2miEP2PraB6Qy7bxvAw21YkftNEa18+IQ2Zr4zT0rFuN5/dLaxBRd3/4Sj+k8fGgA0NPsAVplKTUS07958z3B60Z3IKtjCdgdApoI3sKktu0YNNxYVV5xGjtB4uwssi/vfbKO9/KqcpOz+StAzWmi8zPH9AjjsplwTsYMislTfZUd0p7ONLQBPv/JIUsUOqkdFlnGe8FjWBvqHaG24mF8sspzbbwD8iVw3fcTTSUsGU6ryfB2f4i14E+se25fRX1/HDuLk92HFsk09HO4X1+e/SpadT9gL6Wp+kjMAckH2U2Bow7q0cfBbRD3CaQvDCC4YbXMMu/OMyY0LbGxiN/C3IrWrQ9d16HokmtE20QgZbw9De4DN6aTQjqUaRBD09GsXQ9uG7f27tLCu3uy+bWCZU2u/2wJCc1UML5sTjorbsC6buPXnTcfpjQutO/azQIWRi1E84Agi5gB/Hgst/o39wWLe7OFqM0n9IYwdF/OLtDSmtANMfFnqZ3NsdW0Mc+0iPbsDrEs7fXwX3zF/aaB14t1fpF49Z6LOcjtom2P5vTyX3zEC/SqgK0tlGcXblZUNUuTu/+UOP5YuKvd4ju0Al/EKPsXfQZY4Y89D7rkr6sMU7SD6V+YBtNhmU5G/TZbeuqkNA+O3Mc6RfU8OALTNQIGGtxjrOLKCzlo6Z++qcxuDt9fQP5sIuXQ/ok5XCKEAko6FsX2A57MVF1AtQy5QWje4AJ5ijhYG6wgC+kMYO8h2alIhg+nKvG14SjNIVOwZzM/h72b/3MH1ovXCyCOmJWm43rkBDS7mk7zmNoP5eRG06LqOyYMGo8hipEQ8bRyjfxg7LsPUxPVD3iMOYXeN/QPgIjq+oPMTMhABmw3bqwfIe86qYAcz62jx/QtE4ZN/bb70rJIsvet8x29Ae5njW9laoc4n7G0AzjQooxl+/HRDR5+AFzDnvf/6fUpwB7l6VOcuQGEfpmoH4f59+lDcX/5tshTrpgajeRvaVGB/oBwEJAcAzrNIz2vJi7HYtXkR8K7MDpyGzyFennHvdXJJRD379ST+oz+EfbKJ64jTyJeyrJbwoljlWWMGHQtjWf2b7tTkjg6RRSUPF8cBRz0Bujbs84jp9MPRpR2q3i1G71zsFLMiaXFWinBdSAlEbUq45qAqkmphYtd4xhqUpS2PA+QRRx6ichlN5nC94zLRIqxLG4P9J0wCjqFoJmRddqAiS78PgSDv9OceBiUDvDQHP7OOcHoDtE4W8/YF1wlnwGqszacU2I2XQX3uPMr7sOV2EMDbjObeUOAvlmXypqLx4ZOST0kOAKaPeEIDrW50MQ7u+md4/AM09g2ZHViIRaSuc+A8w4UGo/OM02BxjIyY/yqc5wp2wBn4j7Q4mKTu1rxzeRfzs6rSUfEiT+8xJPfmNBRhupn3ycY7A3dvTlMzPMFHaKp+AkQcX1VJnjNFUfmtR/+VfsQL0mYXx2W+A/HsaWriSBcFukY0yCvCSuyg+PnszPomjjyMgmPrWDjYie7+g/c/Cs3ZkQWZzq9AP1ciywK78VLknbtV+DDE7GBBGXn87bIMc/87eASfTUoRoNjda3+SCvxczOX5yf1vF9h5wm3IkffQ3AHcmx+YASIKkZ3xTSW6sHsFNT9/hIyv/XEPDTiR+6+J6Q/c9VvYixb5aJtoVHDmnkwgIl5SJazleNYzH4uaA7FrLVotG2exq894PK8/rPD52QBS55zbik/vvKLX/QFsexD+rWvD7spCv19PGCgVdC5jhNsHA1q0eDJS4Lf7tuFn4RZIu87T3DrtQFWWGf4gu6YknZ7RyuVr2uYBtJc5TvP4pnXKUh5nYMOAbRvh36R8K33PSq65q8KHqdnBon/i0b1oYbsSf6ss/7nDl/29mE9Jtv1kUgKAGczpIeyugWF/tHgPQDdcdTmzrnFoGzDOexj5L14wZJWkEMbsnzt82W/hwGxjZM1CL21Y7CRH+H5zgMH+F1idmf8egC8loqDyzPDj5xe0gn1KkEF1eEaR/biVSJ+vYPGXxw7uzanf9iy6aMVe4JEDubBnGop39FH5m+OKFsApEH2fgteeLR7lWixW3zHvDNA6GaI3LbfjGd06MEK2KWsqAuMT17TwxWxj5r8HoIgTXKMdKMsyjrCLhd/Jhdz9q/oakcVyMT/Lm7lZoyynJo5i9xPP3O/9XMEL1nLMXVU+TMUOBF5xZ0H7/2tlKQLKVt9Ce7p4d4qxAzhXarr5n/fv3/8v9VelN/MpvCErdB8HE/07thOEF32F6MrfpKZAtE9RGcReexogT/+z7uMviAlv7/PJ+baw+GOZyQYZf8PUNTZPljvkyF0y3rjmtZv29j5BPl1Qe3Qx/S1hZZ1T2qKVPMZCeh7VhaSgqcK3PS6zA3nV4sVglQVwCbJMCkRLBI2LF/OkHDM5qgAAF/1JREFUBGZKb0RVZ10+JaHlxEVrrXZQoQ9LvF+GHVS7nvwFsgz0Y+FT8rWTHQAQQggh5F8J/2+AhBBCSA1hAEAIIYTUEAYAhBBCSA1hAEAIIYTUEAYAhBBCSA1hAEAIIYTUEAYAhBBCSA1hAEAIIYTUEAYAhBBCSA1hAEAIIYTUEAYAhBBCSA1hAEAIIYTUEAYAhBBCSA1hAEAIIYTUEAYAhBBCSA1hAEAIIYTUEAYAhBBCSA1hAEAIIYTUEAYAhBBCSA1hAEAIIYTUEAYAhBBCSA1hAEAIIYTUEAYAhBBCSA1hAEAIIYTUEAYAhBBCSA1hAEAIIYTUEAYAhBBCSA1hAEAIIYTUEAYAhBBCSA1hAEAIIYTUEAYAhBBCSA1hAEAIIYTUkP++dgcI+Rtom2MM9huLLx4m0L+OXq9DZekPYXe3MD87gjl97c6QPPTObRhv5jj9bGL22p1ZKW1YlwO0NhbfOFc6ji9er0flkOP583/Hd2QHAB0L45MWfLeY6BSjk+hgoh+j0PD7Q9hdzf/o3pziyPo7TMBfIF4SDDPS72Iy6GFoG9CiXye01zu3Yex4n9xyTl5pjssTW2CX9duXaQl9Ei37+pmqT/0hBvvA/EwvuViq2UIV8xe+x/psJdMOKkHdDiohZrtpi1C8X8UWq9dZ9Cr1GWot+vJKG1/vfIAW5jjVi8xrip5Iwm1WuEbhb5JlXJcE6uNLDwDkwvDkNyg6YZ8jsEAEIp7P4rveuQ3DHgJ5BezvWKQT7lgYnwwwNvEXBAE9HIYWrwDRfqOEDLDcGfi7A2k0bXOMwckYFvIroXDmVSx8y5lZRyEjz+53G1YnzbRz0j9MMJAwvaYGPEzKyUDaC25OoafqqzTkhwl0vURIY45DOiB0cIBhf7bihSTDDipmbTvBi2PowXb6Q9hdG0ME2xfzthWc28TrltM7D/vLtjnGoDuG5axqEalG5/LSNg9SF2dBD80dwLkqGtSNcJw0HumPnx2/J9WtUX+pLMsE/yk1AG1Y/RYaD5OAco9wfOUAOwewOl7HvqC14WAS2DGOvk7gQMOB2c7RjR6GXQ3uzbeFEUxNfLtx0dg/RC/noKqmd25Ae5ljcuPGf2tqwMN1yHhHtw6ALWx3Ku5Ifwhjx8X8YmE0M+sb5i8NtIycUvJ3va+TIp5Z13DQwN7HuJ74enXlJPxlHjy9mmD+knZNG9tvSjaDHoZy8U83xDasS+k8SmZYZtYR9OBu+OI75i+A1lytpWTZwb+GJFn2m9Dg4Do4txe3cABsvcvj54DRVz00/1l2UJ7qdC4XHQtf9htwriZIteDONrYqb1huHAL+uLo16i+WZQlSMgC72NwAnGl4oL2miEP2PraB6Qy7bxvAw204iuo3RbTy4RPamPlOKpqyDEX4nW1swcXdP6E9Ij59aADQ0OwDeK1zoY6FAxmp3r8bJ1/zZhttwB9r+90WgCc8Vrywtt9tAS93+BG8b+cT9jYAbDTRA5Qj2ly73hUezTz9it5H7DLdm+8Y4RBGiXuLyNnBxLrH9mWZXi5BLhCTLJl0PmFvw8X8YoXOI6KHQgfDqdLCc6diBxWnWrOJpz+r1Ev3933kGxnQe/YiF7C4/haj8XYXwZnDn0fMQnZXINWcR+eiRyElFrqe0ULjZY7vF8Bht9AtitE/RCsy3jxrVCY5ZOn+vo8ceRa3g1XLMjkDIBfkcBrFxsFvsZMSyip2TkFDaZtj2J1nsUPY2MRu4G8NTKDruvh3NsdW18awL/9Q20QjtGD2MLQH2JxOCkXZ1ZGUCQkzmszhbrQwsIciU9EfYuAvYPnRujZsW/67tBAc+e7bhnAM3hf9IeyTTVxf5c04eHMHWJeB9rwxBK80x7C7Gpwr3Z+/bzj0s0BF8XaT3y+Sv/9W1pH7kXOy4bXNsRyzXER2jIAcxrnGJwKzZ8C/p/jn6zew0HFtGLpmnGsXkoYI2EO6IRqFYR/g+UzO3ZWDxv6XAnO33A48mxVnup6u3KJ5XiwrkWUHANA7/wJcLHRSjG0QlnkBvB1jeLf/XWTZTrw5FRmfRoL+5kYGErGAY8eA3Xn2ZTl5aKDVj8shE0WdEzYOTPx5O8X8jQG7yNwlZCkDLS38jaw7WjbP6sjdf2iDpLpGKZDDfhv7AwzeXi9k+aLBqFyW4fayfHgWyQGAtrkoCvMXYx1HVlBJpdPxrjq3xaA/mwipcv8wloLB1MT1wyLNJnbMko6FsXRar14N6kWUk4ylfGriyJtk2/brAfLvREY41gMOTT/FHIHAIpKq9hT5tFBkKeausX8QcqKTBw1GUIHkIurenIbmYmYdFzo2aAcWyETF9naZ0/LFXsHIOYmZdRQwUIgdjy/7fDut3bcNYKOFA3wLLUhaIMgVOq7BaN6GAmHsD0oHAb1zAxqS9DSya5QLWe50s4IdiD44mIQK9UY4zr2LXGYH8qqvkTkqmJIHIAJpqZeDxKBxBvOzjtMbVy5Ysh6gdFGiDKyixwtArOhRbDT28ClvYLpU50TGLTzmGcypA+w0cx6/xlPwYYQcvX64QGhjUUqeMhMa9h2Ka5QCuew3lD1ZlSzlvT8HbcXz4eobmOQAwHmGCwBa8mIsIqp7PL8AwK7MDpyGU0Yvz7hHQHC2HYqcjB0sUpa/nsTfeDvaiAOuKs2Wj4S6hCQ6Fsa2LDLRdZzeAK0Tu1j0HGIG82IO1zsCwQyPf2TPAoocTvfmayE6ttEk2B5kIBg9minOYtHVoZ/dYe8kGEGr7DIVUYycKyWatUg8l08OhBsfPhXe+bTNMYyd+FwmI3RIZPBUUbEDGZxGU62VELUDScfCOORT0ivCl3JxHHCiE6AbtV+xcx3sP4ldsnT8eXdbUXrnIvuUlqUKMX3EExrYzD3IJTonMxChnbhty+OAfHVMSeft6yI54Fdbo9QpaL/OM9w1yVLUN6gH+ckBgFS2Vje6GAcjKulM9g2ZHQjEXW+jlcJOIL2UEPE5z3ChwYjuaFdSKKKGd34ci8zDV/mLlqdYM+sI+pUD7Bil05Ee3q7m/rcL7BgxRQ5lUMowfcQT1nTkEi3yVMm2KKESOa8DGbDJIDeN+985U5EB/HPGh4lixil/waOaHawHXy+9R1dDWZuqiqQyip093zQ1caSLQrJCqV0saqKi2bVUKvSFSToX2okXyoQFa3fWTGrmMM8aVQwl+w1l1FUoL0vVID+lCFBETtqfpOIJF3O5IxQL0hNuQwosHu9wb36Iyfj1hEG0gCbK9BFPJy1s/fwRflTs4x4acCL3XweLAkTDtiOFaC0MbBuDlzlOPz9icwNwf0biSBnQlEbuwD15z6QsE4slc+2+Rrh9MKBFC4+ihU1yHJsa0ueuLDIK9wpMWyc27JPwJWIOFAtp/KJIA7YdKSHcH8C2B5U/Mz+6dWB0hRNY3FUutt65/D93+LK/F7OD3beNAjsR+LUm+Yq1dpP1NRVVOzDx+GeAVqwIsSIiduB/Lh0sZrHIqCXPkfSRBe68yNrk0EM55uccUc5MRec83/uu5Mx5hXXSxkJ0bdjd1T3a2TNaqeuE0hqlgJIsU8hdFF5GltKHO7dqtpHyGKB3bhHcxYpUYHBnJR5hCUfB3lmgv2PwC2iy0mUjfL9xwwVK/vnzK0SUCWcrIr3virM5P3sxwu0DYoVVWQqpTMfCOCJvX5aBYiCxO8nvDEe30fmV2YxgGs2r1eiGz5Ta5rB0EaC3gHlR++hrwg7kysEie6RY6zA1cRTbyYhzfvfmFLpepD5jCRe3MTuIzcv0B+4icyeOKgrUPPi6ka9SO2abS1G1g0AxbGhH3MOw7FFYkh04z3BD6fDsl8IUaS/od0a3DrDRwpfgWa98v4Sqo138nVcknCcIjfteJZR0zvO9JQsoQ8co4ayMl11YSU2X3P2nrRNKa5QKRe23yDpWWJb5i1P/8/79+/+l/qr0+FfE+BLf2JX8xqJoFBN9W9zf9lrItjnG4MPdkjfzAYUe+4i+kS/1sZ/VvXkxbUGJzkv+HXTS/Cv0uz+U1cllHyUT7e/9TOp3Va/vjC5CSeOLyqHIW8TS3v4lW/VsJqZPqOxteml2oCaDJSjaQdxXnOK5kzbH6cRtN2VOlN8YmNlaRqCyaDf+1swyjziq6VxSm+XfCirGiyQ5xV40V7CFcxvGzjI9U1mjVFguy7g+VbWOJcmy/NspswMAQgghhPwr4f8NkBBCCKkhDAAIIYSQGsIAgBBCCKkhDAAIIYSQGsIAgBBCCKkhDAAIIYSQGsIAgBBCCKkhDAAIIYSQGsIAgBBCCKkhDAAIIYSQGsIAgBBCCKkhDAAIIYSQGsIAgBBCCKkhDAAIIYSQGsIAgBBCCKkhDAAIIYSQGsIAgBBCCKkhDAAIIYSQGsIAgBBCCKkhDAAIIYSQGsIAgBBCCKkhDAAIIYSQGsIAgBBCCKkhDAAIIYSQGsIAgBBCCKkhDAAIIYSQGsIAgBBCCKkhDAAIIYSQGsIAgBBCCKkhDAAIIYSQGsIAgBBCCKkhDAAIIYSQGsIAgBBCCKkhaw4A2rAubdj24t+wv94ekL+X3rkN+9JC+7U78m+gP4Rtj2F1XrsjJC9/gx38DX1YGR0L4zWuPeuVZQ9D28bYVGvtv5m/diyMT1poeJ8fJtC/jiIXtWFdDtDa8D47mOjHiF4FAL3zAVqY41Q3MUtqrz+E3dX8j+7NKY6sxCvXy9r71cPQNqABcK50HF8EforOSYa8lfHHl3SvRV/8FqN9KtSWYBWybJtjDPYbyT++zHH6Oax//vWJ+p2XjLmrkN65DWNn8XkttrIWO4jrW1m/k6utAN78RWUdoqjOrEWWURkhUf8rJTKuxPYq8WFqc1cdCbIULZX3vwmsROcSSA8A5CQ9+YIUArfPEWhcCuXPBPrn0aLj9hBIWEiaO4BzlbX4b2F+psOceu0PMDbxqkGAmAgHE12vfJLTaJsHKYrdwzA0J0L+xqWF+8JG3YbVSTMjMedbN6fQvTnoD2F3bQyR38DWJcuZdZQgC09XHxe/SR3HzRwOWqnOJA/pc1cdbXMM400gkO4PYXcHGPZnKw441mEHIxzrwRaS/E5cL9P9Tp62JNIXPTvyqq9JY5Z9+H2v3Jr/l2uT5Qzm51CoC+tygMGlBawiCOhYGAd9uJTR4LyHWXDuKvFhanNXNevalFatc2mkHAG0YfVbaDxMAg5lhOMrB9g58NOKbfMLWhsOJoFoZPR1AgcaDqIpiM42tlK70cOwq8G9+SYVB8DUxLcbF439Q/QKDa08bXMsDbX6CC+VjoUv+w04VxPEdXiEYz248M5gTh1gYw+fCqZ6/Tm8SrCYfhMaHFwHFf7iFg6ArXf5ElqvIssg/UO0NlzMJ0FHtIe7Mx1H1mM1bWTOXXXMrCPoQWd58R3zF0BrrsZSXnfuRvh+4wI7Td8PtM0DaC9zfAvoZarfyY0MiB+uF74o6SrzIG4bKnd/VVmW9xeZTE0c6UcBucXnbhU+bIHa3P1fpajOZZGSAdjF5gbgTCN7+KbY2+x9bAPTGXbfNoCH27Ai95tiB/ThE9qYqUV0nW1swcXdP+Fo9dOHBgANzT6AFe1s0hHtuzfflQw1nLJxMT87KqSEPaOFxssc3y+Aw67qXzWwqQHI3V4Ph/veGA9hJF6zhe1O4N4ykHv6lUcJc8jyzyNmoTRicVkG2xeOYRJyTok7iBKozF00tVdpqvLNNtpAwOae8DgNp0rz72DU5y529FJluvnlGd6+Z/dt0vHOPZ5fAO3tLlCmRS9QvMgabdBu8vDaduDxhMfofaKpewB4qaItIOZDEinqwwKkzl1a+n5FrESW6TqXdFzgKt41OQMgF+RFGkUU7x38nmD+AjTe7gJoY/sN4AbSEW1zDLvzjMmNC2xsYjdY9CfPfLRuoAjQK4zQNtEIKWUPQ3uAzemk0G6zGkQQ9PRrF0M7oc8+YoxeSk/Xdej6N8AoUPTRH8LYcTG/UHea7XdbQGiu1OmdG7GdVIiL75i/NNA68QpmRPrOW+TUUZUlgB0DducZp1KWk4cGWv2SBTT9Q7Q2AOd2hXuupXMn9QQTqSM69LM5trpVFCMJ+SJ4vAEA0GDYB3g+k+1dOWjsf8lZGKg4d/0hvuDbYmz6BM5GC4PzklkJL6syXWYTMzz+KdeUHyi+3OHH0t1/dMOiwivbgZ9pDS8ibXPsH7/qfnulGvIRwVpCwBFsv4QPC9wlZe7EWtL6E7Y71QUySmN/EChiH8ay06uSZbLOSZ/yZu7ria7nyz4mBwDaZqBAw1uMdRxZwbMH6XS8q85tDN5eQ/9sYnHVDObnsNCdq4VgvDSmUABJx8JYOq1VnWcqIXe6WreJW1+4p5ijhUHAYEUK3cX8LJjSm8H8mnfnUyB9JZ1joZRXx8LBDpY4VjF/pzeuDNzkuWveXZ2iLAHEdo2jyRxuyfRgr6kBuYOWPCjMXf8wdlyGqYnrh/Kp+965AQ3B4w2PyK5RBnR7H3MsI6pzd3EcySyMcPsAPyuRc0SLBfIkehQJjG4dYKOFw2Dg1B+mF02p0vmEvY1lNiEzk4Vs7jXsIPjkVVLA7+0sv1WfNpdzkpnxKOPDQvdJnjsvbT4pXTQXWMv8hV2DEXrSZlWyTNE5P+NRPMuWHAA4zyJC0pIXY7HrFyk3YFdmB07DlYmBlN0yZr+exH/0h7BPNnGth1Nd+dLN1eJcRRb2yHnV7tvG0h2DCkn1FNnI3Xgh5U6q8Ui57tLGYP9JZDfO5sD+IDHyVWGZLBOZPuLJSw8WQSnQKYfK3IkgV4Nhhx+DNXZQcJH02h5LJ6vidMQuWWTw8rF87uKP+BZfkMU5se9oYYR17uIY+pUTziY2b0vvtIJHOKnEaknys147CC9cpz/3MAguWonHrxXQsTDuisA7NcNYyodF7pQyd4nH1BUh6k4CAfWqZJmic+13W6XXnuQAQCpbqxtdjIO7fulM9g2ZHVgMOvmMLgPnGS40GJ1nnAaLYzILB18J5xlumQUpkbxnit65bjTzoIiiE/MXNm9OpiaOdFFsZZRN7QJqsiypA0pOvRR55i54TBTPhOUl+Pii2rm+OLarhNDceWes4fFVlUZOLPC7OA7L8Ot97EgyF0qB4oqKzNZgBx4z65s41jNWWFrtP+bnYJKq2yV9WKS9VQf5WRQJqNVZbWFjylMAcnefWOC3iHDuf7sAHNyGnKt43M/9+UN9Mqb/v72zhY0iiALwQ9chSTjBGlKDQpJcMCR1LQpfFOjzZ2t7El9BSh0Jhl6CxF8qOFVDUlWBBjEzezu/OzO7bRP2+2xvdzbvvXnz5s2b12v5Lf4z81f7sue9/574fimb20D9QfNY9jrnVb9uTL3DAHThpH2+pAq3zC5nd048l+WZmTiVhYYvGhFRZ/vteIeN7HaoarelshtuJsdkfgrIlGWQnN/E0I6hyBZLydSdynLpYqhRxj2t6F2gAviiRTJLd/q9xUVxZSQzgfqIpbZC+vjoZb+vGVpL8lDzIIBtA27wMSRQ7Ozqozcdhvswa8Q+3bkZNuuIewA6KLPtYUxZSr/NuWtPYaAYCQB0WurZUWfhUQUk3Uhkvfzm7QbVeWTpRFTXRawCJX02dNdOJc5aLq+cb0rJwDrDm8tyVVCw4+5mOsUcpmbCpOqPVwtdc1A/cT59DOxCL7ay26GqiWvOWj90d15VTjBPlj45v4ljHMOY12Y8cnXXFlTWHZ9YmPRqYUOQurmZozsVFHZ3QslGJkXoxSKRxVGFV42TWi/ABIpJX2OKzIZkkx5mHlhvWi3sQEkHJc1r46+GVMybhT19zXEMH9bSozuvXiRUoV9FoCB6VFnq5xM2t/6xkT/dzJjXYKmfR7PZ7G/0r1ndqpyOTLGrP15jIR/3GtFddlLLxf2msAxcRY9h3Equ0pVByniHXrl6fypfD8WfuIExa/XSJ8tQB7/qxhttk5/48/FFaqj+AroTkZhDKJNn2qm07wo5gwE20jsPAl1DT27eyOL5pmzMgL35NpDpczLZNeZJBBD6u8bwSfc2D0I2EAwabXluLw7k/MnnYt0lO3CacUf2YTm6s77r9qecvLuWt8H5mRwpsyPqOLIUkTybs+S5lS8H5/L0bCH7V3n2kg4AAAAA4L+E/wYIAAAwQQgAAAAAJggBAAAAwAQhAAAAAJggBAAAAAAThAAAAABgghAAAAAATBACAAAAgAlCAAAAADBB/gFB17XFHe0MYwAAAABJRU5ErkJggg==;strokeColor=#000000;" vertex="1" parent="1">
          <mxGeometry x="2812.74" y="560" width="1190.7" height="800" as="geometry" />
        </mxCell>
        <mxCell id="QTnUCfMTTWea07dF9Dti-33" value="" style="rounded=0;whiteSpace=wrap;html=1;fillColor=#74FF5E;gradientColor=none;fillStyle=auto;strokeWidth=5;strokeColor=#000000;" vertex="1" parent="1">
          <mxGeometry x="2960.7" y="560" width="1042.74" height="800" as="geometry" />
        </mxCell>
        <mxCell id="QTnUCfMTTWea07dF9Dti-34" value="" style="rounded=0;whiteSpace=wrap;html=1;fillColor=none;gradientColor=none;fillStyle=auto;strokeWidth=5;" vertex="1" parent="1">
          <mxGeometry x="160" y="-500" width="390" height="50" as="geometry" />
        </mxCell>
        <mxCell id="QTnUCfMTTWea07dF9Dti-35" value="" style="rounded=0;whiteSpace=wrap;html=1;fillColor=none;gradientColor=none;fillStyle=auto;strokeWidth=5;" vertex="1" parent="1">
          <mxGeometry x="550" y="-500" width="390" height="50" as="geometry" />
        </mxCell>
        <mxCell id="QTnUCfMTTWea07dF9Dti-36" value="" style="rounded=0;whiteSpace=wrap;html=1;fillColor=none;gradientColor=none;fillStyle=auto;strokeWidth=5;" vertex="1" parent="1">
          <mxGeometry x="940" y="-500" width="130" height="50" as="geometry" />
        </mxCell>
        <mxCell id="QTnUCfMTTWea07dF9Dti-37" value="" style="rounded=0;whiteSpace=wrap;html=1;fillColor=none;gradientColor=none;fillStyle=auto;strokeWidth=5;" vertex="1" parent="1">
          <mxGeometry x="1072.7399999999998" y="-500" width="127.26" height="50" as="geometry" />
        </mxCell>
        <mxCell id="QTnUCfMTTWea07dF9Dti-38" value="" style="rounded=0;whiteSpace=wrap;html=1;fillColor=none;gradientColor=none;fillStyle=auto;strokeWidth=5;" vertex="1" parent="1">
          <mxGeometry x="160" y="-450" width="130" height="50" as="geometry" />
        </mxCell>
        <mxCell id="QTnUCfMTTWea07dF9Dti-39" value="" style="rounded=0;whiteSpace=wrap;html=1;fillColor=none;gradientColor=none;fillStyle=auto;strokeWidth=5;" vertex="1" parent="1">
          <mxGeometry x="290" y="-450" width="130" height="50" as="geometry" />
        </mxCell>
        <mxCell id="QTnUCfMTTWea07dF9Dti-40" value="" style="rounded=0;whiteSpace=wrap;html=1;fillColor=none;gradientColor=none;fillStyle=auto;strokeWidth=5;" vertex="1" parent="1">
          <mxGeometry x="420" y="-450" width="130" height="50" as="geometry" />
        </mxCell>
        <mxCell id="QTnUCfMTTWea07dF9Dti-41" value="" style="rounded=0;whiteSpace=wrap;html=1;fillColor=none;gradientColor=none;fillStyle=auto;strokeWidth=5;" vertex="1" parent="1">
          <mxGeometry x="550" y="-450" width="70" height="50" as="geometry" />
        </mxCell>
        <mxCell id="QTnUCfMTTWea07dF9Dti-42" value="" style="rounded=0;whiteSpace=wrap;html=1;fillColor=none;gradientColor=none;fillStyle=auto;strokeWidth=5;" vertex="1" parent="1">
          <mxGeometry x="620" y="-450" width="60" height="50" as="geometry" />
        </mxCell>
        <mxCell id="QTnUCfMTTWea07dF9Dti-43" value="" style="rounded=0;whiteSpace=wrap;html=1;fillColor=none;gradientColor=none;fillStyle=auto;strokeWidth=5;" vertex="1" parent="1">
          <mxGeometry x="680" y="-450" width="130" height="50" as="geometry" />
        </mxCell>
        <mxCell id="QTnUCfMTTWea07dF9Dti-44" value="" style="rounded=0;whiteSpace=wrap;html=1;fillColor=none;gradientColor=none;fillStyle=auto;strokeWidth=5;" vertex="1" parent="1">
          <mxGeometry x="810" y="-450" width="260" height="50" as="geometry" />
        </mxCell>
        <mxCell id="QTnUCfMTTWea07dF9Dti-45" value="" style="rounded=0;whiteSpace=wrap;html=1;fillColor=none;gradientColor=none;fillStyle=auto;strokeWidth=5;strokeColor=none;" vertex="1" parent="1">
          <mxGeometry x="1072.7399999999998" y="-450" width="127.26" height="50" as="geometry" />
        </mxCell>
        <mxCell id="QTnUCfMTTWea07dF9Dti-46" value="" style="rounded=0;whiteSpace=wrap;html=1;fillColor=none;gradientColor=none;fillStyle=auto;strokeWidth=5;" vertex="1" parent="1">
          <mxGeometry x="1072.7399999999998" y="-450" width="130" height="50" as="geometry" />
        </mxCell>
        <mxCell id="QTnUCfMTTWea07dF9Dti-47" value="" style="rounded=0;whiteSpace=wrap;html=1;fillColor=none;gradientColor=none;fillStyle=auto;strokeWidth=5;" vertex="1" parent="1">
          <mxGeometry x="157.26" y="-400" width="130" height="50" as="geometry" />
        </mxCell>
        <mxCell id="QTnUCfMTTWea07dF9Dti-48" value="" style="rounded=0;whiteSpace=wrap;html=1;fillColor=none;gradientColor=none;fillStyle=auto;strokeWidth=5;" vertex="1" parent="1">
          <mxGeometry x="287.26" y="-400" width="130" height="50" as="geometry" />
        </mxCell>
        <mxCell id="QTnUCfMTTWea07dF9Dti-49" value="" style="rounded=0;whiteSpace=wrap;html=1;fillColor=none;gradientColor=none;fillStyle=auto;strokeWidth=5;" vertex="1" parent="1">
          <mxGeometry x="417.26" y="-400" width="130" height="50" as="geometry" />
        </mxCell>
        <mxCell id="QTnUCfMTTWea07dF9Dti-50" value="" style="rounded=0;whiteSpace=wrap;html=1;fillColor=none;gradientColor=none;fillStyle=auto;strokeWidth=5;" vertex="1" parent="1">
          <mxGeometry x="677.2600000000002" y="-400" width="130" height="50" as="geometry" />
        </mxCell>
        <mxCell id="QTnUCfMTTWea07dF9Dti-51" value="" style="rounded=0;whiteSpace=wrap;html=1;fillColor=none;gradientColor=none;fillStyle=auto;strokeWidth=5;strokeColor=none;" vertex="1" parent="1">
          <mxGeometry x="1072.74" y="-395" width="127.26" height="50" as="geometry" />
        </mxCell>
        <mxCell id="QTnUCfMTTWea07dF9Dti-52" value="" style="rounded=0;whiteSpace=wrap;html=1;fillColor=none;gradientColor=none;fillStyle=auto;strokeWidth=5;" vertex="1" parent="1">
          <mxGeometry x="547.2600000000002" y="-400" width="130" height="50" as="geometry" />
        </mxCell>
        <mxCell id="QTnUCfMTTWea07dF9Dti-53" value="" style="rounded=0;whiteSpace=wrap;html=1;fillColor=none;gradientColor=none;fillStyle=auto;strokeWidth=10;strokeColor=#1e1e1e;" vertex="1" parent="1">
          <mxGeometry x="130" y="-400" width="27.26" height="50" as="geometry" />
        </mxCell>
        <mxCell id="QTnUCfMTTWea07dF9Dti-54" value="" style="rounded=0;whiteSpace=wrap;html=1;fillColor=none;gradientColor=none;fillStyle=auto;strokeWidth=8;strokeColor=#1e1e1e;" vertex="1" parent="1">
          <mxGeometry x="1202.7399999999998" y="-450" width="27.26" height="50" as="geometry" />
        </mxCell>
        <mxCell id="QTnUCfMTTWea07dF9Dti-55" value="" style="rounded=0;whiteSpace=wrap;html=1;fillColor=none;gradientColor=none;fillStyle=auto;strokeWidth=5;strokeColor=#74FF5E;" vertex="1" parent="1">
          <mxGeometry x="160" y="-345" width="1042.74" height="705" as="geometry" />
        </mxCell>
        <mxCell id="QTnUCfMTTWea07dF9Dti-56" value="" style="rounded=0;whiteSpace=wrap;html=1;fillColor=none;gradientColor=none;fillStyle=auto;strokeWidth=5;strokeColor=#74FF5E;" vertex="1" parent="1">
          <mxGeometry x="810" y="-395" width="392.74" height="45" as="geometry" />
        </mxCell>
        <mxCell id="QTnUCfMTTWea07dF9Dti-57" value="" style="rounded=0;whiteSpace=wrap;html=1;fillColor=none;gradientColor=none;fillStyle=auto;strokeWidth=15;strokeColor=#1e1e1e;" vertex="1" parent="1">
          <mxGeometry x="820" y="-350" width="360" height="10" as="geometry" />
        </mxCell>
        <mxCell id="QTnUCfMTTWea07dF9Dti-58" value="" style="rounded=0;whiteSpace=wrap;html=1;fillColor=none;gradientColor=none;fillStyle=auto;strokeWidth=14;strokeColor=#1e1e1e;" vertex="1" parent="1">
          <mxGeometry x="1162.74" y="-350" width="30" height="10" as="geometry" />
        </mxCell>
      </root>
    </mxGraphModel>
  </diagram>
</mxfile>
